<svg width="400" height="105" viewBox="0 0 400 105" fill="none" xmlns="http://www.w3.org/2000/svg">
<path fill-rule="evenodd" clip-rule="evenodd" d="M15.0222 32.0262C9.28766 34.5658 6.7071 41.2542 9.25255 46.9654L28.2235 89.5592C30.7689 95.2821 37.4924 97.8568 43.2328 95.3231L45.4916 94.3224C53.4966 90.7881 58.5816 82.8065 58.3943 74.0876L57.9555 53.9229L48.4759 53.9697C46.1937 53.9873 44.3329 52.1499 44.3212 49.8736C44.3095 47.6032 46.1469 45.7482 48.4349 45.7365L57.7741 45.6839L57.5693 36.2394C57.5166 33.9631 59.3306 32.0789 61.6127 32.0321C63.8949 31.9852 65.7908 33.7875 65.8376 36.0638L66.0483 45.637L74.8842 45.5902C77.1663 45.5785 79.0271 47.4159 79.0388 49.6864C79.0564 51.9626 77.2131 53.8176 74.9251 53.8293L66.2238 53.8761L66.6627 73.912C66.926 85.9488 59.8982 96.9732 48.8445 101.853L46.5917 102.854C36.6732 107.237 25.0636 102.778 20.6632 92.9005L1.69227 50.3066C-2.70229 40.4408 1.75664 28.8897 11.6576 24.501L54.1636 5.65301C64.088 1.2526 75.7093 5.70567 80.1155 15.589L99.0513 58.0951C103.458 68.0019 98.9518 79.5881 88.9924 83.9417L83.0998 86.5222C81.0108 87.4351 78.5707 86.493 77.652 84.4098C76.7333 82.3266 77.6812 79.8924 79.7703 78.9795L85.6628 76.4048C91.4325 73.8769 94.0423 67.171 91.4852 61.4364L72.5552 18.9303C70.0039 13.2074 63.2746 10.6327 57.5283 13.1782L15.0222 32.0262Z" fill="#9CA3AF"/>
<path d="M12.3597 22.2207C11.4293 20.1375 12.3656 17.7032 14.4546 16.7787C16.5436 15.8541 18.9838 16.7904 19.9142 18.8677L24.6481 29.4533C25.5785 31.5306 24.6364 33.9649 22.5532 34.8894C20.4642 35.814 18.0182 34.8777 17.0878 32.8004L12.3597 22.2207Z" fill="#9CA3AF"/>
<path d="M45.1814 7.66152C44.2569 5.5842 45.1931 3.14993 47.2822 2.22538C49.3653 1.30082 51.8113 2.23123 52.7417 4.3144L57.4698 14.8941C58.4002 16.9714 57.464 19.4115 55.3749 20.3361C53.2918 21.2607 50.8458 20.3244 49.9154 18.2471L45.1814 7.66152Z" fill="#9CA3AF"/>
<path d="M125.066 33.4007C123.58 33.4007 122.199 33.0964 120.923 32.4879C119.659 31.8676 118.641 31.0308 117.88 29.9834C117.131 28.9242 116.757 27.7598 116.757 26.4958C116.757 24.4536 117.582 22.7859 119.238 21.4868C120.888 20.1761 123.129 19.3335 125.956 18.9589L133.282 17.9525V16.314C133.282 14.6171 132.755 13.3121 131.714 12.4051C130.684 11.4864 129.098 11.0242 126.962 11.0242C125.382 11.0242 124.089 11.3402 123.077 11.9604C122.076 12.5865 121.444 13.3297 121.181 14.184C121.052 14.5585 120.906 14.816 120.736 14.9564C120.56 15.0969 120.338 15.1671 120.057 15.1671H119.402C119.121 15.1671 118.875 15.0676 118.676 14.8628C118.489 14.6639 118.395 14.4181 118.395 14.1372C118.395 13.4701 118.7 12.6802 119.308 11.7732C119.928 10.8545 120.888 10.0587 122.187 9.38572C123.48 8.70108 125.072 8.35583 126.962 8.35583C130.268 8.35583 132.615 9.1458 134.007 10.7199C135.412 12.2998 136.114 14.2074 136.114 16.4545V31.9027C136.114 32.2187 136.02 32.4645 135.833 32.6517C135.646 32.839 135.394 32.9326 135.084 32.9326H134.288C133.99 32.9326 133.75 32.839 133.563 32.6517C133.375 32.4645 133.282 32.2187 133.282 31.9027V29.7259C132.591 30.7558 131.597 31.6335 130.286 32.3474C128.975 33.0496 127.231 33.4007 125.066 33.4007ZM125.534 30.709C127.793 30.709 129.654 29.9717 131.105 28.4854C132.556 27.0049 133.282 24.8691 133.282 22.072V20.5038L127.29 21.3464C124.762 21.6741 122.843 22.2593 121.532 23.1019C120.233 23.9328 119.589 24.9861 119.589 26.2618C119.589 27.6837 120.18 28.7838 121.368 29.5621C122.567 30.3286 123.954 30.709 125.534 30.709Z" fill="#6B7280"/>
<path d="M152.434 43.1378C150.011 43.1378 148.08 42.7165 146.629 41.8738C145.178 41.0429 144.16 40.095 143.586 39.0183C143.024 37.9533 142.743 37.0287 142.743 36.2329C142.743 35.952 142.843 35.718 143.048 35.5307C143.247 35.3435 143.481 35.2498 143.75 35.2498H144.405C144.686 35.2498 144.909 35.32 145.084 35.4605C145.254 35.6009 145.4 35.8584 145.529 36.2329C146.477 39.0417 148.7 40.4461 152.2 40.4461C154.868 40.4461 156.834 39.8902 158.098 38.7842C159.362 37.6899 159.994 35.7414 159.994 32.9326V29.7259C158.198 32.1777 155.599 33.4007 152.2 33.4007C148.858 33.4007 146.395 32.3123 144.803 30.1238C143.212 27.9412 142.369 25.2904 142.275 22.1656L142.229 20.8783L142.275 19.5675C142.369 16.4486 143.212 13.8037 144.803 11.6327C146.395 9.45009 148.858 8.35583 152.2 8.35583C155.57 8.35583 158.168 9.57297 159.994 12.0072V9.87725C159.994 9.56712 160.088 9.30965 160.275 9.10484C160.462 8.90589 160.708 8.80056 161.024 8.80056H161.749C162.06 8.80056 162.317 8.90589 162.522 9.10484C162.721 9.30965 162.826 9.56712 162.826 9.87725V32.4645C162.826 35.7706 162.054 38.3746 160.509 40.2822C158.964 42.184 156.272 43.1378 152.434 43.1378ZM152.481 30.709C154.927 30.709 156.77 29.9015 158.004 28.2747C159.233 26.6538 159.9 24.7403 159.994 22.5401C160.023 22.23 160.041 21.6741 160.041 20.8783C160.041 20.0708 160.023 19.509 159.994 19.193C159.9 17.0104 159.233 15.1086 158.004 13.4818C156.77 11.8434 154.927 11.0242 152.481 11.0242C149.964 11.0242 148.133 11.8317 146.98 13.435C145.821 15.0267 145.201 17.0747 145.108 19.5675L145.061 20.8783L145.108 22.1656C145.201 24.6818 145.821 26.7299 146.98 28.3215C148.133 29.9132 149.964 30.709 152.481 30.709Z" fill="#6B7280"/>
<path d="M179.337 33.4007C176.4 33.4007 174.035 32.4352 172.245 30.4983C170.448 28.5673 169.424 25.975 169.179 22.7274L169.132 20.8783L169.179 19.0058C169.424 15.7932 170.443 13.2185 172.221 11.2816C174 9.33305 176.37 8.35583 179.337 8.35583C182.55 8.35583 185.06 9.42668 186.874 11.5625C188.682 13.6867 189.589 16.6066 189.589 20.3165V21.0187C189.589 21.3171 189.484 21.5571 189.285 21.7443C189.08 21.9316 188.828 22.0252 188.536 22.0252H172.011V22.4933C172.069 23.9445 172.397 25.3021 172.994 26.566C173.602 27.8183 174.445 28.8248 175.522 29.5855C176.61 30.3345 177.886 30.709 179.337 30.709C181.034 30.709 182.415 30.3813 183.48 29.7259C184.557 29.0588 185.329 28.38 185.797 27.6895C186.061 27.315 186.265 27.081 186.406 26.9874C186.546 26.8937 186.804 26.8469 187.178 26.8469H187.927C188.208 26.8469 188.43 26.9288 188.606 27.081C188.793 27.239 188.887 27.4438 188.887 27.6895C188.887 28.3449 188.471 29.1349 187.646 30.0536C186.833 30.9606 185.704 31.7506 184.252 32.4176C182.801 33.073 181.163 33.4007 179.337 33.4007ZM186.757 19.4271V19.2398C186.757 16.8699 186.084 14.9096 184.744 13.3648C183.398 11.8083 181.596 11.0242 179.337 11.0242C177.072 11.0242 175.288 11.8083 173.977 13.3648C172.666 14.9096 172.011 16.8699 172.011 19.2398V19.4271H186.757Z" fill="#6B7280"/>
<path d="M196.728 32.9326C196.412 32.9326 196.166 32.839 195.979 32.6517C195.804 32.4645 195.722 32.2187 195.722 31.9027V9.83044C195.722 9.52031 195.804 9.26869 195.979 9.08143C196.166 8.89418 196.412 8.80056 196.728 8.80056H197.524C197.834 8.80056 198.074 8.89418 198.25 9.08143C198.437 9.26869 198.53 9.52031 198.53 9.83044V12.0072C199.467 10.8077 200.526 9.90066 201.714 9.29209C202.913 8.67182 204.452 8.35583 206.325 8.35583C209.368 8.35583 211.708 9.3272 213.347 11.2582C214.985 13.1776 215.804 15.6762 215.804 18.7483V31.9027C215.804 32.2187 215.711 32.4645 215.524 32.6517C215.336 32.839 215.085 32.9326 214.775 32.9326H213.979C213.68 32.9326 213.44 32.839 213.253 32.6517C213.066 32.4645 212.972 32.2187 212.972 31.9027V18.9589C212.972 16.4662 212.352 14.5234 211.123 13.1307C209.906 11.7264 208.156 11.0242 205.88 11.0242C203.645 11.0242 201.86 11.7381 200.52 13.1542C199.192 14.5585 198.53 16.4954 198.53 18.9589V31.9027C198.53 32.2187 198.437 32.4645 198.25 32.6517C198.074 32.839 197.834 32.9326 197.524 32.9326H196.728Z" fill="#6B7280"/>
<path d="M231.797 33.401C228.456 33.401 225.993 32.3126 224.401 30.1241C222.809 27.9414 221.967 25.2906 221.873 22.1659L221.826 20.8785L221.873 19.5678C221.967 16.4489 222.809 13.8039 224.401 11.633C225.993 9.45035 228.456 8.3561 231.797 8.3561C235.168 8.3561 237.766 9.57323 239.592 12.0075V1.00648C239.592 0.713897 239.685 0.468129 239.873 0.280877C240.06 0.0936257 240.306 0 240.622 0H241.394C241.704 0 241.956 0.0936257 242.143 0.280877C242.33 0.468129 242.424 0.713897 242.424 1.00648V31.903C242.424 32.219 242.33 32.4647 242.143 32.652C241.956 32.8392 241.704 32.9328 241.394 32.9328H240.622C240.306 32.9328 240.06 32.8392 239.873 32.652C239.685 32.4647 239.592 32.219 239.592 31.903V29.7262C237.795 32.178 235.197 33.401 231.797 33.401ZM232.078 30.7092C234.524 30.7092 236.367 29.9017 237.602 28.275C238.831 26.6541 239.498 24.7406 239.592 22.5404C239.621 22.2303 239.638 21.6275 239.638 20.7381C239.638 19.8369 239.621 19.2284 239.592 18.9124C239.557 17.5899 239.264 16.3318 238.702 15.144C238.152 13.9619 237.321 12.9789 236.198 12.1948C235.086 11.4165 233.717 11.0244 232.078 11.0244C229.58 11.0244 227.748 11.832 226.578 13.4353C225.419 15.0269 224.799 17.075 224.705 19.5678L224.658 20.8785C224.658 23.7517 225.208 26.1099 226.32 27.9473C227.444 29.7905 229.363 30.7092 232.078 30.7092Z" fill="#6B7280"/>
<path d="M256.477 33.4007C254.991 33.4007 253.61 33.0964 252.334 32.4879C251.07 31.8676 250.052 31.0308 249.291 29.9834C248.542 28.9242 248.168 27.7598 248.168 26.4958C248.168 24.4536 248.993 22.7859 250.649 21.4868C252.299 20.1761 254.54 19.3335 257.367 18.9589L264.693 17.9525V16.314C264.693 14.6171 264.166 13.3121 263.125 12.4051C262.095 11.4864 260.509 11.0242 258.373 11.0242C256.793 11.0242 255.5 11.3402 254.488 11.9604C253.487 12.5865 252.855 13.3297 252.592 14.184C252.463 14.5585 252.317 14.816 252.147 14.9564C251.972 15.0969 251.749 15.1671 251.468 15.1671H250.813C250.532 15.1671 250.286 15.0676 250.087 14.8628C249.9 14.6639 249.806 14.4181 249.806 14.1372C249.806 13.4701 250.111 12.6802 250.719 11.7732C251.34 10.8545 252.299 10.0587 253.598 9.38572C254.891 8.70108 256.483 8.35583 258.373 8.35583C261.679 8.35583 264.026 9.1458 265.419 10.7199C266.823 12.2998 267.525 14.2074 267.525 16.4545V31.9027C267.525 32.2187 267.431 32.4645 267.244 32.6517C267.057 32.839 266.805 32.9326 266.495 32.9326H265.699C265.401 32.9326 265.161 32.839 264.974 32.6517C264.787 32.4645 264.693 32.2187 264.693 31.9027V29.7259C264.002 30.7558 263.008 31.6335 261.697 32.3474C260.386 33.0496 258.642 33.4007 256.477 33.4007ZM256.945 30.709C259.204 30.709 261.065 29.9717 262.516 28.4854C263.967 27.0049 264.693 24.8691 264.693 22.072V20.5038L258.701 21.3464C256.173 21.6741 254.254 22.2593 252.943 23.1019C251.644 23.9328 251 24.9861 251 26.2618C251 27.6837 251.591 28.7838 252.779 29.5621C253.979 30.3286 255.365 30.709 256.945 30.709Z" fill="#6B7280"/>
<path d="M135.709 96.1633C132.058 96.1633 128.857 95.4962 126.113 94.1738C123.363 92.8337 121.203 90.891 119.629 88.3456C118.049 85.806 117.183 82.7514 117.031 79.1936C116.984 78.3978 116.961 77.403 116.961 76.1976C116.961 74.9805 116.984 73.974 117.031 73.1782C117.183 69.5736 118.038 66.5015 119.582 63.9561C121.139 61.4165 123.304 59.4796 126.066 58.1513C128.84 56.8112 132.058 56.1383 135.709 56.1383C138.969 56.1383 141.76 56.6006 144.089 57.5193C146.412 58.4263 148.308 59.5908 149.777 61.0068C151.257 62.4112 152.363 63.8566 153.1 65.337C153.849 66.8233 154.253 68.1224 154.318 69.2459C154.364 69.796 154.183 70.2465 153.779 70.6035C153.387 70.9487 152.942 71.1184 152.445 71.1184H144.534C143.984 71.1184 143.574 70.9955 143.293 70.7439C143.024 70.4982 142.767 70.1002 142.521 69.5502C141.877 67.8181 141.011 66.5893 139.923 65.852C138.846 65.103 137.488 64.7285 135.85 64.7285C133.632 64.7285 131.894 65.4482 130.63 66.8819C129.366 68.3214 128.688 70.545 128.594 73.5527C128.5 75.4896 128.5 77.2451 128.594 78.8191C128.688 81.8795 129.366 84.1031 130.63 85.49C131.894 86.8651 133.632 87.5497 135.85 87.5497C137.582 87.5497 138.963 87.1869 139.993 86.4496C141.034 85.7006 141.877 84.4718 142.521 82.7514C142.767 82.2072 143.024 81.8093 143.293 81.5577C143.574 81.3119 143.984 81.1832 144.534 81.1832H152.445C152.942 81.1832 153.387 81.3587 153.779 81.6981C154.183 82.0434 154.364 82.4881 154.318 83.0323C154.253 83.8749 153.996 84.8697 153.545 86.0049C153.106 87.146 152.428 88.3104 151.509 89.4925C150.602 90.6803 149.432 91.7804 147.998 92.7928C146.576 93.811 144.838 94.6302 142.778 95.2504C140.73 95.859 138.378 96.1633 135.709 96.1633Z" fill="#6B7280"/>
<path d="M172.83 96.1633C170.209 96.1633 167.856 95.6542 165.785 94.6419C163.708 93.6296 162.052 92.2544 160.823 90.5224C159.588 88.7903 158.974 86.8651 158.974 84.741C158.974 81.23 160.39 78.468 163.234 76.4551C166.072 74.4304 169.817 73.0377 174.469 72.2887L184.159 70.8844V69.5502C184.159 67.6309 183.714 66.1563 182.825 65.1264C181.935 64.0848 180.379 63.5581 178.167 63.5581C176.528 63.5581 175.224 63.88 174.258 64.5178C173.304 65.1615 172.555 65.9924 172.011 67.0223C171.619 67.6777 171.028 68.0054 170.232 68.0054H163.187C162.637 68.0054 162.215 67.8415 161.923 67.5138C161.624 67.1861 161.507 66.8058 161.572 66.3669C161.572 65.5243 161.888 64.5354 162.531 63.3943C163.169 62.2591 164.152 61.1356 165.481 60.0238C166.821 58.9178 168.535 57.9991 170.63 57.2618C172.737 56.5128 175.27 56.1383 178.237 56.1383C181.338 56.1383 184.001 56.5128 186.219 57.2618C188.448 57.9991 190.245 59.0349 191.602 60.3749C192.971 61.7032 193.966 63.248 194.575 65.0093C195.195 66.759 195.511 68.649 195.511 70.6737V93.5652C195.511 94.1152 195.33 94.56 194.973 94.8994C194.627 95.2446 194.212 95.4143 193.732 95.4143H186.383C185.897 95.4143 185.476 95.2446 185.119 94.8994C184.773 94.56 184.604 94.1152 184.604 93.5652V90.8266C183.96 91.7629 183.094 92.6406 182.006 93.4482C180.929 94.2615 179.63 94.9169 178.12 95.4143C176.622 95.9117 174.855 96.1633 172.83 96.1633ZM175.779 88.4392C177.418 88.4392 178.875 88.0998 180.156 87.4093C181.45 86.7247 182.462 85.6655 183.199 84.226C183.948 82.7924 184.323 80.9901 184.323 78.8191V77.5552L177.418 78.6553C174.796 79.1117 172.865 79.7788 171.637 80.6682C170.402 81.5577 169.787 82.6461 169.787 83.9217C169.787 84.858 170.068 85.6655 170.63 86.3326C171.203 87.0055 171.947 87.5263 172.854 87.9008C173.772 88.2636 174.75 88.4392 175.779 88.4392Z" fill="#6B7280"/>
<path d="M222.987 95.4142C219.927 95.4142 217.323 94.9109 215.17 93.8928C213.016 92.8804 211.366 91.3122 210.231 89.1881C209.107 87.0698 208.546 84.4015 208.546 81.1831V65.6178H202.764C202.214 65.6178 201.763 65.4481 201.407 65.1028C201.061 64.7634 200.892 64.3421 200.892 63.8389V58.7363C200.892 58.1921 201.061 57.7474 201.407 57.4021C201.763 57.0627 202.214 56.8872 202.764 56.8872H208.546V44.6456C208.546 44.1014 208.721 43.6567 209.084 43.3115C209.458 42.9721 209.891 42.7965 210.395 42.7965H217.721C218.218 42.7965 218.64 42.9721 218.985 43.3115C219.324 43.6567 219.5 44.1014 219.5 44.6456V56.8872H228.769C229.313 56.8872 229.758 57.0627 230.103 57.4021C230.442 57.7474 230.618 58.1921 230.618 58.7363V63.8389C230.618 64.3421 230.442 64.7634 230.103 65.1028C229.758 65.4481 229.313 65.6178 228.769 65.6178H219.5V80.2936C219.5 82.1661 219.839 83.6407 220.53 84.7174C221.232 85.7824 222.39 86.3091 224.017 86.3091H229.424C229.968 86.3091 230.413 86.4846 230.758 86.824C231.115 87.1693 231.297 87.5906 231.297 88.088V93.5651C231.297 94.1151 231.115 94.5598 230.758 94.8992C230.413 95.2445 229.968 95.4142 229.424 95.4142H222.987Z" fill="#6B7280"/>
<path d="M255.291 96.163C251.183 96.163 247.754 95.4843 244.992 94.1267C242.23 92.7691 240.112 90.8381 238.649 88.3219C237.198 85.794 236.39 82.8448 236.238 79.4743C236.191 78.4912 236.168 77.3794 236.168 76.1271C236.168 74.8632 236.191 73.7572 236.238 72.8034C236.39 69.4036 237.233 66.4544 238.766 63.9558C240.293 61.463 242.441 59.532 245.203 58.1744C247.977 56.8168 251.341 56.138 255.291 56.138C259.188 56.138 262.524 56.8168 265.286 58.1744C268.059 59.532 270.213 61.463 271.746 63.9558C273.273 66.4544 274.139 69.4036 274.344 72.8034C274.391 73.7572 274.414 74.8632 274.414 76.1271C274.414 77.3794 274.391 78.4912 274.344 79.4743C274.139 82.8448 273.302 85.794 271.839 88.3219C270.388 90.8381 268.282 92.7691 265.52 94.1267C262.758 95.4843 259.346 96.163 255.291 96.163ZM255.291 87.924C257.708 87.924 259.516 87.1867 260.721 85.7004C261.938 84.2199 262.623 82.0197 262.781 79.0998C262.828 78.3683 262.851 77.3852 262.851 76.1505C262.851 74.9217 262.828 73.9269 262.781 73.1779C262.623 70.3223 261.938 68.1397 260.721 66.6241C259.516 65.1144 257.708 64.3537 255.291 64.3537C252.868 64.3537 251.043 65.1144 249.814 66.6241C248.579 68.1397 247.883 70.3223 247.731 73.1779C247.684 73.9269 247.661 74.9217 247.661 76.1505C247.661 77.3852 247.684 78.3683 247.731 79.0998C247.883 82.0197 248.579 84.2199 249.814 85.7004C251.043 87.1867 252.868 87.924 255.291 87.924ZM251.452 51.3163C250.657 51.3163 250.259 50.9301 250.259 50.146C250.259 49.7422 250.382 49.4146 250.633 49.1629L256.929 41.5324C257.362 40.9414 257.772 40.5611 258.147 40.3855C258.521 40.2158 259.024 40.1281 259.668 40.1281H268.188C269.124 40.1281 269.592 40.6196 269.592 41.6027C269.592 41.9655 269.464 42.258 269.218 42.4921L259.738 50.2864C259.346 50.6317 258.948 50.8892 258.545 51.0589C258.152 51.2344 257.638 51.3163 257 51.3163H251.452Z" fill="#6B7280"/>
<path d="M284.042 95.4142C283.492 95.4142 283.042 95.2445 282.685 94.8992C282.34 94.5598 282.17 94.1151 282.17 93.5651V44.6456C282.17 44.1014 282.34 43.6567 282.685 43.3115C283.042 42.9721 283.492 42.7965 284.042 42.7965H291.439C291.983 42.7965 292.428 42.9721 292.773 43.3115C293.112 43.6567 293.288 44.1014 293.288 44.6456V93.5651C293.288 94.1151 293.112 94.5598 292.773 94.8992C292.428 95.2445 291.983 95.4142 291.439 95.4142H284.042Z" fill="#6B7280"/>
<path d="M304.399 95.4142C303.913 95.4142 303.486 95.2445 303.111 94.8993C302.737 94.5599 302.55 94.1151 302.55 93.5651V58.7363C302.55 58.1921 302.737 57.7474 303.111 57.4021C303.486 57.0628 303.913 56.8872 304.399 56.8872H311.889C312.386 56.8872 312.807 57.0628 313.153 57.4021C313.492 57.7474 313.668 58.1921 313.668 58.7363V93.5651C313.668 94.1151 313.492 94.5599 313.153 94.8993C312.807 95.2445 312.386 95.4142 311.889 95.4142H304.399ZM304.188 50.942C303.685 50.942 303.264 50.7723 302.924 50.427C302.579 50.0876 302.409 49.6429 302.409 49.0929V43.1008C302.409 42.6034 302.579 42.1763 302.924 41.8135C303.264 41.439 303.685 41.2517 304.188 41.2517H312.053C312.532 41.2517 312.965 41.439 313.34 41.8135C313.714 42.1763 313.902 42.6034 313.902 43.1008V49.0929C313.902 49.6429 313.714 50.0876 313.34 50.427C312.965 50.7723 312.532 50.942 312.053 50.942H304.188Z" fill="#6B7280"/>
<path d="M340.199 96.1633C336.547 96.1633 333.347 95.4962 330.602 94.1738C327.852 92.8337 325.693 90.891 324.119 88.3456C322.539 85.806 321.673 82.7514 321.52 79.1936C321.474 78.3978 321.45 77.403 321.45 76.1976C321.45 74.9805 321.474 73.974 321.52 73.1782C321.673 69.5736 322.527 66.5015 324.072 63.9561C325.628 61.4165 327.793 59.4796 330.555 58.1513C333.329 56.8112 336.547 56.1383 340.199 56.1383C343.458 56.1383 346.249 56.6006 348.578 57.5193C350.901 58.4263 352.797 59.5908 354.266 61.0068C355.746 62.4112 356.852 63.8566 357.59 65.337C358.339 66.8233 358.742 68.1224 358.807 69.2459C358.854 69.796 358.672 70.2465 358.269 70.6035C357.876 70.9487 357.432 71.1184 356.934 71.1184H349.023C348.473 71.1184 348.063 70.9955 347.782 70.7439C347.513 70.4982 347.256 70.1002 347.01 69.5502C346.366 67.8181 345.5 66.5893 344.412 65.852C343.335 65.103 341.978 64.7285 340.339 64.7285C338.121 64.7285 336.383 65.4482 335.12 66.8819C333.856 68.3214 333.177 70.545 333.083 73.5527C332.99 75.4896 332.99 77.2451 333.083 78.8191C333.177 81.8795 333.856 84.1031 335.12 85.49C336.383 86.8651 338.121 87.5497 340.339 87.5497C342.071 87.5497 343.452 87.1869 344.482 86.4496C345.524 85.7006 346.366 84.4718 347.01 82.7514C347.256 82.2072 347.513 81.8093 347.782 81.5577C348.063 81.3119 348.473 81.1832 349.023 81.1832H356.934C357.432 81.1832 357.876 81.3587 358.269 81.6981C358.672 82.0434 358.854 82.4881 358.807 83.0323C358.742 83.8749 358.485 84.8697 358.034 86.0049C357.596 87.146 356.917 88.3104 355.998 89.4925C355.091 90.6803 353.921 91.7804 352.487 92.7928C351.065 93.811 349.327 94.6302 347.267 95.2504C345.219 95.859 342.867 96.1633 340.199 96.1633Z" fill="#6B7280"/>
<path d="M377.32 96.1633C374.698 96.1633 372.346 95.6542 370.274 94.6419C368.197 93.6296 366.541 92.2544 365.312 90.5224C364.077 88.7903 363.463 86.8651 363.463 84.741C363.463 81.23 364.879 78.468 367.723 76.4551C370.561 74.4304 374.306 73.0377 378.958 72.2887L388.648 70.8844V69.5502C388.648 67.6309 388.203 66.1563 387.314 65.1264C386.425 64.0848 384.868 63.5581 382.656 63.5581C381.018 63.5581 379.713 63.88 378.747 64.5178C377.793 65.1615 377.044 65.9924 376.5 67.0223C376.108 67.6777 375.517 68.0054 374.721 68.0054H367.676C367.126 68.0054 366.705 67.8415 366.412 67.5138C366.114 67.1861 365.997 66.8058 366.061 66.3669C366.061 65.5243 366.377 64.5354 367.021 63.3943C367.658 62.2591 368.642 61.1356 369.97 60.0238C371.31 58.9178 373.024 57.9991 375.119 57.2618C377.226 56.5128 379.76 56.1383 382.726 56.1383C385.828 56.1383 388.49 56.5128 390.708 57.2618C392.937 57.9991 394.734 59.0349 396.091 60.3749C397.461 61.7032 398.456 63.248 399.064 65.0093C399.684 66.759 400 68.649 400 70.6737V93.5652C400 94.1152 399.819 94.56 399.462 94.8994C399.117 95.2446 398.701 95.4143 398.221 95.4143H390.872C390.386 95.4143 389.965 95.2446 389.608 94.8994C389.263 94.56 389.093 94.1152 389.093 93.5652V90.8266C388.449 91.7629 387.583 92.6406 386.495 93.4482C385.418 94.2615 384.119 94.9169 382.609 95.4143C381.111 95.9117 379.344 96.1633 377.32 96.1633ZM380.269 88.4392C381.907 88.4392 383.364 88.0998 384.646 87.4093C385.939 86.7247 386.951 85.6655 387.689 84.226C388.438 82.7924 388.812 80.9901 388.812 78.8191V77.5552L381.907 78.6553C379.286 79.1117 377.355 79.7788 376.126 80.6682C374.891 81.5577 374.277 82.6461 374.277 83.9217C374.277 84.858 374.558 85.6655 375.119 86.3326C375.693 87.0055 376.436 87.5263 377.343 87.9008C378.262 88.2636 379.239 88.4392 380.269 88.4392Z" fill="#6B7280"/>
</svg>
