<svg width="400" height="79" viewBox="0 0 400 79" fill="none" xmlns="http://www.w3.org/2000/svg">
<path d="M341.99 25.3123L341.651 0.579651H346.482L346.192 25.3123H341.99ZM341.7 34.6836V29.9496H346.53V34.6836H341.7Z" fill="#6B7280"/>
<path d="M314.173 39.7558C314.173 39.7558 315.574 40.9151 317.651 40.9151C319.729 40.9151 321.323 39.4659 322.144 37.5337L323.158 35.1184L314.608 13.8638H311.517V10.2408H322.675V13.8638H319.439L324.897 28.4039C325.235 29.4666 325.332 30.5293 325.332 30.5293H325.477C325.477 30.5293 325.67 29.4666 326.057 28.4039L331.467 13.8638H328.327V10.2408H339.148V13.8638H336.104L326.443 38.5481C324.801 42.7024 321.613 44.8279 317.845 44.8279C314.705 44.8279 312.579 43.2821 312.579 43.2821L314.173 39.7558Z" fill="#6B7280"/>
<path d="M287.99 27.8725C287.99 20.1919 298.183 19.6605 302.24 19.6605H303.786V18.7427C303.786 14.8782 301.564 13.5257 298.569 13.5257C294.705 13.5257 291.565 15.8927 291.565 15.8927L289.681 12.5595C289.681 12.5595 293.256 9.66119 298.956 9.66119C305.187 9.66119 308.472 12.8977 308.472 19.0808V29.998C308.472 30.7226 308.858 31.0607 309.535 31.0607H311.998V34.6837H307.119C304.946 34.6837 304.076 33.6209 304.076 32.0268V31.6887C304.076 30.7226 304.269 30.0946 304.269 30.0946H304.173C304.173 30.0946 302.047 35.2633 296.106 35.2633C292.048 35.2633 287.99 32.8963 287.99 27.8725ZM292.724 27.4861C292.724 29.6598 294.318 31.6404 297.12 31.6404C301.274 31.6404 303.835 27.3895 303.835 23.7182V22.7038H302.627C300.405 22.7038 292.724 22.8004 292.724 27.4861Z" fill="#6B7280"/>
<path d="M277.8 27.7276V4.20259H273.742V0.579651H282.486V27.4377C282.486 29.5149 282.969 30.9158 285.094 30.9158C285.867 30.9158 286.398 30.8675 286.398 30.8675L286.35 34.7319C286.35 34.7319 285.384 34.8285 284.273 34.8285C280.795 34.8285 277.8 33.4277 277.8 27.7276Z" fill="#6B7280"/>
<path d="M246.144 34.6836V30.9158H250.394V4.29921H246.144V0.579651H262.036C264.113 0.579651 266.191 0.72457 267.881 1.49746C271.408 2.99495 273.678 6.61789 273.678 11.1586C273.678 15.9409 271.166 19.8054 267.253 21.158C265.659 21.7376 264.017 21.8826 262.133 21.8826H255.225V30.9158H259.524V34.6836H246.144ZM255.225 17.9215H261.553C263.099 17.9215 264.307 17.6799 265.369 17.2452C267.543 16.2791 268.799 14.1053 268.799 11.1586C268.799 8.40521 267.688 6.37636 265.756 5.36193C264.693 4.78226 263.244 4.54074 261.601 4.54074H255.225V17.9215Z" fill="#6B7280"/>
<path d="M217.481 22.414C217.481 15.0231 223.375 9.66119 230.669 9.66119C237.963 9.66119 243.856 15.0231 243.856 22.414C243.856 29.8531 237.963 35.2633 230.669 35.2633C223.375 35.2633 217.481 29.8531 217.481 22.414ZM222.264 22.414C222.264 27.5344 226.032 31.2056 230.669 31.2056C235.258 31.2056 239.074 27.5344 239.074 22.414C239.074 17.3418 235.258 13.7189 230.669 13.7189C226.032 13.7189 222.264 17.3418 222.264 22.414Z" fill="#6B7280"/>
<path d="M191.798 27.8725C191.798 20.1919 201.99 19.6605 206.048 19.6605H207.594V18.7427C207.594 14.8782 205.372 13.5257 202.377 13.5257C198.512 13.5257 195.372 15.8926 195.372 15.8926L193.489 12.5595C193.489 12.5595 197.063 9.66119 202.763 9.66119C208.995 9.66119 212.28 12.8977 212.28 19.0808V29.998C212.28 30.7226 212.666 31.0607 213.342 31.0607H215.806V34.6836H210.927C208.753 34.6836 207.884 33.6209 207.884 32.0268V31.6887C207.884 30.7226 208.077 30.0946 208.077 30.0946H207.98C207.98 30.0946 205.855 35.2633 199.913 35.2633C195.856 35.2633 191.798 32.8963 191.798 27.8725ZM196.532 27.4861C196.532 29.6598 198.126 31.6404 200.928 31.6404C205.082 31.6404 207.642 27.3895 207.642 23.7182V22.7038H206.435C204.212 22.7038 196.532 22.8004 196.532 27.4861ZM194.696 6.66622C194.696 2.60853 196.339 0.531372 199.623 0.531372C203.101 0.531372 203.778 3.76787 205.758 3.76787C207.304 3.76787 207.691 2.07716 207.691 0.676288H211.169C211.169 4.68568 209.526 6.81114 206.241 6.81114C202.763 6.81114 202.087 3.57464 200.106 3.57464C198.561 3.57464 198.174 5.21705 198.174 6.66622H194.696Z" fill="#6B7280"/>
<path d="M176.691 39.3693L177.85 35.0701C171.764 34.2006 166.885 29.5632 166.885 22.5106C166.885 15.0231 172.537 9.66119 179.831 9.66119C183.454 9.66119 189.395 11.0138 189.395 15.2164V18.2113H185.241V16.5206C185.241 14.6367 182.149 13.7189 179.976 13.7189C175.048 13.7189 171.667 17.1969 171.667 22.414C171.667 27.9691 175.58 31.2056 180.266 31.2056C184.42 31.2056 187.222 28.742 188.091 28.0657L189.878 31.4955C188.816 32.4616 185.386 35.1184 180.459 35.2633L179.976 37.3888C182.053 37.5337 183.792 38.9346 183.792 41.0117C183.792 44.0067 181.087 45.166 178.43 45.166C176.981 45.166 175.773 44.8279 175.773 44.8279V42.2677C175.773 42.2677 176.739 42.5575 177.947 42.5575C179.058 42.5575 180.362 42.316 180.362 41.0117C180.362 39.8524 179.106 39.3693 177.56 39.3693H176.691Z" fill="#6B7280"/>
<path d="M141.201 27.8725C141.201 20.1919 151.394 19.6605 155.451 19.6605H156.997V18.7427C156.997 14.8782 154.775 13.5257 151.78 13.5257C147.916 13.5257 144.776 15.8927 144.776 15.8927L142.892 12.5595C142.892 12.5595 146.467 9.66119 152.167 9.66119C158.398 9.66119 161.683 12.8977 161.683 19.0808V29.998C161.683 30.7226 162.069 31.0607 162.746 31.0607H165.209V34.6837H160.33C158.157 34.6837 157.287 33.6209 157.287 32.0268V31.6887C157.287 30.7226 157.48 30.0946 157.48 30.0946H157.384C157.384 30.0946 155.258 35.2633 149.317 35.2633C145.259 35.2633 141.201 32.8963 141.201 27.8725ZM145.935 27.4861C145.935 29.6598 147.529 31.6404 150.331 31.6404C154.485 31.6404 157.046 27.3895 157.046 23.7182V22.7038H155.838C153.616 22.7038 145.935 22.8004 145.935 27.4861Z" fill="#6B7280"/>
<path d="M123.045 34.6836V31.0607H126.716V14.9265C126.716 14.2019 126.33 13.8638 125.654 13.8638H122.61V10.2408H128.117C130.243 10.2408 131.257 11.1103 131.257 13.0909V14.6367C131.257 15.6028 131.16 16.3274 131.16 16.3274H131.257C132.368 12.7527 135.218 9.95099 138.986 9.95099C139.614 9.95099 140.194 10.0476 140.194 10.0476V14.685C140.194 14.685 139.614 14.54 138.841 14.54C133.624 14.54 131.402 19.8054 131.402 24.5877V31.0607H135.025V34.6836H123.045Z" fill="#6B7280"/>
<path d="M84.6777 17.3901C84.6777 7.58403 92.3101 0 102.213 0C112.067 0 119.748 7.58403 119.748 17.3901C119.748 27.4378 112.067 35.2633 102.213 35.2633C92.3101 35.2633 84.6777 27.4378 84.6777 17.3901ZM89.6532 17.3901C89.6532 25.0708 95.2567 30.9641 102.213 30.9641C109.121 30.9641 114.724 25.0708 114.724 17.3901C114.724 9.95102 109.121 4.25092 102.213 4.25092C95.2567 4.25092 89.6532 9.95102 89.6532 17.3901Z" fill="#6B7280"/>
<path d="M388.605 68.1539V66.6195H391.021V67.5572C391.021 68.7791 392.726 69.3474 394.317 69.3474C395.937 69.3474 397.215 68.6938 397.215 67.5004C397.215 66.0512 395.624 65.5966 393.635 64.8862C391.504 64.0906 389.145 63.1244 389.145 60.5102C389.145 57.6687 391.958 56.5321 394.459 56.5321C396.476 56.5321 399.432 57.3277 399.432 59.4305V61.1638H397.016V60.2261C397.016 59.3452 395.88 58.7485 394.487 58.7485C393.123 58.7485 391.93 59.3168 391.93 60.4818C391.93 61.8458 393.521 62.4141 395.255 63.0108C397.471 63.7496 400 64.6873 400 67.3583C400 70.0862 397.499 71.5922 394.232 71.5922C391.617 71.5922 388.605 70.4272 388.605 68.1539Z" fill="#6B7280"/>
<path d="M371.671 64.0337C371.671 59.6862 375.138 56.5321 379.428 56.5321C383.719 56.5321 387.186 59.6862 387.186 64.0337C387.186 68.4097 383.719 71.5922 379.428 71.5922C375.138 71.5922 371.671 68.4097 371.671 64.0337ZM374.484 64.0337C374.484 67.0457 376.7 69.2053 379.428 69.2053C382.128 69.2053 384.372 67.0457 384.372 64.0337C384.372 61.0501 382.128 58.919 379.428 58.919C376.7 58.919 374.484 61.0501 374.484 64.0337Z" fill="#6B7280"/>
<path d="M360.931 71.2512V69.1201H363.09V59.6294C363.09 59.2032 362.863 59.0043 362.465 59.0043H360.675V56.8731H363.914C365.164 56.8731 365.761 57.3846 365.761 58.5496V59.4589C365.761 60.0272 365.704 60.4534 365.704 60.4534H365.761C366.415 58.3507 368.091 56.7026 370.308 56.7026C370.677 56.7026 371.018 56.7595 371.018 56.7595V59.4873C371.018 59.4873 370.677 59.4021 370.222 59.4021C367.153 59.4021 365.846 62.4993 365.846 65.3125V69.1201H367.978V71.2512H360.931Z" fill="#6B7280"/>
<path d="M354.369 54.0032V51.1901H357.267V54.0032H354.369ZM352.181 71.2512V69.1201H354.426V59.0043H352.039V56.8731H357.182V69.1201H359.455V71.2512H352.181Z" fill="#6B7280"/>
<path d="M337.072 64.0621C337.072 59.4873 340.17 56.5321 344.261 56.5321C348.353 56.5321 350.484 59.5441 350.484 63.2665C350.484 63.6359 350.399 64.3179 350.399 64.3179H339.885C340.056 67.5004 342.301 69.2053 344.858 69.2053C347.359 69.2053 349.149 67.5856 349.149 67.5856L350.285 69.6031C350.285 69.6031 348.126 71.5922 344.688 71.5922C340.17 71.5922 337.072 68.3244 337.072 64.0621ZM339.999 62.5561H347.643C347.557 60.0272 346.023 58.7201 344.205 58.7201C342.102 58.7201 340.397 60.1408 339.999 62.5561Z" fill="#6B7280"/>
<path d="M322.411 73.9222C322.411 73.9222 324.201 74.8884 326.36 74.8884C328.861 74.8884 330.907 73.7517 330.907 70.7966V69.6599C330.907 69.2053 330.992 68.7507 330.992 68.7507H330.935C330.083 70.1714 328.719 71.0807 326.616 71.0807C322.638 71.0807 320.194 67.8698 320.194 63.7212C320.194 59.6009 322.496 56.5321 326.503 56.5321C328.378 56.5321 330.367 57.2425 331.163 58.8906H331.219C331.219 58.8906 331.163 58.6917 331.163 58.3223C331.163 57.413 331.617 56.8731 332.811 56.8731H335.88V59.0042H334.288C333.919 59.0042 333.663 59.2031 333.663 59.5725V70.6545C333.663 75.3998 330.054 77.2184 326.417 77.2184C324.684 77.2184 322.922 76.7353 321.501 76.025L322.411 73.9222ZM327.156 68.6938C329.145 68.6938 330.964 67.5004 330.964 63.7496C330.964 59.9988 329.145 58.919 326.9 58.919C324.428 58.919 323.007 60.7376 323.007 63.6643C323.007 66.6479 324.57 68.6938 327.156 68.6938Z" fill="#6B7280"/>
<path d="M305.002 67.2446C305.002 62.7266 310.998 62.4141 313.384 62.4141H314.294V61.8742C314.294 59.6009 312.987 58.8053 311.225 58.8053C308.952 58.8053 307.105 60.1977 307.105 60.1977L305.996 58.237C305.996 58.237 308.099 56.5321 311.452 56.5321C315.118 56.5321 317.05 58.4359 317.05 62.0731V68.4949C317.05 68.9211 317.277 69.1201 317.675 69.1201H319.124V71.2512H316.254C314.976 71.2512 314.464 70.6261 314.464 69.6884V69.4895C314.464 68.9211 314.578 68.5518 314.578 68.5518H314.521C314.521 68.5518 313.271 71.5922 309.776 71.5922C307.389 71.5922 305.002 70.1998 305.002 67.2446ZM307.787 67.0173C307.787 68.296 308.724 69.461 310.372 69.461C312.816 69.461 314.322 66.9605 314.322 64.8009V64.2042H313.612C312.305 64.2042 307.787 64.261 307.787 67.0173Z" fill="#6B7280"/>
<path d="M292.372 68.1539V66.6195H294.787V67.5572C294.787 68.7791 296.492 69.3474 298.084 69.3474C299.703 69.3474 300.982 68.6938 300.982 67.5004C300.982 66.0512 299.391 65.5966 297.402 64.8862C295.27 64.0906 292.912 63.1244 292.912 60.5102C292.912 57.6687 295.725 56.5321 298.226 56.5321C300.243 56.5321 303.198 57.3277 303.198 59.4305V61.1638H300.783V60.2261C300.783 59.3452 299.646 58.7485 298.254 58.7485C296.89 58.7485 295.697 59.3168 295.697 60.4818C295.697 61.8458 297.288 62.4141 299.021 63.0108C301.238 63.7496 303.767 64.6873 303.767 67.3583C303.767 70.0862 301.266 71.5922 297.998 71.5922C295.384 71.5922 292.372 70.4272 292.372 68.1539Z" fill="#6B7280"/>
<path d="M273.861 71.2512V69.1201H276.106V59.6294C276.106 59.2031 275.878 59.0042 275.48 59.0042H273.719V56.8731H276.958C278.208 56.8731 278.777 57.413 278.777 58.4643V59.2031C278.777 59.6578 278.691 60.0272 278.691 60.0272H278.748C279.032 59.26 280.709 56.5321 284.346 56.5321C287.642 56.5321 289.12 58.3791 289.12 62.0447V69.1201H291.393V71.2512H286.364V62.6698C286.364 60.6523 285.966 59.0611 283.664 59.0611C280.766 59.0611 278.862 61.7037 278.862 64.5736V69.1201H281.135V71.2512H273.861Z" fill="#6B7280"/>
<path d="M258.753 64.0621C258.753 59.4873 261.85 56.5321 265.942 56.5321C270.034 56.5321 272.165 59.5441 272.165 63.2665C272.165 63.6359 272.08 64.3179 272.08 64.3179H261.566C261.737 67.5004 263.981 69.2053 266.539 69.2053C269.039 69.2053 270.829 67.5856 270.829 67.5856L271.966 69.6031C271.966 69.6031 269.806 71.5922 266.368 71.5922C261.85 71.5922 258.753 68.3244 258.753 64.0621ZM261.68 62.5561H269.323C269.238 60.0272 267.704 58.7201 265.885 58.7201C263.782 58.7201 262.078 60.1408 261.68 62.5561Z" fill="#6B7280"/>
<path d="M232.604 71.2512V69.0348H235.104L236.383 53.378H233.825V51.1901H239.508L244.652 63.4086C244.964 64.2327 245.106 64.8578 245.106 64.8578H245.163C245.163 64.8578 245.305 64.2327 245.618 63.4086L250.761 51.1901H256.444V53.378H253.887L255.165 69.0348H257.666V71.2512H249.937V69.0348H252.352L251.443 57.0436C251.414 56.4185 251.528 55.3955 251.528 55.3955H251.443C251.443 55.3955 251.215 56.3616 250.988 56.9299L246.385 67.472H243.884L239.281 56.9299C239.054 56.3616 238.826 55.3955 238.826 55.3955H238.741C238.741 55.3955 238.855 56.4185 238.826 57.0436L237.917 69.0348H240.332V71.2512H232.604Z" fill="#6B7280"/>
<path d="M213.581 68.1539V66.6195H215.996V67.5572C215.996 68.7791 217.701 69.3474 219.293 69.3474C220.912 69.3474 222.191 68.6938 222.191 67.5004C222.191 66.0512 220.6 65.5966 218.611 64.8862C216.479 64.0906 214.121 63.1244 214.121 60.5102C214.121 57.6687 216.934 56.5321 219.435 56.5321C221.452 56.5321 224.407 57.3277 224.407 59.4305V61.1638H221.992V60.2261C221.992 59.3452 220.855 58.7485 219.463 58.7485C218.099 58.7485 216.906 59.3168 216.906 60.4818C216.906 61.8458 218.497 62.4141 220.23 63.0108C222.447 63.7496 224.976 64.6873 224.976 67.3583C224.976 70.0862 222.475 71.5922 219.207 71.5922C216.593 71.5922 213.581 70.4272 213.581 68.1539Z" fill="#6B7280"/>
<path d="M198.474 67.2446C198.474 62.7266 204.469 62.4141 206.856 62.4141H207.765V61.8742C207.765 59.6009 206.458 58.8053 204.697 58.8053C202.423 58.8053 200.576 60.1977 200.576 60.1977L199.468 58.237C199.468 58.237 201.571 56.5321 204.924 56.5321C208.589 56.5321 210.522 58.4359 210.522 62.0731V68.4949C210.522 68.9211 210.749 69.1201 211.147 69.1201H212.596V71.2512H209.726C208.447 71.2512 207.936 70.6261 207.936 69.6884V69.4895C207.936 68.9211 208.05 68.5518 208.05 68.5518H207.993C207.993 68.5518 206.742 71.5922 203.247 71.5922C200.861 71.5922 198.474 70.1998 198.474 67.2446ZM201.258 67.0173C201.258 68.296 202.196 69.461 203.844 69.461C206.288 69.461 207.794 66.9605 207.794 64.8009V64.2042H207.083C205.776 64.2042 201.258 64.261 201.258 67.0173Z" fill="#6B7280"/>
<path d="M191.075 65.9944V59.0043H188.66V56.8731H191.132V52.9234H193.832V56.8731H197.27V59.0043H193.832V65.7387C193.832 68.6654 195.821 69.0348 196.901 69.0348C197.298 69.0348 197.554 69.0064 197.554 69.0064V71.3081C197.554 71.3081 197.156 71.3649 196.56 71.3649C194.741 71.3649 191.075 70.7966 191.075 65.9944Z" fill="#6B7280"/>
<path d="M183.146 54.0032V51.1901H186.045V54.0032H183.146ZM180.958 71.2512V69.1201H183.203V59.0043H180.816V56.8731H185.96V69.1201H188.233V71.2512H180.958Z" fill="#6B7280"/>
<path d="M174.537 67.1594V53.3212H172.15V51.1901H177.294V66.9889C177.294 68.2108 177.578 69.0348 178.828 69.0348C179.283 69.0348 179.595 69.0064 179.595 69.0064L179.567 71.2796C179.567 71.2796 178.998 71.3365 178.345 71.3365C176.299 71.3365 174.537 70.5124 174.537 67.1594Z" fill="#6B7280"/>
<path d="M158.378 64.0621C158.378 59.4873 161.475 56.5321 165.567 56.5321C169.659 56.5321 171.79 59.5441 171.79 63.2665C171.79 63.6359 171.705 64.3179 171.705 64.3179H161.191C161.362 67.5004 163.606 69.2053 166.164 69.2053C168.664 69.2053 170.454 67.5856 170.454 67.5856L171.591 69.6031C171.591 69.6031 169.431 71.5922 165.993 71.5922C161.475 71.5922 158.378 68.3244 158.378 64.0621ZM161.305 62.5561H168.948C168.863 60.0272 167.329 58.7201 165.51 58.7201C163.407 58.7201 161.703 60.1408 161.305 62.5561Z" fill="#6B7280"/>
<path d="M131.014 71.2512V69.1201H133.259V59.6009C133.259 59.2031 133.032 59.0042 132.634 59.0042H130.872V56.8731H134.111C135.333 56.8731 135.93 57.413 135.93 58.4643V59.2031C135.93 59.6578 135.845 60.0272 135.845 60.0272H135.902C136.612 58.3223 138.686 56.5321 141.016 56.5321C143.318 56.5321 144.739 57.5835 145.222 59.9135H145.279C146.074 58.1234 148.063 56.5321 150.422 56.5321C153.604 56.5321 155.11 58.3791 155.11 62.0447V69.1201H157.383V71.2512H152.354V62.6414C152.354 60.6239 151.985 59.0326 149.825 59.0326C147.126 59.0326 145.591 61.7889 145.591 64.6304V69.1201H147.836V71.2512H142.835V62.6414C142.835 60.766 142.551 59.0326 140.334 59.0326C137.606 59.0326 136.015 61.931 136.015 64.7441V69.1201H138.288V71.2512H131.014Z" fill="#6B7280"/>
<path d="M119.908 71.2512V69.1201H122.068V59.6294C122.068 59.2032 121.84 59.0043 121.443 59.0043H119.652V56.8731H122.892C124.142 56.8731 124.739 57.3846 124.739 58.5496V59.4589C124.739 60.0272 124.682 60.4534 124.682 60.4534H124.739C125.392 58.3507 127.069 56.7026 129.285 56.7026C129.655 56.7026 129.995 56.7595 129.995 56.7595V59.4873C129.995 59.4873 129.655 59.4021 129.2 59.4021C126.131 59.4021 124.824 62.4993 124.824 65.3125V69.1201H126.955V71.2512H119.908Z" fill="#6B7280"/>
<path d="M104.516 67.2446C104.516 62.7266 110.511 62.4141 112.898 62.4141H113.807V61.8742C113.807 59.6009 112.5 58.8053 110.739 58.8053C108.465 58.8053 106.618 60.1977 106.618 60.1977L105.51 58.237C105.51 58.237 107.613 56.5321 110.966 56.5321C114.631 56.5321 116.564 58.4359 116.564 62.0731V68.4949C116.564 68.9211 116.791 69.1201 117.189 69.1201H118.638V71.2512H115.768C114.489 71.2512 113.978 70.6261 113.978 69.6884V69.4895C113.978 68.9211 114.092 68.5518 114.092 68.5518H114.035C114.035 68.5518 112.784 71.5922 109.289 71.5922C106.903 71.5922 104.516 70.1998 104.516 67.2446ZM107.3 67.0173C107.3 68.296 108.238 69.461 109.886 69.461C112.33 69.461 113.836 66.9605 113.836 64.8009V64.2042H113.125C111.818 64.2042 107.3 64.261 107.3 67.0173Z" fill="#6B7280"/>
<path d="M84.6777 61.107C84.6777 55.225 89.1389 50.8491 94.9356 50.8491C97.3509 50.8491 102.579 51.7299 102.579 54.8272V57.2709H99.9367V55.7081C99.9367 53.9463 96.8963 53.2928 95.0493 53.2928C90.7586 53.2928 87.6045 56.4469 87.6045 60.9933C87.6045 65.7386 90.8438 69.1201 95.2198 69.1201C96.6405 69.1201 100.221 68.6086 100.221 66.7616V65.1988H102.863V67.6425C102.863 70.5977 97.834 71.5922 95.0493 71.5922C89.0253 71.5922 84.6777 66.9605 84.6777 61.107Z" fill="#6B7280"/>
<g clip-path="url(#clip0_8646_49337)">
<path d="M30.8909 9.56829C31.324 9.82226 31.6717 10.1791 31.8475 10.6551C31.9634 11.1448 31.8794 11.6436 31.8267 12.1379C31.4679 15.565 31.7498 19.0703 32.6009 22.407C32.6244 22.5307 32.6244 22.5307 32.6244 22.7912C32.836 22.5802 33.047 22.3686 33.2567 22.1563C33.4182 21.9929 33.5803 21.8294 33.7425 21.6666C33.8271 21.5813 33.9111 21.496 33.9958 21.4107C34.4946 20.9054 34.9953 20.43 35.5547 19.9911C35.6218 19.9351 35.6889 19.8785 35.7546 19.8212C38.2558 17.6762 41.2981 16.0358 44.3782 14.9041C44.4453 14.8793 44.5117 14.8546 44.5801 14.8292C45.1375 14.6306 45.6656 14.4906 46.2341 14.7165C46.6938 14.9399 47.0552 15.2642 47.2682 15.7343C47.4805 16.4239 47.3138 17.051 47.0481 17.6957C46.9882 17.8507 46.9276 18.0063 46.8684 18.1613C46.8228 18.2779 46.8228 18.2779 46.7765 18.3964C45.8955 20.7146 45.4208 23.193 45.1922 25.6564C45.1863 25.7215 45.1798 25.786 45.1733 25.8531C45.1082 26.6176 45.1147 27.384 45.1154 28.1517C45.1154 28.224 45.1154 28.2963 45.1154 28.3705C45.1154 29.4027 45.1316 30.4263 45.2573 31.4519C45.2671 31.5288 45.2671 31.5288 45.2762 31.6069C45.2918 31.7293 45.3068 31.8511 45.3224 31.9729C45.5289 31.799 45.7333 31.6265 45.9274 31.4389C47.9474 29.5062 50.737 28.6453 53.4902 28.6981C54.9665 28.7495 56.4121 29.1383 57.7314 29.8012C57.7757 29.8233 57.8206 29.8461 57.8668 29.8689C58.3487 30.1144 58.8117 30.3879 59.2747 30.6666C59.3652 30.7213 59.4564 30.7754 59.5469 30.8294C60.2 31.2201 60.8499 31.6154 61.4991 32.0113C62.0741 32.361 62.6517 32.7048 63.23 33.0473C63.9215 33.4563 64.6098 33.8698 65.2949 34.2872C65.95 34.6864 66.6089 35.079 67.2686 35.4697C67.9888 35.8956 68.7058 36.3273 69.4201 36.7636C69.7639 36.9733 70.1077 37.181 70.4581 37.3777C70.3559 37.6571 70.1436 37.8133 69.9215 37.9963C69.8382 38.0666 69.7548 38.1363 69.6721 38.206C69.6291 38.2418 69.5868 38.277 69.5432 38.3134C69.3478 38.4775 69.1544 38.6442 68.9604 38.8103C68.8848 38.8754 68.8086 38.9405 68.7325 39.0057C68.6953 39.0382 68.6576 39.0701 68.6191 39.1033C63.719 43.3035 63.719 43.3035 63.6044 43.4011C63.5289 43.4663 63.4527 43.532 63.3771 43.5971C63.1876 43.7612 62.9955 43.9214 62.7976 44.0758C62.2584 44.5029 61.912 44.936 61.5753 45.5325C61.4509 45.7493 61.3239 45.9642 61.1957 46.1791C61.1709 46.2214 61.1455 46.2631 61.1201 46.3067C61.0674 46.3946 61.0146 46.4825 60.9625 46.5704C60.8811 46.7072 60.8004 46.8439 60.7197 46.9807C60.3771 47.5589 60.0314 48.1346 59.681 48.7083C59.2857 49.3569 58.8963 50.0087 58.5089 50.6618C58.1221 51.3156 57.7327 51.9668 57.3368 52.6154C56.9649 53.2262 56.597 53.8396 56.2324 54.455C56.0038 54.8405 55.7752 55.226 55.546 55.6108C55.503 55.6837 55.46 55.756 55.4158 55.8309C54.6669 57.087 53.8744 58.2807 52.8866 59.3636C52.7602 59.5029 52.6372 59.6442 52.5141 59.7868C52.1253 60.2316 51.7021 60.6373 51.2482 61.0156C51.2156 61.0436 51.1831 61.071 51.1492 61.099C50.19 61.8993 49.1612 62.5798 48.0574 63.1645C48.0164 63.1867 47.9747 63.2088 47.9324 63.2316C45.4266 64.5607 42.6409 65.2157 39.8121 65.204C39.7522 65.2034 39.6923 65.2034 39.6305 65.2034C38.6941 65.1995 37.7798 65.163 36.8571 64.9878C36.7893 64.9755 36.721 64.9631 36.6513 64.9501C34.3285 64.5079 32.2513 63.6314 30.2404 62.4013C29.9545 62.2268 29.668 62.0556 29.3795 61.8849C29.3366 61.8596 29.2929 61.8342 29.2487 61.8075C29.1607 61.7554 29.0722 61.7039 28.9843 61.6518C28.4132 61.3139 27.8434 60.9746 27.2775 60.6282C27.2352 60.6028 27.1929 60.5767 27.1499 60.55C26.9487 60.427 26.7481 60.3039 26.5475 60.1802C26.4772 60.1365 26.4062 60.0935 26.334 60.0486C26.2721 60.0102 26.2102 59.9724 26.1464 59.9334C25.8573 59.7751 25.6691 59.7738 25.3448 59.8298C25.268 59.8428 25.1911 59.8559 25.1117 59.8695C25.027 59.8845 24.943 59.8995 24.8564 59.9145C24.7666 59.9301 24.6767 59.9457 24.5868 59.9607C24.3928 59.9939 24.1994 60.0271 24.006 60.061C23.6993 60.1144 23.3932 60.1671 23.0865 60.2192C22.324 60.3501 21.5621 60.4817 20.8002 60.6132C20.2089 60.7154 19.6177 60.817 19.0257 60.9186C18.7216 60.97 18.4175 61.0228 18.1134 61.0762C17.9233 61.1087 17.7331 61.1413 17.543 61.1739C17.4141 61.196 17.2851 61.2188 17.1568 61.2416C15.7086 61.4858 14.5417 61.209 13.3494 60.3644C13.2777 60.3143 13.2061 60.2642 13.1338 60.2134C12.9007 60.0493 12.6689 59.8819 12.4377 59.7133C12.396 59.6827 12.3537 59.652 12.3107 59.6208C11.6771 59.1578 11.0735 58.6688 10.4842 58.1504C10.4353 58.1081 10.3858 58.0651 10.3351 58.0208C10.2107 57.9127 10.087 57.804 9.96323 57.6946C9.91635 57.6529 9.86946 57.6112 9.82062 57.5683C9.41689 57.2088 9.03009 56.8363 8.64914 56.4534C8.59379 56.3981 8.53844 56.3434 8.48114 56.2867C8.1588 55.9631 7.84949 55.6336 7.55386 55.2852C7.51934 55.2448 7.48418 55.2038 7.44836 55.1621C4.54409 51.7649 2.44793 47.3909 2.37695 42.8639C2.375 42.7884 2.37305 42.7122 2.37109 42.634C2.37109 42.0421 2.50784 41.6117 2.8979 41.163C2.95195 41.1174 3.00535 41.0719 3.0607 41.0243C3.10693 40.98 3.15251 40.9358 3.1994 40.8902C3.65588 40.5828 4.14231 40.4461 4.68865 40.5034C4.97192 40.5639 5.24672 40.6466 5.52347 40.7313C5.61073 40.7573 5.69864 40.7834 5.7859 40.8094C6.0939 40.9019 6.40061 40.9957 6.70732 41.0894C6.79327 41.1161 6.79327 41.1161 6.88118 41.1428C7.55451 41.3486 8.22783 41.5557 8.9005 41.7641C10.0316 42.1131 11.1634 42.4582 12.2958 42.8033C12.3427 42.817 12.3889 42.8313 12.4371 42.8463C14.5202 43.4799 16.6046 44.109 18.6891 44.7361C18.6891 44.5283 18.6051 44.3414 18.5393 44.1461C18.5067 44.0491 18.4735 43.9514 18.441 43.8537C18.424 43.8023 18.4065 43.7502 18.3889 43.6968C17.6615 41.5088 17.108 39.2798 16.785 36.9955C16.7746 36.9258 16.7648 36.8561 16.7551 36.7851C16.5766 35.4424 16.5161 34.1042 16.52 32.7504C16.52 32.6723 16.5206 32.5941 16.5206 32.5134C16.5239 31.3009 16.5604 30.1131 16.7355 28.9123C16.7466 28.8361 16.7577 28.7593 16.7687 28.6812C17.1458 26.0921 17.8946 23.5928 19.0147 21.2284C19.0427 21.1698 19.0707 21.1112 19.0993 21.0506C20.067 19.0241 21.3257 17.081 22.8013 15.3873C22.9218 15.2486 23.0403 15.1092 23.1581 14.9686C23.6211 14.4157 24.1115 13.898 24.6227 13.3894C24.7503 13.2631 24.8766 13.1361 25.0029 13.0085C25.462 12.5494 25.9283 12.1229 26.4381 11.7211C26.5117 11.6599 26.5847 11.5974 26.6569 11.5349C27.357 10.9293 28.0922 10.3745 28.8599 9.85742C28.8996 9.83007 28.94 9.80337 28.981 9.77537C29.5619 9.39052 30.2326 9.27266 30.8909 9.56829Z" fill="#F9FAFB"/>
<path d="M30.8909 9.56829C31.324 9.82226 31.6717 10.1791 31.8475 10.6551C31.9634 11.1448 31.8794 11.6436 31.8267 12.1379C31.4679 15.565 31.7498 19.0703 32.6009 22.407C32.6244 22.5307 32.6244 22.5307 32.6244 22.7912C32.836 22.5802 33.047 22.3686 33.2567 22.1563C33.4182 21.9929 33.5803 21.8294 33.7425 21.6666C33.8271 21.5813 33.9111 21.496 33.9958 21.4107C34.4946 20.9054 34.9953 20.43 35.5547 19.9911C35.6218 19.9351 35.6889 19.8785 35.7546 19.8212C38.2558 17.6762 41.2981 16.0358 44.3782 14.9041C44.4453 14.8793 44.5117 14.8546 44.5801 14.8292C45.1375 14.6306 45.6656 14.4906 46.2341 14.7165C46.6938 14.9399 47.0552 15.2642 47.2682 15.7343C47.4805 16.4239 47.3138 17.051 47.0481 17.6957C46.9882 17.8507 46.9276 18.0063 46.8684 18.1613C46.8228 18.2779 46.8228 18.2779 46.7765 18.3964C45.8955 20.7146 45.4208 23.193 45.1922 25.6564C45.1863 25.7215 45.1798 25.786 45.1733 25.8531C45.1082 26.6176 45.1147 27.384 45.1154 28.1517C45.1154 28.224 45.1154 28.2963 45.1154 28.3705C45.1154 29.4027 45.1316 30.4263 45.2573 31.4519C45.2671 31.5288 45.2671 31.5288 45.2762 31.6069C45.2918 31.7293 45.3068 31.8511 45.3224 31.9729C45.5289 31.799 45.7333 31.6265 45.9274 31.4389C47.9474 29.5062 50.737 28.6453 53.4902 28.6981C54.9665 28.7495 56.4121 29.1383 57.7314 29.8012C57.7757 29.8233 57.8206 29.8461 57.8668 29.8689C58.3487 30.1144 58.8117 30.3879 59.2747 30.6666C59.3652 30.7213 59.4564 30.7754 59.5469 30.8294C60.2 31.2201 60.8499 31.6154 61.4991 32.0113C62.0741 32.361 62.6517 32.7048 63.23 33.0473C63.9215 33.4563 64.6098 33.8698 65.2949 34.2872C65.95 34.6864 66.6089 35.079 67.2686 35.4697C67.9888 35.8956 68.7058 36.3273 69.4201 36.7636C69.7639 36.9733 70.1077 37.181 70.4581 37.3777C70.3559 37.6571 70.1436 37.8133 69.9215 37.9963C69.8382 38.0666 69.7548 38.1363 69.6721 38.206C69.6291 38.2418 69.5868 38.277 69.5432 38.3134C69.3478 38.4775 69.1544 38.6442 68.9604 38.8103C68.8848 38.8754 68.8086 38.9405 68.7325 39.0057C68.6953 39.0382 68.6576 39.0701 68.6191 39.1033C63.719 43.3035 63.719 43.3035 63.6044 43.4011C63.5289 43.4663 63.4527 43.532 63.3771 43.5971C63.1876 43.7612 62.9955 43.9214 62.7976 44.0758C62.2584 44.5029 61.912 44.936 61.5753 45.5325C61.4509 45.7493 61.3239 45.9642 61.1957 46.1791C61.1709 46.2214 61.1455 46.2631 61.1201 46.3067C61.0674 46.3946 61.0146 46.4825 60.9625 46.5704C60.8811 46.7072 60.8004 46.8439 60.7197 46.9807C60.3771 47.5589 60.0314 48.1346 59.681 48.7083C59.2857 49.3569 58.8963 50.0087 58.5089 50.6618C58.1221 51.3156 57.7327 51.9668 57.3368 52.6154C56.9649 53.2262 56.597 53.8396 56.2324 54.455C56.0038 54.8405 55.7752 55.226 55.546 55.6108C55.503 55.6837 55.46 55.756 55.4158 55.8309C54.6669 57.087 53.8744 58.2807 52.8866 59.3636C52.7602 59.5029 52.6372 59.6442 52.5141 59.7868C52.1253 60.2316 51.7021 60.6373 51.2482 61.0156C51.2156 61.0436 51.1831 61.071 51.1492 61.099C50.19 61.8993 49.1612 62.5798 48.0574 63.1645C48.0164 63.1867 47.9747 63.2088 47.9324 63.2316C45.4266 64.5607 42.6409 65.2157 39.8121 65.204C39.7522 65.2034 39.6923 65.2034 39.6305 65.2034C38.6941 65.1995 37.7798 65.163 36.8571 64.9878C36.7893 64.9755 36.721 64.9631 36.6513 64.9501C34.3285 64.5079 32.2513 63.6314 30.2404 62.4013C29.9545 62.2268 29.668 62.0556 29.3795 61.8849C29.3366 61.8596 29.2929 61.8342 29.2487 61.8075C29.1607 61.7554 29.0722 61.7039 28.9843 61.6518C28.4132 61.3139 27.8434 60.9746 27.2775 60.6282C27.2352 60.6028 27.1929 60.5767 27.1499 60.55C26.9487 60.427 26.7481 60.3039 26.5475 60.1802C26.4772 60.1365 26.4062 60.0935 26.334 60.0486C26.2721 60.0102 26.2102 59.9724 26.1464 59.9334C25.8573 59.7751 25.6691 59.7738 25.3448 59.8298C25.268 59.8428 25.1911 59.8559 25.1117 59.8695C25.027 59.8845 24.943 59.8995 24.8564 59.9145C24.7666 59.9301 24.6767 59.9457 24.5868 59.9607C24.3928 59.9939 24.1994 60.0271 24.006 60.061C23.6993 60.1144 23.3932 60.1671 23.0865 60.2192C22.324 60.3501 21.5621 60.4817 20.8002 60.6132C20.2089 60.7154 19.6177 60.817 19.0257 60.9186C18.7216 60.97 18.4175 61.0228 18.1134 61.0762C17.9233 61.1087 17.7331 61.1413 17.543 61.1739C17.4141 61.196 17.2851 61.2188 17.1568 61.2416C15.7086 61.4858 14.5417 61.209 13.3494 60.3644C13.2777 60.3143 13.2061 60.2642 13.1338 60.2134C12.9007 60.0493 12.6689 59.8819 12.4377 59.7133C12.396 59.6827 12.3537 59.652 12.3107 59.6208C11.6771 59.1578 11.0735 58.6688 10.4842 58.1504C10.4353 58.1081 10.3858 58.0651 10.3351 58.0208C10.2107 57.9127 10.087 57.804 9.96323 57.6946C9.91635 57.6529 9.86946 57.6112 9.82062 57.5683C9.41689 57.2088 9.03009 56.8363 8.64914 56.4534C8.59379 56.3981 8.53844 56.3434 8.48114 56.2867C8.1588 55.9631 7.84949 55.6336 7.55386 55.2852C7.51934 55.2448 7.48418 55.2038 7.44836 55.1621C4.54409 51.7649 2.44793 47.3909 2.37695 42.8639C2.375 42.7884 2.37305 42.7122 2.37109 42.634C2.37109 42.0421 2.50784 41.6117 2.8979 41.163C2.95195 41.1174 3.00535 41.0719 3.0607 41.0243C3.10693 40.98 3.15251 40.9358 3.1994 40.8902C3.65588 40.5828 4.14231 40.4461 4.68865 40.5034C4.97192 40.5639 5.24672 40.6466 5.52347 40.7313C5.61073 40.7573 5.69864 40.7834 5.7859 40.8094C6.0939 40.9019 6.40061 40.9957 6.70732 41.0894C6.79327 41.1161 6.79327 41.1161 6.88118 41.1428C7.55451 41.3486 8.22783 41.5557 8.9005 41.7641C10.0316 42.1131 11.1634 42.4582 12.2958 42.8033C12.3427 42.817 12.3889 42.8313 12.4371 42.8463C14.5202 43.4799 16.6046 44.109 18.6891 44.7361C18.6891 44.5283 18.6051 44.3414 18.5393 44.1461C18.5067 44.0491 18.4735 43.9514 18.441 43.8537C18.424 43.8023 18.4065 43.7502 18.3889 43.6968C17.6615 41.5088 17.108 39.2798 16.785 36.9955C16.7746 36.9258 16.7648 36.8561 16.7551 36.7851C16.5766 35.4424 16.5161 34.1042 16.52 32.7504C16.52 32.6723 16.5206 32.5941 16.5206 32.5134C16.5239 31.3009 16.5604 30.1131 16.7355 28.9123C16.7466 28.8361 16.7577 28.7593 16.7687 28.6812C17.1458 26.0921 17.8946 23.5928 19.0147 21.2284C19.0427 21.1698 19.0707 21.1112 19.0993 21.0506C20.067 19.0241 21.3257 17.081 22.8013 15.3873C22.9218 15.2486 23.0403 15.1092 23.1581 14.9686C23.6211 14.4157 24.1115 13.898 24.6227 13.3894C24.7503 13.2631 24.8766 13.1361 25.0029 13.0085C25.462 12.5494 25.9283 12.1229 26.4381 11.7211C26.5117 11.6599 26.5847 11.5974 26.6569 11.5349C27.357 10.9293 28.0922 10.3745 28.8599 9.85742C28.8996 9.83007 28.94 9.80337 28.981 9.77537C29.5619 9.39052 30.2326 9.27266 30.8909 9.56829ZM27.7294 15.0076C27.6513 15.0851 27.5738 15.1633 27.4976 15.2427C27.4559 15.2844 27.4149 15.3261 27.3719 15.369C27.284 15.4582 27.1961 15.5475 27.1089 15.6373C26.978 15.7728 26.8458 15.9063 26.7129 16.0397C26.2454 16.5125 25.8078 16.9944 25.3963 17.5166C25.3403 17.5837 25.2836 17.6501 25.2269 17.7165C23.373 19.8778 21.9619 22.4532 21.0333 25.1355C21.0151 25.1889 20.9962 25.2416 20.9773 25.297C19.016 30.9616 19.8143 37.1472 23.3164 47.6631C23.4876 48.1066 23.6556 48.5507 23.8237 48.9954C23.8959 49.1869 23.9689 49.379 24.0418 49.5704C24.0646 49.631 24.0874 49.6916 24.1115 49.7534C24.1271 49.7957 24.1427 49.8374 24.159 49.8804C23.2675 49.6779 22.3976 49.405 21.5243 49.1335C21.1043 49.0026 20.6836 48.873 20.263 48.7428C20.1634 48.7122 20.0644 48.6816 19.9647 48.6503C18.8082 48.2935 17.6498 47.9412 16.4913 47.5895C16.2198 47.5075 15.9476 47.4248 15.6761 47.3421C15.3505 47.2431 15.0249 47.1448 14.6993 47.0458C13.7284 46.7515 12.7581 46.4558 11.7872 46.1608C11.5052 46.0749 11.2226 45.9889 10.9407 45.903C10.7153 45.8346 10.49 45.7662 10.2647 45.6979C10.2211 45.6848 10.1781 45.6712 10.1332 45.6575C9.60052 45.4953 9.06786 45.3325 8.53584 45.1671C8.25127 45.0786 7.96605 44.9907 7.68149 44.9028C7.49069 44.8442 7.30055 44.7842 7.11105 44.7243C6.99905 44.6898 6.88639 44.6553 6.77439 44.6208C6.7249 44.6045 6.67476 44.5889 6.62331 44.5726C6.38368 44.4997 6.23 44.4665 5.99102 44.5407C5.97018 44.975 6.04441 45.3436 6.15837 45.7617C6.18507 45.8607 6.18507 45.8607 6.21242 45.9616C6.67476 47.639 7.37413 49.2715 8.33527 50.7269C8.36262 50.7686 8.38997 50.8096 8.41798 50.8526C8.83734 51.4869 9.286 52.0931 9.76788 52.6805C9.81216 52.7345 9.81216 52.7345 9.85709 52.7899C10.339 53.3799 10.8677 53.9236 11.4043 54.4634C11.4375 54.4966 11.4701 54.5298 11.5039 54.5637C11.9454 55.0091 12.4032 55.4148 12.8936 55.8062C12.9658 55.8674 13.0368 55.9286 13.1078 55.9904C13.6392 56.4541 14.1998 56.8682 14.7768 57.2726C14.8992 57.3599 15.0203 57.4484 15.1401 57.5383C15.2066 57.5858 15.2723 57.6334 15.34 57.6829C15.3947 57.7232 15.4501 57.7643 15.5067 57.8059C15.9313 57.9967 16.4418 57.8776 16.8873 57.804C16.9745 57.7897 16.9745 57.7897 17.0631 57.776C17.2539 57.7454 17.4447 57.7141 17.6361 57.6829C17.7716 57.6607 17.907 57.6392 18.0425 57.6171C18.3296 57.5715 18.6168 57.5246 18.9033 57.4784C19.3487 57.4055 19.7948 57.3338 20.2402 57.2622C21.452 57.0675 22.6632 56.8715 23.8738 56.6664C24.0047 56.6442 24.1362 56.6221 24.2678 56.6006C24.6454 56.5368 25.0238 56.4723 25.4015 56.4066C25.5297 56.3844 25.6587 56.3629 25.787 56.3408C25.843 56.331 25.899 56.3206 25.9569 56.3102C26.2467 56.262 26.4329 56.2444 26.6986 56.3922C26.7585 56.4248 26.8184 56.4573 26.8803 56.4912C26.9461 56.5296 27.0118 56.5687 27.0796 56.6084C27.1343 56.6403 27.1343 56.6403 27.1903 56.6729C27.3101 56.7432 27.4299 56.8142 27.5497 56.8845C27.6344 56.9347 27.719 56.9848 27.8043 57.0349C28.4054 57.3892 29.0025 57.7493 29.5977 58.1126C30.1857 58.4708 30.775 58.8257 31.3669 59.1773C31.4542 59.2294 31.5421 59.2815 31.6294 59.3343C32.8868 60.0968 32.8868 60.0968 34.2081 60.735C34.2654 60.7591 34.3227 60.7831 34.3819 60.8079C37.8449 62.232 41.7207 62.191 45.1922 60.8203C47.4075 59.8852 49.3585 58.4754 50.8575 56.5876C50.8998 56.5381 50.9415 56.4879 50.9851 56.4365C51.7177 55.5581 52.2712 54.5409 52.8508 53.5589C53.192 52.9813 53.5365 52.4063 53.8855 51.8339C54.2814 51.1854 54.6708 50.5342 55.0576 49.8804C55.4672 49.1895 55.8801 48.5012 56.2981 47.8155C56.6706 47.204 57.0372 46.5893 57.4019 45.9733C57.8056 45.2915 58.2119 44.6117 58.6235 43.9345C58.6893 43.8251 58.6893 43.8251 58.757 43.7137C58.8403 43.5763 58.9243 43.4396 59.0083 43.3035C59.0878 43.1732 59.1672 43.0423 59.2454 42.9114C59.4655 42.5507 59.6778 42.2655 60.0112 42.005C60.0913 41.9399 60.1714 41.8741 60.2515 41.8083C60.312 41.7595 60.312 41.7595 60.3739 41.7094C60.5699 41.5498 60.76 41.3844 60.9508 41.2197C61.027 41.1546 61.1032 41.0894 61.1787 41.0243C61.2165 40.9924 61.2543 40.9599 61.2933 40.9266C62.5462 39.8522 62.5462 39.8522 62.6608 39.7545C62.7364 39.69 62.8119 39.6249 62.8874 39.5598C63.0821 39.3931 63.2768 39.2264 63.4722 39.0597C63.8707 38.7178 64.2692 38.3766 64.6626 38.0289C64.6574 37.9058 64.6574 37.9058 64.5974 37.7684C64.4425 37.6473 64.4425 37.6473 64.2426 37.5398C64.2054 37.519 64.169 37.4975 64.1306 37.476C64.0511 37.4298 63.9704 37.3842 63.8903 37.3393C63.717 37.2423 63.5458 37.1433 63.3739 37.0443C63.284 36.9928 63.1948 36.9414 63.1056 36.89C62.6686 36.6399 62.2389 36.3788 61.8097 36.1164C61.1143 35.6911 60.4142 35.2731 59.7123 34.8576C59.162 34.5327 58.615 34.2038 58.07 33.8698C55.9999 32.6 53.9649 31.6362 51.4559 32.2093C51.2762 32.2548 51.0997 32.3069 50.9226 32.3636C50.879 32.3773 50.8347 32.3909 50.7891 32.4053C48.5432 33.1144 47.2141 34.8557 46.0791 36.8157C45.7815 37.3282 45.4774 37.8368 45.1681 38.3427C44.7631 39.0057 44.3639 39.6718 43.9673 40.3406C43.9413 40.3849 43.9152 40.4285 43.8885 40.4741C43.8625 40.5177 43.8371 40.5607 43.8104 40.6056C43.7596 40.6916 43.7088 40.7775 43.6574 40.8635C43.6333 40.9052 43.6085 40.9468 43.5831 40.9898C43.2536 41.5453 42.9209 42.0994 42.5875 42.6523C42.1929 42.399 41.8236 42.1281 41.4648 41.8266C41.4166 41.7862 41.3691 41.7465 41.3196 41.7061C41.1777 41.5876 41.0364 41.4691 40.8944 41.3499C40.8176 41.2854 40.7401 41.221 40.6626 41.1565C40.2484 40.8107 39.846 40.4539 39.4501 40.0866C39.2879 39.9368 39.1232 39.7903 38.9578 39.6451C38.6563 39.3742 38.3691 39.0916 38.0826 38.8064C38.039 38.7634 37.996 38.7204 37.9511 38.6762C37.6977 38.4222 37.4568 38.1604 37.223 37.8889C37.0778 37.7228 36.9267 37.5626 36.7763 37.4024C36.4195 37.0169 36.0978 36.6093 35.7774 36.1938C35.6843 36.0747 35.5899 35.9568 35.4941 35.8396C35.0077 35.2425 34.5577 34.6265 34.1221 33.9915C34.0804 33.931 34.0804 33.931 34.0374 33.8685C32.485 31.6128 31.2159 29.1409 30.2801 26.5681C30.2528 26.4919 30.2248 26.415 30.1961 26.3362C28.8664 22.6291 28.4015 18.8281 28.2615 14.9119C28.0205 14.8097 27.9157 14.8396 27.7294 15.0076Z" fill="#9CA3AF"/>
<path d="M23.7581 2.35354C24.1045 2.55801 24.4529 2.75792 24.802 2.95849C24.9439 3.04054 25.0865 3.12259 25.2285 3.20463C25.2995 3.24566 25.3698 3.28603 25.4427 3.32836C25.7963 3.53153 26.1493 3.736 26.5028 3.93982C26.6442 4.02122 26.7848 4.10262 26.9261 4.18401C39.6242 11.5098 39.6242 11.5098 39.8358 11.6316C39.9765 11.713 40.1178 11.7944 40.2584 11.8758C40.6153 12.0816 40.9721 12.2873 41.329 12.4931C42.2029 12.9978 43.078 13.5005 43.9545 14.0006C43.9545 14.0436 43.9545 14.0865 43.9545 14.1308C43.9161 14.1465 43.8777 14.1621 43.838 14.1777C41.1173 15.2873 38.2144 16.5649 36.0075 18.5582C35.818 18.6559 35.6936 18.6058 35.4892 18.5589C35.3218 18.4801 35.3218 18.4801 35.1551 18.3804C35.0926 18.3433 35.0294 18.3069 34.965 18.2684C34.8992 18.2287 34.8328 18.189 34.7651 18.1473C34.6257 18.064 34.4863 17.9806 34.347 17.8973C34.2767 17.8549 34.207 17.8133 34.1347 17.7696C33.9374 17.6537 33.7381 17.5437 33.5363 17.4356C33.4764 17.4024 33.4165 17.3698 33.3546 17.3353C33.2419 17.2734 33.128 17.2129 33.0134 17.1543C32.6559 16.9531 32.6559 16.9531 32.5758 16.7349C32.5543 16.5591 32.5549 16.3917 32.5588 16.2146C32.5562 16.0928 32.5536 15.9711 32.5504 15.85C32.5458 15.6155 32.5465 15.3817 32.5465 15.148C32.5465 15.0985 32.5465 15.049 32.5465 14.9982C32.5471 13.9374 32.5888 12.8753 32.7249 11.823C32.8428 10.8866 32.6487 10.128 32.0692 9.37915C31.6224 8.8823 30.9426 8.57819 30.2797 8.53066C29.4488 8.52284 28.8002 8.8022 28.1393 9.28733C28.0826 9.32771 28.026 9.36873 27.968 9.41041C27.8046 9.52827 27.6418 9.64744 27.4796 9.7679C27.4373 9.79916 27.395 9.82977 27.352 9.86233C26.8825 10.2101 26.4345 10.5819 25.991 10.9615C25.7983 11.1263 25.6016 11.2858 25.4043 11.4447C25.123 11.6733 24.8625 11.9136 24.6144 12.1773C24.3468 12.0952 24.1163 11.9963 23.8747 11.8549C23.8083 11.8165 23.7418 11.7775 23.6735 11.7377C23.6025 11.6961 23.5315 11.6544 23.4586 11.6114C23.383 11.5671 23.3081 11.5235 23.2326 11.4799C23.0757 11.3887 22.9194 11.2975 22.7631 11.2057C22.4043 10.996 22.0442 10.789 21.6841 10.5819C21.5441 10.5011 21.4034 10.4197 21.2634 10.339C21.1938 10.2986 21.1241 10.2589 21.0518 10.2172C20.8317 10.0902 20.6116 9.96261 20.3915 9.83563C20.0379 9.63116 19.6837 9.42669 19.3301 9.22352C19.2129 9.15579 19.0963 9.08872 18.9797 9.021C17.9274 8.41149 16.9917 8.0045 15.7505 8.27409C14.7939 8.5515 14.0412 9.12714 13.556 9.99842C13.3053 10.5194 13.209 11.0195 13.2096 11.5951C13.2096 11.6479 13.2096 11.7006 13.209 11.7553C13.2083 11.9331 13.2083 12.1109 13.2083 12.2886C13.2083 12.4169 13.2077 12.5452 13.2077 12.6735C13.2063 13.0271 13.2063 13.3807 13.2057 13.7336C13.205 14.1145 13.2044 14.4955 13.2037 14.8764C13.2018 15.5367 13.2011 16.197 13.1998 16.8567C13.1985 17.8113 13.1966 18.7659 13.1946 19.7206C13.1914 21.2684 13.1888 22.817 13.1862 24.3655C13.1836 25.8697 13.181 27.3739 13.1777 28.8788C13.1777 28.925 13.1777 28.9713 13.1777 29.0188C13.1764 29.4844 13.1757 29.95 13.1751 30.4156C13.1731 31.3644 13.1712 32.3131 13.1692 33.2613C13.1692 33.3049 13.1692 33.3485 13.1692 33.3935C13.164 36.3062 13.1588 39.2189 13.1536 42.1317C13.039 42.1004 12.9244 42.0692 12.8098 42.0379C12.746 42.021 12.6821 42.0034 12.6164 41.9852C12.4132 41.9292 12.2107 41.8699 12.0088 41.8087C11.9326 41.7859 11.8564 41.7625 11.7777 41.739C11.6969 41.7143 11.6155 41.6895 11.5328 41.6641C11.4456 41.6381 11.3583 41.6114 11.271 41.5847C11.0386 41.5144 10.8067 41.444 10.5743 41.3737C10.334 41.3001 10.093 41.2272 9.85211 41.1543C9.56103 41.0657 9.26995 40.9771 8.97887 40.8886C8.45727 40.7303 7.93633 40.5721 7.41473 40.4145C7.13342 40.3299 6.85276 40.2446 6.57145 40.1592C6.44252 40.1202 6.31293 40.0811 6.18399 40.042C6.00752 39.9893 5.83105 39.9359 5.65458 39.8818C5.60314 39.8669 5.5517 39.8512 5.4983 39.835C5.15122 39.7295 5.15122 39.7295 5.07894 39.6572C5.07243 39.5029 5.06982 39.3511 5.07047 39.1968C5.06982 39.148 5.06982 39.0991 5.06982 39.0483C5.06917 38.8823 5.06917 38.7162 5.06917 38.5495C5.06917 38.4304 5.06917 38.3105 5.06852 38.1914C5.06787 37.8606 5.06787 37.5304 5.06787 37.2003C5.06722 36.8447 5.06657 36.4892 5.06592 36.1336C5.06461 35.2741 5.06396 34.4139 5.06331 33.5537C5.06331 33.1486 5.06266 32.7436 5.06266 32.3385C5.06136 30.9912 5.0607 29.6433 5.06005 28.296C5.06005 28.2087 5.06005 28.1215 5.06005 28.0342C5.06005 27.9912 5.06005 27.9483 5.06005 27.9033C5.06005 27.6845 5.06005 27.4651 5.06005 27.2463C5.0594 27.2027 5.0594 27.159 5.0594 27.1141C5.0594 25.7076 5.05745 24.301 5.0555 22.8938C5.05354 21.4058 5.05224 19.9179 5.05159 18.4293C5.05159 17.6186 5.05094 16.8078 5.04964 15.9971C5.04833 15.3056 5.04768 14.6147 5.04833 13.9231C5.04833 13.5708 5.04833 13.2185 5.04703 12.8669C5.03531 9.40715 5.68258 6.24696 8.1714 3.68325C8.26713 3.58427 8.3622 3.48334 8.45662 3.38241C9.89509 1.86906 11.8643 0.848656 13.8699 0.325757C13.9259 0.310779 13.9813 0.296453 14.0392 0.281476C17.5322 -0.583945 20.779 0.588183 23.7581 2.35354Z" fill="#6B7280"/>
<path d="M48.2527 16.6052C48.5008 16.6429 48.678 16.7133 48.8922 16.8415C48.9534 16.8774 49.014 16.9132 49.0765 16.9503C49.1416 16.9894 49.2067 17.0291 49.2744 17.0688C49.4157 17.1528 49.557 17.2368 49.699 17.3202C49.8084 17.3853 49.8084 17.3853 49.9204 17.4517C50.272 17.6588 50.6256 17.8626 50.9799 18.0664C51.1218 18.1485 51.2638 18.2305 51.4064 18.3119C51.4767 18.3529 51.5477 18.3933 51.6206 18.4356C51.9742 18.6395 52.3272 18.8433 52.6808 19.0471C52.8221 19.1285 52.9627 19.2099 53.104 19.2913C53.9506 19.7797 54.7971 20.2681 55.6437 20.7565C55.7133 20.7968 55.7837 20.8372 55.8553 20.8789C55.9966 20.9596 56.1372 21.041 56.2786 21.1224C56.6328 21.3269 56.987 21.5314 57.3413 21.7358C58.0218 22.1278 58.7016 22.5212 59.3801 22.9177C59.9838 23.2707 60.59 23.6184 61.1976 23.9648C61.7889 24.3015 62.3775 24.6427 62.9642 24.9865C63.4637 25.2783 63.9651 25.5654 64.4672 25.852C65.1001 26.2127 65.7311 26.5767 66.3602 26.9446C66.8323 27.2214 67.3057 27.4955 67.7804 27.769C67.8501 27.8094 67.9197 27.8498 67.992 27.8915C68.3534 28.0998 68.7155 28.3076 69.0789 28.5127C70.1605 29.1255 71.1796 29.7493 72.086 30.6056C72.1739 30.6805 72.2618 30.7554 72.3504 30.8296C74.2896 32.5318 75.5301 35.2739 75.7483 37.822C75.7724 38.2453 75.773 38.6679 75.7691 39.0911C75.7691 39.155 75.7684 39.2188 75.7684 39.2839C75.7626 40.288 75.6942 41.229 75.407 42.1966C75.3901 42.2565 75.3732 42.3165 75.3556 42.3783C75.1277 43.1643 74.8229 43.8897 74.4303 44.606C74.3886 44.6848 74.3463 44.7643 74.3046 44.843C73.897 45.5965 73.3845 46.2444 72.803 46.8708C72.7111 46.9724 72.6232 47.0772 72.5386 47.184C72.3478 47.4204 72.1238 47.6028 71.8907 47.7968C71.8555 47.8261 71.821 47.8554 71.7852 47.8854C71.2382 48.3405 70.6853 48.7443 70.0673 49.0992C69.9423 49.1715 69.8179 49.2437 69.6929 49.316C69.4018 49.4847 69.1101 49.6527 68.8184 49.82C68.4114 50.0545 68.0057 50.2908 67.6007 50.5279C66.9977 50.8808 66.3908 51.2285 65.7832 51.575C65.1893 51.9136 64.5974 52.2561 64.0068 52.6012C63.3217 53.0024 62.6341 53.3983 61.9458 53.7948C61.5922 53.9987 61.2393 54.2025 60.8857 54.4063C60.7444 54.4877 60.6037 54.5691 60.4624 54.6505C60.3576 54.7111 60.3576 54.7111 60.2508 54.7723C59.6159 55.1389 59.6159 55.1389 59.4042 55.2613C59.2636 55.3421 59.1229 55.4235 58.9823 55.5042C58.6209 55.7132 58.2595 55.9216 57.8974 56.1293C57.7502 56.2146 57.6024 56.2993 57.4546 56.3846C57.3843 56.425 57.3133 56.4653 57.241 56.507C56.808 56.7571 56.3775 57.0097 55.9543 57.2754C55.7791 57.3835 55.6918 57.4343 55.4809 57.4343C55.5714 57.2487 55.6697 57.0703 55.7745 56.8925C55.8071 56.8372 55.8403 56.7818 55.8735 56.7245C55.9093 56.6646 55.9451 56.6047 55.9816 56.5428C56.0187 56.4797 56.0565 56.4165 56.0949 56.3514C56.7415 55.262 57.3953 54.1764 58.0537 53.0948C58.4379 52.4632 58.8162 51.8283 59.1919 51.1914C59.5214 50.6347 59.8562 50.0805 60.1935 49.5276C60.5484 48.9455 60.898 48.3601 61.2458 47.7727C61.4008 47.5103 61.557 47.2485 61.7127 46.9861C61.8273 46.794 61.9406 46.6019 62.0539 46.4091C62.8015 45.1348 62.8015 45.1348 63.4253 44.6711C63.5451 44.5741 63.6643 44.4764 63.7834 44.3781C63.8433 44.3299 63.9033 44.2811 63.9645 44.2316C64.1364 44.089 64.3024 43.9425 64.4672 43.792C64.7472 43.5368 65.0376 43.2978 65.3319 43.0595C65.5039 42.9168 65.6699 42.7703 65.8347 42.6199C66.1147 42.3646 66.4051 42.1257 66.6994 41.8873C66.8713 41.7447 67.0374 41.5982 67.2021 41.4478C67.4822 41.1925 67.7726 40.9535 68.0669 40.7152C68.2388 40.5726 68.4049 40.4261 68.5696 40.2756C68.8496 40.0204 69.1401 39.7814 69.4344 39.5431C69.6063 39.4005 69.7724 39.2539 69.9371 39.1035C70.2165 38.8489 70.5062 38.6099 70.8006 38.3722C71.0337 38.1788 71.2577 37.9763 71.4811 37.7712C71.5866 37.6768 71.696 37.5869 71.808 37.499C71.9603 37.3909 71.9603 37.3909 72.0209 37.2476C71.9532 37.2229 71.9532 37.2229 71.8848 37.1975C71.6693 37.1063 71.4719 36.993 71.272 36.8732C71.231 36.8485 71.19 36.8244 71.1483 36.7996C71.0142 36.7195 70.8807 36.6401 70.7472 36.56C70.6528 36.504 70.559 36.4473 70.4646 36.3913C69.8375 36.0176 69.2123 35.6392 68.5892 35.2589C67.9777 34.8865 67.3623 34.5192 66.7463 34.1545C66.0554 33.7456 65.3671 33.3327 64.6814 32.9147C64.0263 32.5155 63.3673 32.1228 62.707 31.7321C62.1223 31.3857 61.5395 31.0367 60.9599 30.6837C60.7001 30.5255 60.4409 30.3679 60.1811 30.2103C60.0469 30.1289 59.9128 30.0469 59.778 29.9648C58.1396 28.9659 56.5371 28.2451 54.6343 27.9357C54.5705 27.924 54.5705 27.924 54.5054 27.9123C54.1765 27.8628 53.8588 27.8784 53.528 27.9006C52.0901 27.9885 51.2 27.7905 50.022 26.9694C49.7029 26.7519 49.3695 26.5637 49.0341 26.3729C48.9085 26.2993 48.7821 26.2257 48.6565 26.1522C48.3582 25.9776 48.0593 25.8064 47.7591 25.6358C47.7175 25.6117 47.6758 25.5882 47.6328 25.5635C47.429 25.4476 47.2252 25.3317 47.0213 25.2164C46.9113 25.1539 46.9113 25.1539 46.7986 25.0901C46.701 25.0347 46.701 25.0347 46.6013 24.9787C46.449 24.8869 46.3089 24.7899 46.1689 24.6798C46.4789 22.3447 47.009 20.0708 47.8861 17.8821C48.0541 17.4595 48.185 17.0558 48.2527 16.6052Z" fill="#6B7280"/>
<path d="M5.01367 53.5923C5.28521 53.7128 5.40894 53.888 5.57108 54.1296C5.62904 54.2123 5.68634 54.2956 5.7443 54.3783C5.77425 54.4207 5.80421 54.463 5.83481 54.5066C6.23073 55.0634 6.66507 55.5876 7.13132 56.0864C7.25569 56.2218 7.37616 56.3586 7.49533 56.4986C7.77208 56.8157 8.06837 57.1126 8.36661 57.4096C8.46103 57.5033 8.5548 57.5978 8.64857 57.6922C8.98849 58.0321 9.33557 58.3603 9.70219 58.6716C9.7647 58.7269 9.82786 58.7816 9.89233 58.8383C10.7265 59.5572 11.6193 60.1992 12.5101 60.8452C12.5602 60.881 12.6097 60.9168 12.6612 60.954C12.7067 60.9872 12.753 61.0197 12.7999 61.0542C12.8402 61.0829 12.88 61.1116 12.9216 61.1415C13.0252 61.2157 13.0252 61.2157 13.1535 61.2763C13.1541 61.3473 13.1541 61.4183 13.1548 61.4912C13.1587 62.1619 13.1632 62.832 13.1691 63.5027C13.1717 63.8472 13.1743 64.1923 13.1762 64.5368C13.1775 64.8702 13.1802 65.2029 13.1834 65.5363C13.1847 65.6627 13.1854 65.789 13.186 65.916C13.1899 67.1057 13.3136 68.1053 14.166 69.0045C14.896 69.6961 15.7907 70.0419 16.7942 70.0178C18.0334 69.9221 19.132 69.1113 20.1725 68.4973C20.5203 68.2928 20.87 68.0916 21.2203 67.8897C21.3623 67.8077 21.5042 67.7256 21.6468 67.6442C21.7172 67.6032 21.7881 67.5628 21.8611 67.5205C22.2147 67.3167 22.5676 67.1129 22.9212 66.909C23.0625 66.8276 23.2032 66.7462 23.3445 66.6648C23.4141 66.6245 23.4838 66.5841 23.5561 66.5431C25.8841 65.1997 25.8841 65.1997 26.0957 65.0773C26.2364 64.9965 26.3764 64.9158 26.5164 64.8344C26.8439 64.6462 27.1708 64.4573 27.4977 64.2691C27.613 64.2027 27.7282 64.1363 27.8428 64.0705C27.9867 63.9878 28.13 63.9051 28.2739 63.8224C28.3397 63.7847 28.4048 63.7469 28.4725 63.7078C28.5357 63.672 28.5982 63.6355 28.6633 63.5984C28.7864 63.5261 28.9082 63.4506 29.0286 63.3731C29.0859 63.3366 29.1426 63.3002 29.2012 63.2624C29.2507 63.2298 29.3002 63.1966 29.3516 63.1628C29.5405 63.0814 29.6297 63.1022 29.8237 63.1647C29.9624 63.2325 29.9624 63.2325 30.1018 63.3171C30.1552 63.3484 30.2079 63.3796 30.2626 63.4122C30.3473 63.463 30.3473 63.463 30.4345 63.5151C32.5353 64.738 34.7825 65.524 37.1821 65.8997C37.227 65.9069 37.2713 65.9147 37.3175 65.9218C38.3451 66.0879 39.4 66.0723 40.438 66.0951C40.438 66.138 40.438 66.181 40.438 66.2253C40.397 66.2481 40.356 66.2709 40.3136 66.2943C39.4176 66.7925 38.5281 67.2984 37.6438 67.8168C37.2329 68.0571 36.8213 68.2954 36.4085 68.5331C36.303 68.5936 36.303 68.5936 36.1955 68.6555C36.0529 68.7382 35.9103 68.8203 35.7677 68.9023C35.4141 69.1061 35.0612 69.3099 34.7076 69.5138C34.5663 69.5952 34.4256 69.6766 34.2843 69.758C34.2147 69.7983 34.145 69.8387 34.0727 69.8797C33.4378 70.2463 33.4378 70.2463 33.2262 70.3688C33.0848 70.4495 32.9442 70.5309 32.8029 70.6123C32.4486 70.8168 32.0944 71.0212 31.7402 71.2257C31.0597 71.6177 30.3798 72.011 29.7013 72.4076C29.0983 72.7606 28.4914 73.1083 27.8839 73.4547C27.29 73.7933 26.698 74.1359 26.1074 74.481C25.565 74.7988 25.0206 75.1139 24.4756 75.4272C24.1135 75.6355 23.7528 75.8446 23.3933 76.0555C21.5081 77.1612 19.4927 78.1406 17.2566 78.155C17.209 78.1556 17.1608 78.1563 17.1113 78.1563C15.1037 78.1712 15.1037 78.1712 14.1953 77.9466C14.1419 77.9336 14.0879 77.9205 14.0325 77.9075C12.415 77.507 10.8945 76.8142 9.57195 75.7977C9.51334 75.754 9.45539 75.7104 9.39548 75.6648C6.96461 73.7679 5.46885 70.9802 5.09312 67.9353C5.06902 67.6859 5.06902 67.4371 5.06837 67.1864C5.06837 67.1278 5.06772 67.0699 5.06772 67.0093C5.06642 66.8153 5.06577 66.6206 5.06512 66.4259C5.06512 66.2858 5.06446 66.1458 5.06316 66.0058C5.06186 65.6269 5.06056 65.2479 5.05925 64.8689C5.0573 64.4723 5.056 64.0757 5.05405 63.6792C5.05079 62.929 5.04818 62.1782 5.04493 61.428C5.04167 60.5737 5.03842 59.7193 5.03451 58.8643C5.02735 57.1074 5.02018 55.3499 5.01367 53.5923Z" fill="#6B7280"/>
<path d="M42.8482 19.4052C42.8026 19.8865 42.6867 20.3442 42.5714 20.8131C42.1892 22.4085 41.9463 24.0221 41.8063 25.6566C41.7998 25.7276 41.7939 25.7992 41.7874 25.8721C41.7281 26.6405 41.7255 27.4096 41.7249 28.1799C41.7249 28.2516 41.7249 28.3232 41.7249 28.3974C41.7268 30.8192 41.9866 33.2057 42.5304 35.5676C42.5467 35.6373 42.5623 35.7069 42.5786 35.7792C42.5929 35.8398 42.6072 35.9003 42.6222 35.9629C42.6776 36.2852 42.6873 36.5235 42.5148 36.8068C42.4861 36.855 42.4575 36.9032 42.4275 36.9527C42.3819 37.0262 42.3819 37.0262 42.335 37.1011C42.3051 37.1513 42.2751 37.2008 42.2445 37.2522C42.0244 37.6156 42.0244 37.6156 41.8714 37.7686C41.6291 37.7497 41.5028 37.6247 41.3303 37.4632C41.2736 37.4111 41.2169 37.3583 41.1583 37.3043C41.1271 37.2743 41.0958 37.245 41.0639 37.2151C40.9487 37.107 40.8321 37.0002 40.7162 36.894C39.9497 36.1901 39.9497 36.1901 39.6222 35.7962C39.5232 35.6802 39.4177 35.5754 39.307 35.4693C39.0661 35.2316 38.8564 34.9718 38.6441 34.708C38.5093 34.5426 38.3719 34.3811 38.2319 34.2203C37.2083 33.0371 36.335 31.6996 35.5549 30.3451C35.5302 30.3021 35.5048 30.2585 35.4794 30.2142C34.9916 29.3644 34.5475 28.4925 34.1223 27.6101C34.0956 27.5554 34.0689 27.5007 34.0416 27.4447C33.8013 26.9342 33.8013 26.9342 33.8618 26.6985C33.9765 26.5201 34.1106 26.3625 34.2486 26.2023C34.3274 26.1085 34.4056 26.0147 34.4844 25.921C34.5423 25.8526 34.5423 25.8526 34.6016 25.7829C34.737 25.6227 34.8666 25.4586 34.9975 25.2945C35.732 24.3979 36.5584 23.5402 37.4433 22.7914C37.502 22.7399 37.5599 22.6891 37.6198 22.6364C38.846 21.5691 40.2024 20.6763 41.6116 19.8702C41.6969 19.8213 41.7822 19.7719 41.8675 19.7224C41.9834 19.6553 42.1006 19.5889 42.2172 19.5231C42.2829 19.486 42.3487 19.4489 42.4158 19.4104C42.5994 19.3349 42.6678 19.331 42.8482 19.4052Z" fill="#F9FAFB"/>
<path d="M30.8909 9.56829C31.324 9.82226 31.6717 10.1791 31.8475 10.6551C31.9634 11.1448 31.8794 11.6436 31.8267 12.1379C31.4679 15.565 31.7498 19.0703 32.6009 22.407C32.6244 22.5307 32.6244 22.5307 32.6244 22.7912C32.836 22.5802 33.047 22.3686 33.2567 22.1563C33.4182 21.9929 33.5803 21.8294 33.7425 21.6666C33.8271 21.5813 33.9111 21.496 33.9958 21.4107C34.4946 20.9054 34.9953 20.43 35.5547 19.9911C35.6218 19.9351 35.6889 19.8785 35.7546 19.8212C38.2558 17.6762 41.2981 16.0358 44.3782 14.9041C44.4453 14.8793 44.5117 14.8546 44.5801 14.8292C45.1375 14.6306 45.6656 14.4906 46.2341 14.7165C46.6938 14.9399 47.0552 15.2642 47.2682 15.7343C47.4805 16.4239 47.3138 17.051 47.0481 17.6957C46.9882 17.8507 46.9276 18.0063 46.8684 18.1613C46.8228 18.2779 46.8228 18.2779 46.7765 18.3964C45.8955 20.7146 45.4208 23.193 45.1922 25.6564C45.1863 25.7215 45.1798 25.786 45.1733 25.8531C45.1082 26.6176 45.1147 27.384 45.1154 28.1517C45.1154 28.224 45.1154 28.2963 45.1154 28.3705C45.1154 29.4027 45.1316 30.4263 45.2573 31.4519C45.2671 31.5288 45.2671 31.5288 45.2762 31.6069C45.2918 31.7293 45.3068 31.8511 45.3224 31.9729C45.5289 31.799 45.7333 31.6265 45.9274 31.4389C47.9474 29.5062 50.737 28.6453 53.4902 28.6981C54.9665 28.7495 56.4121 29.1383 57.7314 29.8012C57.7757 29.8233 57.8206 29.8461 57.8668 29.8689C58.3487 30.1144 58.8117 30.3879 59.2747 30.6666C59.3652 30.7213 59.4564 30.7754 59.5469 30.8294C60.2 31.2201 60.8499 31.6154 61.4991 32.0113C62.0741 32.361 62.6517 32.7048 63.23 33.0473C63.9215 33.4563 64.6098 33.8698 65.2949 34.2872C65.95 34.6864 66.6089 35.079 67.2686 35.4697C67.9888 35.8956 68.7058 36.3273 69.4201 36.7636C69.7639 36.9733 70.1077 37.181 70.4581 37.3777C70.3559 37.6571 70.1436 37.8133 69.9215 37.9963C69.8382 38.0666 69.7548 38.1363 69.6721 38.206C69.6291 38.2418 69.5868 38.277 69.5432 38.3134C69.3478 38.4775 69.1544 38.6442 68.9604 38.8103C68.8848 38.8754 68.8086 38.9405 68.7325 39.0057C68.6953 39.0382 68.6576 39.0701 68.6191 39.1033C63.719 43.3035 63.719 43.3035 63.6044 43.4011C63.5289 43.4663 63.4527 43.532 63.3771 43.5971C63.1876 43.7612 62.9955 43.9214 62.7976 44.0758C62.2584 44.5029 61.912 44.936 61.5753 45.5325C61.4509 45.7493 61.3239 45.9642 61.1957 46.1791C61.1709 46.2214 61.1455 46.2631 61.1201 46.3067C61.0674 46.3946 61.0146 46.4825 60.9625 46.5704C60.8811 46.7072 60.8004 46.8439 60.7197 46.9807C60.3771 47.5589 60.0314 48.1346 59.681 48.7083C59.2857 49.3569 58.8963 50.0087 58.5089 50.6618C58.1221 51.3156 57.7327 51.9668 57.3368 52.6154C56.9649 53.2262 56.597 53.8396 56.2324 54.455C56.0038 54.8405 55.7752 55.226 55.546 55.6108C55.503 55.6837 55.46 55.756 55.4158 55.8309C54.6669 57.087 53.8744 58.2807 52.8866 59.3636C52.7602 59.5029 52.6372 59.6442 52.5141 59.7868C52.1253 60.2316 51.7021 60.6373 51.2482 61.0156C51.2156 61.0436 51.1831 61.071 51.1492 61.099C50.19 61.8993 49.1612 62.5798 48.0574 63.1645C48.0164 63.1867 47.9747 63.2088 47.9324 63.2316C45.4266 64.5607 42.6409 65.2157 39.8121 65.204C39.7522 65.2034 39.6923 65.2034 39.6305 65.2034C38.6941 65.1995 37.7798 65.163 36.8571 64.9878C36.7893 64.9755 36.721 64.9631 36.6513 64.9501C34.3285 64.5079 32.2513 63.6314 30.2404 62.4013C29.9545 62.2268 29.668 62.0556 29.3795 61.8849C29.3366 61.8596 29.2929 61.8342 29.2487 61.8075C29.1607 61.7554 29.0722 61.7039 28.9843 61.6518C28.4132 61.3139 27.8434 60.9746 27.2775 60.6282C27.2352 60.6028 27.1929 60.5767 27.1499 60.55C26.9487 60.427 26.7481 60.3039 26.5475 60.1802C26.4772 60.1365 26.4062 60.0935 26.334 60.0486C26.2721 60.0102 26.2102 59.9724 26.1464 59.9334C25.8573 59.7751 25.6691 59.7738 25.3448 59.8298C25.268 59.8428 25.1911 59.8559 25.1117 59.8695C25.027 59.8845 24.943 59.8995 24.8564 59.9145C24.7666 59.9301 24.6767 59.9457 24.5868 59.9607C24.3928 59.9939 24.1994 60.0271 24.006 60.061C23.6993 60.1144 23.3932 60.1671 23.0865 60.2192C22.324 60.3501 21.5621 60.4817 20.8002 60.6132C20.2089 60.7154 19.6177 60.817 19.0257 60.9186C18.7216 60.97 18.4175 61.0228 18.1134 61.0762C17.9233 61.1087 17.7331 61.1413 17.543 61.1739C17.4141 61.196 17.2851 61.2188 17.1568 61.2416C15.7086 61.4858 14.5417 61.209 13.3494 60.3644C13.2777 60.3143 13.2061 60.2642 13.1338 60.2134C12.9007 60.0493 12.6689 59.8819 12.4377 59.7133C12.396 59.6827 12.3537 59.652 12.3107 59.6208C11.6771 59.1578 11.0735 58.6688 10.4842 58.1504C10.4353 58.1081 10.3858 58.0651 10.3351 58.0208C10.2107 57.9127 10.087 57.804 9.96323 57.6946C9.91635 57.6529 9.86946 57.6112 9.82062 57.5683C9.41689 57.2088 9.03009 56.8363 8.64914 56.4534C8.59379 56.3981 8.53844 56.3434 8.48114 56.2867C8.1588 55.9631 7.84949 55.6336 7.55386 55.2852C7.51934 55.2448 7.48418 55.2038 7.44836 55.1621C4.54409 51.7649 2.44793 47.3909 2.37695 42.8639C2.375 42.7884 2.37305 42.7122 2.37109 42.634C2.37109 42.0421 2.50784 41.6117 2.8979 41.163C2.95195 41.1174 3.00535 41.0719 3.0607 41.0243C3.10693 40.98 3.15251 40.9358 3.1994 40.8902C3.65588 40.5828 4.14231 40.4461 4.68865 40.5034C4.97192 40.5639 5.24672 40.6466 5.52347 40.7313C5.61073 40.7573 5.69864 40.7834 5.7859 40.8094C6.0939 40.9019 6.40061 40.9957 6.70732 41.0894C6.79327 41.1161 6.79327 41.1161 6.88118 41.1428C7.55451 41.3486 8.22783 41.5557 8.9005 41.7641C10.0316 42.1131 11.1634 42.4582 12.2958 42.8033C12.3427 42.817 12.3889 42.8313 12.4371 42.8463C14.5202 43.4799 16.6046 44.109 18.6891 44.7361C18.6891 44.5283 18.6051 44.3414 18.5393 44.1461C18.5067 44.0491 18.4735 43.9514 18.441 43.8537C18.424 43.8023 18.4065 43.7502 18.3889 43.6968C17.6615 41.5088 17.108 39.2798 16.785 36.9955C16.7746 36.9258 16.7648 36.8561 16.7551 36.7851C16.5766 35.4424 16.5161 34.1042 16.52 32.7504C16.52 32.6723 16.5206 32.5941 16.5206 32.5134C16.5239 31.3009 16.5604 30.1131 16.7355 28.9123C16.7466 28.8361 16.7577 28.7593 16.7687 28.6812C17.1458 26.0921 17.8946 23.5928 19.0147 21.2284C19.0427 21.1698 19.0707 21.1112 19.0993 21.0506C20.067 19.0241 21.3257 17.081 22.8013 15.3873C22.9218 15.2486 23.0403 15.1092 23.1581 14.9686C23.6211 14.4157 24.1115 13.898 24.6227 13.3894C24.7503 13.2631 24.8766 13.1361 25.0029 13.0085C25.462 12.5494 25.9283 12.1229 26.4381 11.7211C26.5117 11.6599 26.5847 11.5974 26.6569 11.5349C27.357 10.9293 28.0922 10.3745 28.8599 9.85742C28.8996 9.83007 28.94 9.80337 28.981 9.77537C29.5619 9.39052 30.2326 9.27266 30.8909 9.56829ZM27.0073 11.5635C26.9077 11.6449 26.8074 11.725 26.7071 11.8051C25.9146 12.4355 25.197 13.1524 24.4807 13.8661C24.4039 13.9423 24.4039 13.9423 24.3257 14.0198C24.0184 14.3284 23.726 14.6456 23.4427 14.977C23.3861 15.0428 23.3288 15.1086 23.2714 15.1743C21.6552 17.0615 20.3047 19.1283 19.21 21.3586C19.182 21.4166 19.1534 21.4739 19.1247 21.5338C17.8666 24.1274 17.121 27.0239 16.8658 29.8891C16.8566 29.9874 16.8566 29.9874 16.8475 30.0884C16.7772 30.9642 16.7824 31.8433 16.7805 32.7217C16.7805 32.7647 16.7805 32.8083 16.7805 32.8526C16.7772 34.7547 16.8716 36.6412 17.2838 38.5049C17.3288 38.7107 17.3691 38.9177 17.4089 39.1242C17.7331 40.7717 18.2085 42.3495 18.7373 43.941C18.7555 43.9963 18.7737 44.0517 18.7926 44.109C18.8271 44.2138 18.8623 44.3187 18.8975 44.4235C18.9632 44.6221 19.0147 44.7862 19.0147 44.9965C18.523 44.9575 18.0731 44.8162 17.6029 44.6709C17.5163 44.6449 17.4303 44.6188 17.3437 44.5921C17.0761 44.5107 16.8085 44.428 16.5402 44.3453C16.4555 44.3193 16.3702 44.2933 16.2849 44.2666C15.5725 44.0471 14.8608 43.8264 14.1503 43.5997C13.6164 43.4291 13.0791 43.2715 12.5393 43.1198C12.1258 43.0033 11.7208 42.8704 11.3138 42.7317C11.0396 42.6425 10.7629 42.565 10.4842 42.4895C10.126 42.3925 9.77374 42.2883 9.4221 42.1678C9.03074 42.0343 8.63612 41.9177 8.2376 41.8057C7.76028 41.6722 7.29143 41.5251 6.82258 41.3649C6.48917 41.2561 6.15251 41.1637 5.8139 41.0732C5.56775 41.0067 5.33007 40.9345 5.09173 40.8413C4.61051 40.6779 4.08436 40.6851 3.62267 40.898C3.10693 41.1969 2.79176 41.5648 2.60487 42.1313C2.57231 42.3423 2.57101 42.5455 2.57687 42.7584C2.57752 42.817 2.57882 42.8763 2.57947 42.9368C2.62245 44.5264 2.94674 46.1635 3.47029 47.6631C3.5035 47.7582 3.53541 47.8533 3.56732 47.9483C4.77656 51.6099 7.19505 55.0892 10.1475 57.5754C10.2641 57.6738 10.378 57.774 10.4913 57.8756C11.1536 58.4643 11.853 58.9957 12.568 59.5179C12.6116 59.5498 12.6552 59.5824 12.7002 59.6149C12.958 59.8038 13.2172 59.9881 13.4796 60.1691C13.518 60.1958 13.5558 60.2218 13.5955 60.2492C15.0496 61.2468 16.3826 61.168 18.0587 60.8567C18.1297 60.8431 18.2007 60.83 18.2743 60.8164C18.424 60.789 18.5745 60.7623 18.7242 60.7356C19.0264 60.6816 19.3279 60.6269 19.63 60.5722C20.2311 60.4628 20.8341 60.3605 21.4364 60.2589C21.65 60.2225 21.8629 60.1867 22.0765 60.1502C22.1286 60.1411 22.1814 60.1326 22.2354 60.1235C22.5825 60.0642 22.9302 60.0037 23.2773 59.9425C23.5228 59.8995 23.769 59.8565 24.0144 59.8135C24.131 59.7934 24.2476 59.7725 24.3641 59.7517C24.5256 59.723 24.6878 59.695 24.8493 59.667C24.8961 59.6586 24.943 59.6501 24.9912 59.641C25.5356 59.5479 25.9446 59.5146 26.4316 59.8148C26.4922 59.8513 26.4922 59.8513 26.5541 59.8891C26.6862 59.9692 26.8165 60.0506 26.9474 60.1326C27.0398 60.1893 27.1323 60.2459 27.2248 60.3019C27.4143 60.4172 27.6031 60.5337 27.7913 60.6503C28.0459 60.8079 28.3018 60.9642 28.5584 61.1192C28.5968 61.1426 28.6352 61.166 28.6756 61.1901C28.7518 61.237 28.8286 61.2833 28.9055 61.3295C29.0188 61.3985 29.1321 61.4669 29.2454 61.5359C31.7199 63.0415 34.1566 64.3249 37.0524 64.7925C37.1117 64.8022 37.1709 64.812 37.2315 64.8224C41.5951 65.514 46.2452 64.3848 49.8293 61.8153C50.3626 61.4265 50.8666 61.015 51.3543 60.5702C51.4937 60.4439 51.635 60.3202 51.7776 60.1977C52.2237 59.807 52.6137 59.3883 52.9843 58.926C53.1386 58.7345 53.2981 58.5489 53.4583 58.3621C54.5614 57.0467 55.3708 55.4545 56.2434 53.9809C56.6263 53.3336 57.0138 52.6903 57.4051 52.0482C57.7776 51.4367 58.1442 50.8227 58.5089 50.206C58.94 49.4786 59.3756 48.7539 59.8158 48.0323C60.2326 47.348 60.6415 46.6583 61.0485 45.9681C61.1885 45.7304 61.3298 45.4934 61.4718 45.257C61.5128 45.1886 61.5538 45.1209 61.5961 45.0506C61.8045 44.712 62.0025 44.4352 62.3027 44.1747C62.3359 44.1454 62.3691 44.1161 62.403 44.0855C62.6804 43.8433 62.9662 43.6115 63.2534 43.3803C63.424 43.2396 63.5881 43.0944 63.7509 42.9453C64.0309 42.69 64.3213 42.4511 64.6163 42.2127C64.7882 42.0708 64.9536 41.9236 65.1184 41.7732C65.3984 41.5179 65.6888 41.2789 65.9838 41.0406C66.1557 40.8986 66.3211 40.7515 66.4859 40.601C66.7021 40.4044 66.9222 40.2155 67.1494 40.0313C67.4392 39.7968 67.7231 39.5559 68.0044 39.3111C68.0663 39.257 68.0663 39.257 68.1295 39.2023C68.2128 39.1294 68.2968 39.0564 68.3808 38.9835C68.9571 38.4828 69.5386 37.9885 70.1325 37.5079C69.9078 37.3204 69.6799 37.1654 69.4266 37.0189C69.3901 36.9981 69.3537 36.9766 69.3159 36.9551C69.2371 36.9095 69.159 36.8639 69.0802 36.8183C68.8666 36.6953 68.6537 36.5709 68.4407 36.4465C68.3971 36.4211 68.3535 36.3957 68.3079 36.369C67.8755 36.1164 67.447 35.8565 67.0192 35.5954C66.3667 35.1969 65.7116 34.8042 65.0533 34.4148C64.3624 34.0059 63.6741 33.593 62.989 33.175C62.3339 32.7758 61.6749 32.3831 61.0146 31.9931C60.4208 31.6414 59.8295 31.2852 59.2408 30.9251C57.3407 29.7647 55.477 28.9507 53.2115 28.9573C53.0565 28.9573 52.9016 28.956 52.7472 28.954C51.8284 28.9501 50.9513 29.0771 50.0722 29.3519C50.0181 29.3688 49.9641 29.3851 49.9081 29.4027C48.243 29.9308 46.7264 30.8698 45.5425 32.1591C45.3876 32.2985 45.3876 32.2985 45.1271 32.2985C45.0952 32.0627 45.0646 31.8264 45.034 31.5906C45.0249 31.5255 45.0164 31.4611 45.0073 31.3946C44.6029 28.2559 44.8536 25.0274 45.5178 21.9447C45.5425 21.8288 45.5425 21.8288 45.5679 21.7096C45.8922 20.1897 46.3598 18.692 46.94 17.2496C47.1412 16.7326 47.2096 16.1869 46.9791 15.6608C46.7329 15.2557 46.3598 14.9842 45.9085 14.8468C45.3967 14.7888 44.9793 14.9139 44.5046 15.0955C44.3991 15.1346 44.3991 15.1346 44.291 15.175C41.1764 16.3543 38.1835 18.0206 35.67 20.2197C35.5827 20.2939 35.4935 20.3656 35.403 20.4365C34.9192 20.8214 34.4822 21.2414 34.0479 21.6803C33.93 21.7995 33.8115 21.918 33.6936 22.0358C33.6174 22.1127 33.5412 22.1889 33.4657 22.2651C33.413 22.3178 33.413 22.3178 33.3596 22.3712C33.2085 22.5242 33.0698 22.6746 32.9376 22.8453C32.8197 22.9866 32.8197 22.9866 32.6413 23.04C32.5925 23.0439 32.5443 23.0478 32.4941 23.0517C32.2656 22.069 32.0715 21.0799 31.8859 20.0881C31.8612 19.9547 31.8358 19.8218 31.8098 19.689C31.3038 17.0686 31.3357 14.2907 31.6339 11.6495C31.6964 11.0927 31.6463 10.6955 31.322 10.2234C31.0361 9.90105 30.6923 9.6803 30.2599 9.61453C29.0728 9.5442 27.8616 10.8537 27.0073 11.5635Z" fill="#F3F4F6"/>
<path d="M23.7581 2.35354C24.1045 2.55801 24.4529 2.75792 24.802 2.95849C24.9439 3.04054 25.0865 3.12259 25.2285 3.20463C25.2995 3.24566 25.3698 3.28603 25.4427 3.32836C25.7963 3.53153 26.1493 3.736 26.5028 3.93982C26.6442 4.02122 26.7848 4.10262 26.9261 4.18401C39.6242 11.5098 39.6242 11.5098 39.8358 11.6316C39.9765 11.713 40.1178 11.7944 40.2584 11.8758C40.6153 12.0816 40.9721 12.2873 41.329 12.4931C42.2029 12.9978 43.078 13.5005 43.9545 14.0006C43.9545 14.0436 43.9545 14.0865 43.9545 14.1308C43.9161 14.1465 43.8777 14.1621 43.838 14.1777C41.1173 15.2873 38.2144 16.5649 36.0075 18.5582C35.818 18.6559 35.6936 18.6058 35.4892 18.5589C35.3218 18.4801 35.3218 18.4801 35.1551 18.3804C35.0926 18.3433 35.0294 18.3069 34.965 18.2684C34.8992 18.2287 34.8328 18.189 34.7651 18.1473C34.6257 18.064 34.4863 17.9806 34.347 17.8973C34.2767 17.8549 34.207 17.8133 34.1347 17.7696C33.9374 17.6537 33.7381 17.5437 33.5363 17.4356C33.4764 17.4024 33.4165 17.3698 33.3546 17.3353C33.2419 17.2734 33.128 17.2129 33.0134 17.1543C32.6559 16.9531 32.6559 16.9531 32.5758 16.7349C32.5543 16.5591 32.5549 16.3917 32.5588 16.2146C32.5562 16.0928 32.5536 15.9711 32.5504 15.85C32.5458 15.6155 32.5465 15.3817 32.5465 15.148C32.5465 15.0985 32.5465 15.049 32.5465 14.9982C32.5471 13.9374 32.5888 12.8753 32.7249 11.823C32.8428 10.8866 32.6487 10.128 32.0692 9.37915C31.6224 8.8823 30.9426 8.57819 30.2797 8.53066C29.4488 8.52284 28.8002 8.8022 28.1393 9.28733C28.0826 9.32771 28.026 9.36873 27.968 9.41041C27.8046 9.52827 27.6418 9.64744 27.4796 9.7679C27.4373 9.79916 27.395 9.82977 27.352 9.86233C26.8825 10.2101 26.4345 10.5819 25.991 10.9615C25.7983 11.1263 25.6016 11.2858 25.4043 11.4447C25.123 11.6733 24.8625 11.9136 24.6144 12.1773C24.3468 12.0952 24.1163 11.9963 23.8747 11.8549C23.8083 11.8165 23.7418 11.7775 23.6735 11.7377C23.6025 11.6961 23.5315 11.6544 23.4586 11.6114C23.383 11.5671 23.3081 11.5235 23.2326 11.4799C23.0757 11.3887 22.9194 11.2975 22.7631 11.2057C22.4043 10.996 22.0442 10.789 21.6841 10.5819C21.5441 10.5011 21.4034 10.4197 21.2634 10.339C21.1938 10.2986 21.1241 10.2589 21.0518 10.2172C20.8317 10.0902 20.6116 9.96261 20.3915 9.83563C20.0379 9.63116 19.6837 9.42669 19.3301 9.22352C19.2129 9.15579 19.0963 9.08872 18.9797 9.021C17.9274 8.41149 16.9917 8.0045 15.7505 8.27409C14.7939 8.5515 14.0412 9.12714 13.556 9.99842C13.3053 10.5194 13.209 11.0195 13.2096 11.5951C13.2096 11.6479 13.2096 11.7006 13.209 11.7553C13.2083 11.9331 13.2083 12.1109 13.2083 12.2886C13.2083 12.4169 13.2077 12.5452 13.2077 12.6735C13.2063 13.0271 13.2063 13.3807 13.2057 13.7336C13.205 14.1145 13.2044 14.4955 13.2037 14.8764C13.2018 15.5367 13.2011 16.197 13.1998 16.8567C13.1985 17.8113 13.1966 18.7659 13.1946 19.7206C13.1914 21.2684 13.1888 22.817 13.1862 24.3655C13.1836 25.8697 13.181 27.3739 13.1777 28.8788C13.1777 28.925 13.1777 28.9713 13.1777 29.0188C13.1764 29.4844 13.1757 29.95 13.1751 30.4156C13.1731 31.3644 13.1712 32.3131 13.1692 33.2613C13.1692 33.3049 13.1692 33.3485 13.1692 33.3935C13.164 36.3062 13.1588 39.2189 13.1536 42.1317C13.039 42.1004 12.9244 42.0692 12.8098 42.0379C12.746 42.021 12.6821 42.0034 12.6164 41.9852C12.4132 41.9292 12.2107 41.8699 12.0088 41.8087C11.9326 41.7859 11.8564 41.7625 11.7777 41.739C11.6969 41.7143 11.6155 41.6895 11.5328 41.6641C11.4456 41.6381 11.3583 41.6114 11.271 41.5847C11.0386 41.5144 10.8067 41.444 10.5743 41.3737C10.334 41.3001 10.093 41.2272 9.85211 41.1543C9.56103 41.0657 9.26995 40.9771 8.97887 40.8886C8.45727 40.7303 7.93633 40.5721 7.41473 40.4145C7.13342 40.3299 6.85276 40.2446 6.57145 40.1592C6.44252 40.1202 6.31293 40.0811 6.18399 40.042C6.00752 39.9893 5.83105 39.9359 5.65458 39.8818C5.60314 39.8669 5.5517 39.8512 5.4983 39.835C5.15122 39.7295 5.15122 39.7295 5.07894 39.6572C5.07243 39.5029 5.06982 39.3511 5.07047 39.1968C5.06982 39.148 5.06982 39.0991 5.06982 39.0483C5.06917 38.8823 5.06917 38.7162 5.06917 38.5495C5.06917 38.4304 5.06917 38.3105 5.06852 38.1914C5.06787 37.8606 5.06787 37.5304 5.06787 37.2003C5.06722 36.8447 5.06657 36.4892 5.06592 36.1336C5.06461 35.2741 5.06396 34.4139 5.06331 33.5537C5.06331 33.1486 5.06266 32.7436 5.06266 32.3385C5.06136 30.9912 5.0607 29.6433 5.06005 28.296C5.06005 28.2087 5.06005 28.1215 5.06005 28.0342C5.06005 27.9912 5.06005 27.9483 5.06005 27.9033C5.06005 27.6845 5.06005 27.4651 5.06005 27.2463C5.0594 27.2027 5.0594 27.159 5.0594 27.1141C5.0594 25.7076 5.05745 24.301 5.0555 22.8938C5.05354 21.4058 5.05224 19.9179 5.05159 18.4293C5.05159 17.6186 5.05094 16.8078 5.04964 15.9971C5.04833 15.3056 5.04768 14.6147 5.04833 13.9231C5.04833 13.5708 5.04833 13.2185 5.04703 12.8669C5.03531 9.40715 5.68258 6.24696 8.1714 3.68325C8.26713 3.58427 8.3622 3.48334 8.45662 3.38241C9.89509 1.86906 11.8643 0.848656 13.8699 0.325757C13.9259 0.310779 13.9813 0.296453 14.0392 0.281476C17.5322 -0.583945 20.779 0.588183 23.7581 2.35354ZM11.9815 1.23741C11.9404 1.25565 11.9001 1.27388 11.8577 1.29276C9.17944 2.51113 7.07025 4.77724 5.99645 7.5083C5.47421 8.90704 5.25346 10.3344 5.25866 11.8217C5.25866 11.9416 5.25866 12.0614 5.25801 12.1818C5.25801 12.5094 5.25867 12.8369 5.25932 13.1645C5.25997 13.5187 5.25932 13.873 5.25932 14.2266C5.25932 14.8393 5.25997 15.4521 5.26062 16.0648C5.26192 16.9511 5.26192 17.8374 5.26192 18.723C5.26257 20.1608 5.26322 21.5979 5.26453 23.0357C5.26583 24.4319 5.26648 25.828 5.26713 27.2242C5.26713 27.2671 5.26713 27.3101 5.26713 27.3544C5.26713 27.8304 5.26778 28.3058 5.26778 28.7811C5.26908 32.3633 5.27169 35.9448 5.27429 39.5269C5.85645 39.7047 6.43861 39.8825 7.02076 40.0603C7.29166 40.143 7.5619 40.2257 7.83279 40.3084C9.32204 40.7642 10.812 41.2187 12.3025 41.6713C12.3481 41.685 12.3937 41.6986 12.4406 41.713C12.6626 41.7826 12.6626 41.7826 12.8931 41.8061C12.8931 41.7091 12.8931 41.7091 12.8931 41.6107C12.8951 38.7729 12.897 35.9344 12.9009 33.0965C12.9009 33.0535 12.9009 33.0106 12.9009 32.9663C12.9022 32.0318 12.9035 31.0967 12.9049 30.1623C12.9055 29.7039 12.9062 29.2454 12.9068 28.787C12.9068 28.7414 12.9068 28.6958 12.9068 28.6489C12.9088 27.1714 12.9101 25.6945 12.9107 24.2176C12.9114 22.6555 12.9133 21.0939 12.9166 19.5324C12.9179 18.5973 12.9185 17.6622 12.9185 16.7271C12.9185 16.0857 12.9198 15.4443 12.9211 14.8022C12.9224 14.4323 12.9231 14.0625 12.9224 13.6926C12.9218 13.3533 12.9224 13.0141 12.9237 12.6748C12.9244 12.553 12.9244 12.4306 12.9237 12.3082C12.9185 11.1022 13.121 10.1762 13.8211 9.16556C14.5869 8.39977 15.576 7.95697 16.6576 7.91203C18.0069 7.95306 19.2174 8.85625 20.3401 9.52436C20.9261 9.87209 21.5187 10.2088 22.1093 10.5487C22.3014 10.66 22.4935 10.7707 22.6856 10.8821C22.8009 10.9492 22.9168 11.0162 23.032 11.0833C23.1773 11.1673 23.3218 11.2513 23.4664 11.3353C23.8226 11.5417 24.1788 11.7377 24.5493 11.9168C24.5786 11.8856 24.6079 11.8549 24.6379 11.823C24.9394 11.5131 25.2565 11.2363 25.5938 10.9661C25.7572 10.8332 25.9168 10.6978 26.0757 10.5597C26.915 9.83367 27.8228 9.15579 28.782 8.59578C28.8608 8.54954 28.8608 8.54954 28.9415 8.50201C29.5536 8.20181 30.3845 8.24414 31.0247 8.43689C31.8217 8.75336 32.4195 9.23133 32.7829 10.0199C32.9443 10.4126 32.9619 10.759 32.9619 11.1797C32.9619 11.2441 32.9619 11.3086 32.9619 11.3744C32.9587 11.8165 32.9281 12.2502 32.8844 12.6898C32.7542 14.0312 32.8082 15.3896 32.8193 16.7356C32.9072 16.7857 32.9072 16.7857 32.9964 16.8365C33.4536 17.0976 33.91 17.3587 34.3659 17.6225C34.4186 17.6531 34.4707 17.683 34.5248 17.7143C34.8543 17.9044 35.1779 18.0998 35.495 18.3095C35.6559 18.3791 35.7158 18.3537 35.8799 18.2984C36.0029 18.2248 36.0029 18.2248 36.1228 18.1317C36.1924 18.0803 36.1924 18.0803 36.2634 18.0282C36.3129 17.991 36.3624 17.9539 36.4132 17.9155C36.981 17.4981 37.5612 17.1087 38.159 16.7356C38.1981 16.7108 38.2372 16.6867 38.2769 16.6613C39.912 15.6403 41.65 14.7918 43.4336 14.0657C43.2102 13.8788 42.9856 13.7264 42.7323 13.5838C42.6593 13.5422 42.5858 13.5011 42.5109 13.4582C42.4718 13.4367 42.4334 13.4145 42.3937 13.3924C42.1872 13.2765 41.9815 13.1593 41.7757 13.0427C41.734 13.0186 41.6923 12.9952 41.6494 12.9711C41.2658 12.7529 40.8842 12.5309 40.5033 12.3075C39.9413 11.978 39.3761 11.6531 38.8102 11.3307C38.1772 10.97 37.5463 10.6053 36.9172 10.2374C35.8206 9.59664 34.7188 8.96434 33.6157 8.33465C32.8545 7.90031 32.0952 7.46272 31.3366 7.02382C31.1243 6.9014 30.9114 6.77898 30.6991 6.65655C29.9509 6.22547 29.204 5.79243 28.4583 5.35679C27.6997 4.91399 26.9385 4.47574 26.1773 4.0375C25.892 3.8734 25.6075 3.7093 25.3229 3.54455C25.2526 3.50483 25.1829 3.46446 25.1113 3.42278C24.6965 3.1838 24.2823 2.94286 23.8695 2.70062C20.0893 0.487901 16.2024 -0.652971 11.9815 1.23741Z" fill="#F3F4F6"/>
<path d="M48.2527 16.6052C48.5008 16.6429 48.678 16.7133 48.8922 16.8415C48.9534 16.8774 49.014 16.9132 49.0765 16.9503C49.1416 16.9894 49.2067 17.0291 49.2744 17.0688C49.4157 17.1528 49.557 17.2368 49.699 17.3202C49.8084 17.3853 49.8084 17.3853 49.9204 17.4517C50.272 17.6588 50.6256 17.8626 50.9799 18.0664C51.1218 18.1485 51.2638 18.2305 51.4064 18.3119C51.4767 18.3529 51.5477 18.3933 51.6206 18.4356C51.9742 18.6395 52.3272 18.8433 52.6808 19.0471C52.8221 19.1285 52.9627 19.2099 53.104 19.2913C53.9506 19.7797 54.7971 20.2681 55.6437 20.7565C55.7133 20.7968 55.7837 20.8372 55.8553 20.8789C55.9966 20.9596 56.1372 21.041 56.2786 21.1224C56.6328 21.3269 56.987 21.5314 57.3413 21.7358C58.0218 22.1278 58.7016 22.5212 59.3801 22.9177C59.9838 23.2707 60.59 23.6184 61.1976 23.9648C61.7889 24.3015 62.3775 24.6427 62.9642 24.9865C63.4637 25.2783 63.9651 25.5654 64.4672 25.852C65.1001 26.2127 65.7311 26.5767 66.3602 26.9446C66.8323 27.2214 67.3057 27.4955 67.7804 27.769C67.8501 27.8094 67.9197 27.8498 67.992 27.8915C68.3534 28.0998 68.7155 28.3076 69.0789 28.5127C70.1605 29.1255 71.1796 29.7493 72.086 30.6056C72.1739 30.6805 72.2618 30.7554 72.3504 30.8296C74.2896 32.5318 75.5301 35.2739 75.7483 37.822C75.7724 38.2453 75.773 38.6679 75.7691 39.0911C75.7691 39.155 75.7684 39.2188 75.7684 39.2839C75.7626 40.288 75.6942 41.229 75.407 42.1966C75.3901 42.2565 75.3732 42.3165 75.3556 42.3783C75.1277 43.1643 74.8229 43.8897 74.4303 44.606C74.3886 44.6848 74.3463 44.7643 74.3046 44.843C73.897 45.5965 73.3845 46.2444 72.803 46.8708C72.7111 46.9724 72.6232 47.0772 72.5386 47.184C72.3478 47.4204 72.1238 47.6028 71.8907 47.7968C71.8555 47.8261 71.821 47.8554 71.7852 47.8854C71.2382 48.3405 70.6853 48.7443 70.0673 49.0992C69.9423 49.1715 69.8179 49.2437 69.6929 49.316C69.4018 49.4847 69.1101 49.6527 68.8184 49.82C68.4114 50.0545 68.0057 50.2908 67.6007 50.5279C66.9977 50.8808 66.3908 51.2285 65.7832 51.575C65.1893 51.9136 64.5974 52.2561 64.0068 52.6012C63.3217 53.0024 62.6341 53.3983 61.9458 53.7948C61.5922 53.9987 61.2393 54.2025 60.8857 54.4063C60.7444 54.4877 60.6037 54.5691 60.4624 54.6505C60.3576 54.7111 60.3576 54.7111 60.2508 54.7723C59.6159 55.1389 59.6159 55.1389 59.4042 55.2613C59.2636 55.3421 59.1229 55.4235 58.9823 55.5042C58.6209 55.7132 58.2595 55.9216 57.8974 56.1293C57.7502 56.2146 57.6024 56.2993 57.4546 56.3846C57.3843 56.425 57.3133 56.4653 57.241 56.507C56.808 56.7571 56.3775 57.0097 55.9543 57.2754C55.7791 57.3835 55.6918 57.4343 55.4809 57.4343C55.5714 57.2487 55.6697 57.0703 55.7745 56.8925C55.8071 56.8372 55.8403 56.7818 55.8735 56.7245C55.9093 56.6646 55.9451 56.6047 55.9816 56.5428C56.0187 56.4797 56.0565 56.4165 56.0949 56.3514C56.7415 55.262 57.3953 54.1764 58.0537 53.0948C58.4379 52.4632 58.8162 51.8283 59.1919 51.1914C59.5214 50.6347 59.8562 50.0805 60.1935 49.5276C60.5484 48.9455 60.898 48.3601 61.2458 47.7727C61.4008 47.5103 61.557 47.2485 61.7127 46.9861C61.8273 46.794 61.9406 46.6019 62.0539 46.4091C62.8015 45.1348 62.8015 45.1348 63.4253 44.6711C63.5451 44.5741 63.6643 44.4764 63.7834 44.3781C63.8433 44.3299 63.9033 44.2811 63.9645 44.2316C64.1364 44.089 64.3024 43.9425 64.4672 43.792C64.7472 43.5368 65.0376 43.2978 65.3319 43.0595C65.5039 42.9168 65.6699 42.7703 65.8347 42.6199C66.1147 42.3646 66.4051 42.1257 66.6994 41.8873C66.8713 41.7447 67.0374 41.5982 67.2021 41.4478C67.4822 41.1925 67.7726 40.9535 68.0669 40.7152C68.2388 40.5726 68.4049 40.4261 68.5696 40.2756C68.8496 40.0204 69.1401 39.7814 69.4344 39.5431C69.6063 39.4005 69.7724 39.2539 69.9371 39.1035C70.2165 38.8489 70.5062 38.6099 70.8006 38.3722C71.0337 38.1788 71.2577 37.9763 71.4811 37.7712C71.5866 37.6768 71.696 37.5869 71.808 37.499C71.9603 37.3909 71.9603 37.3909 72.0209 37.2476C71.9532 37.2229 71.9532 37.2229 71.8848 37.1975C71.6693 37.1063 71.4719 36.993 71.272 36.8732C71.231 36.8485 71.19 36.8244 71.1483 36.7996C71.0142 36.7195 70.8807 36.6401 70.7472 36.56C70.6528 36.504 70.559 36.4473 70.4646 36.3913C69.8375 36.0176 69.2123 35.6392 68.5892 35.2589C67.9777 34.8865 67.3623 34.5192 66.7463 34.1545C66.0554 33.7456 65.3671 33.3327 64.6814 32.9147C64.0263 32.5155 63.3673 32.1228 62.707 31.7321C62.1223 31.3857 61.5395 31.0367 60.9599 30.6837C60.7001 30.5255 60.4409 30.3679 60.1811 30.2103C60.0469 30.1289 59.9128 30.0469 59.778 29.9648C58.1396 28.9659 56.5371 28.2451 54.6343 27.9357C54.5705 27.924 54.5705 27.924 54.5054 27.9123C54.1765 27.8628 53.8588 27.8784 53.528 27.9006C52.0901 27.9885 51.2 27.7905 50.022 26.9694C49.7029 26.7519 49.3695 26.5637 49.0341 26.3729C48.9085 26.2993 48.7821 26.2257 48.6565 26.1522C48.3582 25.9776 48.0593 25.8064 47.7591 25.6358C47.7175 25.6117 47.6758 25.5882 47.6328 25.5635C47.429 25.4476 47.2252 25.3317 47.0213 25.2164C46.9113 25.1539 46.9113 25.1539 46.7986 25.0901C46.701 25.0347 46.701 25.0347 46.6013 24.9787C46.449 24.8869 46.3089 24.7899 46.1689 24.6798C46.4789 22.3447 47.009 20.0708 47.8861 17.8821C48.0541 17.4595 48.185 17.0558 48.2527 16.6052ZM48.4481 16.9308C48.4305 16.9855 48.4129 17.0402 48.3953 17.0962C48.2742 17.4667 48.1537 17.8352 48.0079 18.1967C47.1939 20.2192 46.5981 22.4391 46.4294 24.6147C46.4724 24.6388 46.5154 24.6622 46.559 24.687C47.4759 25.1982 48.3888 25.7139 49.2946 26.2427C49.4268 26.3195 49.559 26.3963 49.6912 26.4738C49.9549 26.6275 50.2186 26.7812 50.483 26.9355C50.5449 26.9707 50.6068 27.0065 50.6712 27.043C50.8575 27.1543 50.8575 27.1543 51.0365 27.2826C51.5809 27.6551 52.0244 27.657 52.6586 27.6258C52.9334 27.6128 53.2076 27.6088 53.4824 27.6062C53.5371 27.6056 53.5911 27.6049 53.6471 27.6043C54.3888 27.6023 55.0921 27.7475 55.8064 27.9357C55.8651 27.9507 55.9243 27.9657 55.9849 27.9813C56.7865 28.189 57.5373 28.484 58.2809 28.8474C58.3558 28.8839 58.4301 28.9203 58.5069 28.9574C59.1353 29.2798 59.7337 29.6529 60.3361 30.0215C60.9287 30.3835 61.5245 30.7404 62.1229 31.094C62.7819 31.484 63.439 31.8767 64.0927 32.2739C64.1299 32.2967 64.1663 32.3188 64.2048 32.3423C64.4275 32.4777 64.6508 32.6138 64.8735 32.7499C65.2304 32.9674 65.5872 33.1843 65.9447 33.4018C65.9831 33.4252 66.0222 33.4487 66.0619 33.4727C66.5399 33.7638 67.0198 34.0516 67.503 34.3336C68.1268 34.6989 68.7454 35.0734 69.3654 35.4458C69.5138 35.535 69.6623 35.6243 69.8101 35.7128C69.8485 35.7356 69.8863 35.7584 69.9254 35.7818C70.0354 35.8476 70.1455 35.914 70.2555 35.9798C70.4841 36.1165 70.712 36.2552 70.9393 36.3933C71.0519 36.461 71.1646 36.5294 71.2772 36.5978C71.3886 36.6648 71.4993 36.7326 71.6107 36.7996C71.6784 36.8413 71.7467 36.8823 71.8164 36.9247C71.8776 36.9618 71.9395 36.9989 72.0027 37.0373C72.142 37.1278 72.142 37.1278 72.2814 37.1174C72.2814 37.2463 72.2814 37.3753 72.2814 37.5081C72.2429 37.5264 72.2039 37.5439 72.1642 37.5628C72.0287 37.6345 71.9284 37.708 71.8138 37.809C71.7754 37.8428 71.737 37.876 71.6973 37.9112C71.6562 37.947 71.6152 37.9835 71.5729 38.0213C71.4856 38.0981 71.3971 38.1749 71.3092 38.2524C71.2649 38.2908 71.2206 38.3299 71.175 38.3703C70.9797 38.5415 70.7817 38.7109 70.5844 38.8795C70.5088 38.944 70.4333 39.0084 70.3578 39.0736C70.3207 39.1048 70.2835 39.1367 70.2451 39.1699C70.0556 39.3321 69.8661 39.4942 69.6766 39.657C69.6004 39.7221 69.5249 39.7873 69.4487 39.8524C69.411 39.8849 69.3738 39.9168 69.3348 39.9501C68.0051 41.0896 66.676 42.2292 65.3463 43.3688C65.3085 43.4013 65.2707 43.4332 65.2323 43.4664C65.1561 43.5316 65.0806 43.5967 65.0044 43.6618C64.8136 43.8252 64.6228 43.9887 64.432 44.1528C64.3747 44.2023 64.3747 44.2023 64.3154 44.2524C64.2445 44.3136 64.1741 44.3742 64.1032 44.4354C64.0693 44.4641 64.0354 44.4934 64.0009 44.5227C63.9638 44.5552 63.9273 44.5871 63.8889 44.6203C63.7802 44.7115 63.6682 44.7994 63.5555 44.8854C62.9864 45.3282 62.6478 45.7983 62.302 46.4254C62.2492 46.5179 62.1965 46.6104 62.1431 46.7022C62.0357 46.8897 61.9289 47.0779 61.8221 47.2661C61.5942 47.6653 61.3539 48.0566 61.1136 48.448C60.7177 49.0959 60.3283 49.7477 59.9415 50.4015C59.5104 51.1296 59.0747 51.8543 58.6339 52.5771C58.2516 53.2049 57.8759 53.8372 57.5021 54.4701C57.1329 55.0953 56.7578 55.7158 56.3645 56.3266C56.3326 56.3768 56.3 56.4276 56.2675 56.4797C56.2395 56.5227 56.2115 56.5663 56.1828 56.6106C56.1659 56.6464 56.149 56.6815 56.132 56.718C56.1535 56.761 56.175 56.804 56.1972 56.8482C57.3009 56.2186 58.4034 55.5863 59.5039 54.9507C59.8562 54.7475 60.2078 54.5444 60.5601 54.3412C60.7014 54.2598 60.842 54.1784 60.9833 54.097C63.523 52.6318 63.523 52.6318 63.7346 52.5094C63.8759 52.4287 64.0166 52.3473 64.1579 52.2659C64.5121 52.0614 64.8664 51.8569 65.2206 51.6525C65.9682 51.222 66.7144 50.7903 67.4587 50.3547C67.8742 50.1118 68.2909 49.8715 68.7077 49.6325C70.1305 48.8341 70.1305 48.8341 71.4348 47.8619C71.4856 47.8183 71.5364 47.774 71.5892 47.7291C73.2562 46.262 74.373 44.563 75.0815 42.4571C75.1075 42.3796 75.1335 42.3021 75.1609 42.222C75.6897 40.5166 75.7724 38.4002 75.3419 36.6616C75.3224 36.5808 75.3224 36.5808 75.3029 36.4988C74.8301 34.5915 73.9484 32.8404 72.5757 31.4241C72.5073 31.3531 72.4396 31.2822 72.3719 31.2112C71.4596 30.2455 70.4301 29.5754 69.2859 28.9125C69.2215 28.8747 69.1563 28.837 69.0899 28.7986C68.664 28.5518 68.2375 28.3063 67.811 28.0608C67.4555 27.8569 67.1012 27.6518 66.7463 27.4474C66.605 27.366 66.4644 27.2846 66.323 27.2032C62.0904 24.7612 57.8577 22.3193 53.625 19.8774C53.5553 19.837 53.485 19.7966 53.4134 19.7549C53.272 19.6742 53.1314 19.5928 52.9901 19.5114C52.6358 19.3069 52.2816 19.1024 51.9274 18.898C51.2202 18.491 50.513 18.082 49.8078 17.6718C49.7439 17.6347 49.6801 17.5976 49.6144 17.5591C49.2985 17.3749 48.986 17.188 48.6799 16.9874C48.579 16.9203 48.579 16.9203 48.4481 16.9308Z" fill="#F3F4F6"/>
<path d="M5.01367 53.5923C5.28521 53.7128 5.40894 53.888 5.57108 54.1296C5.62904 54.2123 5.68634 54.2956 5.7443 54.3783C5.77425 54.4207 5.80421 54.463 5.83481 54.5066C6.23073 55.0634 6.66507 55.5876 7.13132 56.0864C7.25569 56.2218 7.37616 56.3586 7.49533 56.4986C7.77208 56.8157 8.06837 57.1126 8.36661 57.4096C8.46103 57.5033 8.5548 57.5978 8.64857 57.6922C8.98849 58.0321 9.33557 58.3603 9.70219 58.6716C9.7647 58.7269 9.82786 58.7816 9.89233 58.8383C10.7265 59.5572 11.6193 60.1992 12.5101 60.8452C12.5602 60.881 12.6097 60.9168 12.6612 60.954C12.7067 60.9872 12.753 61.0197 12.7999 61.0542C12.8402 61.0829 12.88 61.1116 12.9216 61.1415C13.0252 61.2157 13.0252 61.2157 13.1535 61.2763C13.1541 61.3473 13.1541 61.4183 13.1548 61.4912C13.1587 62.1619 13.1632 62.832 13.1691 63.5027C13.1717 63.8472 13.1743 64.1923 13.1762 64.5368C13.1775 64.8702 13.1802 65.2029 13.1834 65.5363C13.1847 65.6627 13.1854 65.789 13.186 65.916C13.1899 67.1057 13.3136 68.1053 14.166 69.0045C14.896 69.6961 15.7907 70.0419 16.7942 70.0178C18.0334 69.9221 19.132 69.1113 20.1725 68.4973C20.5203 68.2928 20.87 68.0916 21.2203 67.8897C21.3623 67.8077 21.5042 67.7256 21.6468 67.6442C21.7172 67.6032 21.7881 67.5628 21.8611 67.5205C22.2147 67.3167 22.5676 67.1129 22.9212 66.909C23.0625 66.8276 23.2032 66.7462 23.3445 66.6648C23.4141 66.6245 23.4838 66.5841 23.5561 66.5431C25.8841 65.1997 25.8841 65.1997 26.0957 65.0773C26.2364 64.9965 26.3764 64.9158 26.5164 64.8344C26.8439 64.6462 27.1708 64.4573 27.4977 64.2691C27.613 64.2027 27.7282 64.1363 27.8428 64.0705C27.9867 63.9878 28.13 63.9051 28.2739 63.8224C28.3397 63.7847 28.4048 63.7469 28.4725 63.7078C28.5357 63.672 28.5982 63.6355 28.6633 63.5984C28.7864 63.5261 28.9082 63.4506 29.0286 63.3731C29.0859 63.3366 29.1426 63.3002 29.2012 63.2624C29.2507 63.2298 29.3002 63.1966 29.3516 63.1628C29.5405 63.0814 29.6297 63.1022 29.8237 63.1647C29.9624 63.2325 29.9624 63.2325 30.1018 63.3171C30.1552 63.3484 30.2079 63.3796 30.2626 63.4122C30.3473 63.463 30.3473 63.463 30.4345 63.5151C32.5353 64.738 34.7825 65.524 37.1821 65.8997C37.227 65.9069 37.2713 65.9147 37.3175 65.9218C38.3451 66.0879 39.4 66.0723 40.438 66.0951C40.438 66.138 40.438 66.181 40.438 66.2253C40.397 66.2481 40.356 66.2709 40.3136 66.2943C39.4176 66.7925 38.5281 67.2984 37.6438 67.8168C37.2329 68.0571 36.8213 68.2954 36.4085 68.5331C36.303 68.5936 36.303 68.5936 36.1955 68.6555C36.0529 68.7382 35.9103 68.8203 35.7677 68.9023C35.4141 69.1061 35.0612 69.3099 34.7076 69.5138C34.5663 69.5952 34.4256 69.6766 34.2843 69.758C34.2147 69.7983 34.145 69.8387 34.0727 69.8797C33.4378 70.2463 33.4378 70.2463 33.2262 70.3688C33.0848 70.4495 32.9442 70.5309 32.8029 70.6123C32.4486 70.8168 32.0944 71.0212 31.7402 71.2257C31.0597 71.6177 30.3798 72.011 29.7013 72.4076C29.0983 72.7606 28.4914 73.1083 27.8839 73.4547C27.29 73.7933 26.698 74.1359 26.1074 74.481C25.565 74.7988 25.0206 75.1139 24.4756 75.4272C24.1135 75.6355 23.7528 75.8446 23.3933 76.0555C21.5081 77.1612 19.4927 78.1406 17.2566 78.155C17.209 78.1556 17.1608 78.1563 17.1113 78.1563C15.1037 78.1712 15.1037 78.1712 14.1953 77.9466C14.1419 77.9336 14.0879 77.9205 14.0325 77.9075C12.415 77.507 10.8945 76.8142 9.57195 75.7977C9.51334 75.754 9.45539 75.7104 9.39548 75.6648C6.96461 73.7679 5.46885 70.9802 5.09312 67.9353C5.06902 67.6859 5.06902 67.4371 5.06837 67.1864C5.06837 67.1278 5.06772 67.0699 5.06772 67.0093C5.06642 66.8153 5.06577 66.6206 5.06512 66.4259C5.06512 66.2858 5.06446 66.1458 5.06316 66.0058C5.06186 65.6269 5.06056 65.2479 5.05925 64.8689C5.0573 64.4723 5.056 64.0757 5.05405 63.6792C5.05079 62.929 5.04818 62.1782 5.04493 61.428C5.04167 60.5737 5.03842 59.7193 5.03451 58.8643C5.02735 57.1074 5.02018 55.3499 5.01367 53.5923ZM5.27414 54.2435C5.26959 55.9425 5.26633 57.6414 5.26373 59.3397C5.26307 60.1289 5.26177 60.9175 5.25917 61.7067C5.25721 62.395 5.25591 63.0833 5.25591 63.7716C5.25526 64.135 5.25461 64.499 5.25331 64.863C5.252 65.2068 5.252 65.55 5.252 65.8938C5.252 66.0189 5.25135 66.1439 5.2507 66.2689C5.24419 67.3955 5.32819 68.537 5.64467 69.6238C5.66095 69.6818 5.67723 69.7404 5.69481 69.8003C5.87388 70.4098 6.10961 70.9913 6.38116 71.565C6.40134 71.608 6.42153 71.6509 6.44237 71.6952C6.92815 72.7039 7.58845 73.6019 8.37117 74.3996C8.46103 74.4914 8.54894 74.5852 8.63685 74.6789C10.354 76.4788 12.751 77.4953 15.1721 77.8815C15.2418 77.8938 15.3108 77.9062 15.3825 77.9192C18.5563 78.2715 21.2105 77.0857 23.8739 75.5203C24.29 75.2754 24.7087 75.0338 25.1274 74.7922C25.1971 74.7519 25.2674 74.7115 25.3397 74.6698C25.6249 74.5051 25.9108 74.341 26.196 74.1762C27.2118 73.5915 28.2257 73.0028 29.2377 72.4115C30.2496 71.8196 31.2641 71.2316 32.28 70.6462C32.6336 70.4423 32.9865 70.2385 33.3401 70.0347C33.4814 69.9533 33.6221 69.8719 33.7634 69.7905C33.8331 69.7501 33.9027 69.7098 33.975 69.6687C34.6099 69.3021 34.6099 69.3021 34.8216 69.1797C34.9629 69.099 35.1035 69.0176 35.2448 68.9362C35.5991 68.7317 35.9533 68.5272 36.3076 68.3227C36.4502 68.2414 36.5921 68.1593 36.7341 68.0773C36.8038 68.0369 36.8728 67.9972 36.9444 67.9561C37.3 67.751 37.6542 67.5452 38.0084 67.3382C38.0788 67.2965 38.1491 67.2555 38.2214 67.2131C38.3549 67.135 38.4877 67.0568 38.6206 66.9787C38.9605 66.7788 39.3017 66.5919 39.6566 66.4206C39.6566 66.3992 39.6566 66.3777 39.6566 66.3555C39.6156 66.3542 39.5745 66.3529 39.5322 66.3516C39.3421 66.3451 39.1513 66.3379 38.9605 66.3308C38.896 66.3288 38.8322 66.3269 38.7658 66.3249C38.2735 66.306 37.7981 66.2416 37.3123 66.1602C37.1652 66.1374 37.0186 66.1146 36.8715 66.0924C35.1576 65.8183 33.5355 65.3579 31.9726 64.5973C31.9336 64.5784 31.8945 64.5596 31.8535 64.54C31.2713 64.2581 30.7028 63.9553 30.1396 63.6362C30.0927 63.6095 30.0458 63.5828 29.9976 63.5554C29.9559 63.532 29.9142 63.5086 29.8719 63.4838C29.7482 63.4161 29.7482 63.4161 29.5633 63.3601C29.39 63.4402 29.39 63.4402 29.2051 63.5593C28.9498 63.7143 28.6946 63.8661 28.4315 64.0074C28.048 64.2151 27.6696 64.4313 27.2919 64.6488C27.1382 64.7367 26.9846 64.8239 26.8309 64.9119C26.3054 65.2107 25.7812 65.5103 25.2615 65.8183C24.7758 66.1055 24.2861 66.3855 23.7964 66.6648C23.2207 66.993 22.6464 67.3232 22.0747 67.6579C21.4313 68.0343 20.7853 68.4061 20.1374 68.7747C19.7812 68.9778 19.425 69.181 19.0714 69.3881C19.0095 69.4239 18.9483 69.4597 18.8845 69.4968C18.7719 69.5626 18.6599 69.6284 18.5472 69.6948C17.6824 70.1969 16.6959 70.3329 15.7093 70.161C14.7326 69.8843 13.9153 69.252 13.4048 68.3768C13.0792 67.7601 12.9438 67.1565 12.9601 66.4597C12.962 66.349 12.964 66.2377 12.9659 66.127C12.9672 66.0397 12.9672 66.0397 12.9692 65.9498C12.975 65.5741 12.9763 65.1977 12.9776 64.8213C12.9796 64.4912 12.9835 64.1617 12.9907 63.8315C12.9978 63.5118 13.0004 63.1921 12.9998 62.8717C12.9998 62.7499 13.0024 62.6288 13.0063 62.5077C13.0434 61.8611 13.0434 61.8611 12.7973 61.2861C12.5661 61.0699 12.3089 60.9084 12.0328 60.756C11.8732 60.6661 11.7287 60.5587 11.5822 60.4486C11.534 60.4135 11.4864 60.379 11.4369 60.3425C10.8561 59.9192 10.3045 59.4738 9.7673 58.9972C9.67484 58.9171 9.58302 58.837 9.49055 58.7569C9.40915 58.6852 9.32776 58.6136 9.24636 58.5413C9.20012 58.501 9.15389 58.4599 9.10635 58.4183C8.70523 58.0608 8.31842 57.6902 7.93813 57.3106C7.84241 57.2149 7.74603 57.1198 7.64966 57.0241C7.24137 56.6184 6.86954 56.1919 6.51139 55.7412C6.45148 55.669 6.39092 55.5973 6.32971 55.5257C6.01389 55.1526 5.7176 54.7729 5.43694 54.3725C5.40438 54.3301 5.37247 54.2872 5.33926 54.2435C5.31777 54.2435 5.29629 54.2435 5.27414 54.2435Z" fill="#F3F4F6"/>
<path d="M54.0484 38.0291C54.361 38.3019 54.5401 38.6483 54.5928 39.0553C54.6156 39.5392 54.5342 39.9149 54.2438 40.3082C53.9026 40.6462 53.5366 40.8265 53.0554 40.8539C52.5761 40.8389 52.1698 40.6781 51.8383 40.3284C51.5746 39.9937 51.4684 39.657 51.415 39.2377C51.4854 38.6672 51.6977 38.296 52.1457 37.9353C52.7408 37.5159 53.4741 37.6344 54.0484 38.0291Z" fill="#9CA3AF"/>
<path d="M5.27441 10.6143C5.2959 10.6143 5.31739 10.6143 5.33953 10.6143C5.33953 10.6494 5.33953 10.6852 5.34018 10.7217C5.3467 12.8231 5.35386 14.9238 5.36102 17.0252C5.36167 17.2772 5.36297 17.5292 5.36363 17.7812C5.36428 17.832 5.36428 17.8821 5.36428 17.9336C5.36688 18.7469 5.37014 19.5602 5.37209 20.3735C5.37535 21.2083 5.37795 22.0425 5.38121 22.8767C5.38316 23.3918 5.38446 23.9068 5.38642 24.4213C5.38707 24.8159 5.38902 25.2105 5.39032 25.6051C5.39098 25.7673 5.39163 25.9294 5.39163 26.0916C5.39228 26.3123 5.39358 26.5331 5.39423 26.7532C5.39423 26.8183 5.39423 26.8828 5.39423 26.9498C5.39488 27.0084 5.39553 27.0677 5.39553 27.1282C5.39553 27.179 5.39619 27.2305 5.39619 27.2826C5.40009 27.4278 5.40009 27.4278 5.46977 27.6101C5.42679 27.6101 5.38381 27.6101 5.33953 27.6101C5.36102 31.5426 5.38251 35.4751 5.40465 39.5268C5.36167 39.5268 5.31869 39.5268 5.27441 39.5268C5.27441 29.9856 5.27441 20.4445 5.27441 10.6143Z" fill="#9CA3AF"/>
<path d="M5.27441 27.3497C5.37079 27.4141 5.37079 27.4141 5.46977 27.4799C5.46977 27.5229 5.46977 27.5659 5.46977 27.6101C5.42679 27.6101 5.38381 27.6101 5.33953 27.6101C5.36102 31.5426 5.38251 35.4751 5.40465 39.5268C5.36167 39.5268 5.31869 39.5268 5.27441 39.5268C5.27441 35.5083 5.27441 31.4899 5.27441 27.3497Z" fill="#D1D5DB"/>
<path d="M5.27441 27.3497C5.37079 27.4141 5.37079 27.4141 5.46977 27.4799C5.46977 27.5229 5.46977 27.5659 5.46977 27.6101C5.42679 27.6101 5.38381 27.6101 5.33953 27.6101C5.33953 27.8465 5.33953 28.0829 5.33953 28.3264C5.31804 28.3264 5.29655 28.3264 5.27441 28.3264C5.27441 28.0041 5.27441 27.6818 5.27441 27.3497Z" fill="#D1D5DB"/>
</g>
<defs>
<clipPath id="clip0_8646_49337">
<rect width="78.1419" height="78.1419" fill="white"/>
</clipPath>
</defs>
</svg>
