<svg width="400" height="103" viewBox="0 0 400 103" fill="none" xmlns="http://www.w3.org/2000/svg">
<path d="M0.69963 61.0453H30.5218C32.9257 61.0453 35.4282 59.7447 35.4282 56.2394C35.4282 50.6334 29.1225 50.2316 24.3166 48.8323L14.1092 46.032C2.69985 42.9303 0 38.2284 0 30.624C0 21.0193 4.50275 17.0117 15.2125 17.0117H47.6412V26.0172H17.0136C13.2104 26.0172 11.4093 26.9142 11.4093 30.8231C11.4093 35.3241 15.8116 36.526 19.7152 37.6293L31.1228 40.8296C40.5319 43.4308 47.6358 45.736 47.6358 56.5426C47.6358 64.6493 44.7315 70.0544 34.6227 70.0544H0.694248V61.0507L0.69963 61.0453Z" fill="#6B7280"/>
<path d="M89.3621 17.0117C99.3704 17.0117 104.277 23.6187 104.277 32.6242V61.0453C104.277 67.0514 101.272 70.049 95.2713 70.049H68.5454C59.5399 70.049 55.335 64.5435 55.335 53.5378C55.335 43.5313 59.5399 37.0283 68.5454 37.0283H92.5642V33.627C92.5642 28.6238 90.1622 26.0226 85.1571 26.0226H55.335V17.0171H89.3621V17.0117ZM73.0481 46.032C69.0477 46.032 67.4421 48.5345 67.4421 53.5378C67.4421 58.5428 69.0477 61.0453 73.0481 61.0453H89.5612C91.5614 61.0453 92.5642 60.0407 92.5642 58.0405V46.032H73.0481Z" fill="#6B7280"/>
<path d="M111.963 26.0223C111.963 20.0145 114.968 17.0168 120.969 17.0168H139.588C151.597 17.0168 160.206 21.1231 160.206 35.1319V70.0613H148.493V38.2354C148.493 30.2273 145.391 26.0277 137.383 26.0277H126.674C124.673 26.0277 123.671 27.0305 123.671 29.0307V70.0613H111.958V26.0277L111.963 26.0223Z" fill="#6B7280"/>
<path d="M193.435 26.0223C181.121 26.0223 179.921 33.4294 179.921 43.4377C179.921 53.4442 181.121 61.0505 193.435 61.0505H213.953V70.0541H190.536C172.519 70.0541 167.817 59.4467 167.817 43.4377C167.817 27.427 172.519 17.0168 190.536 17.0168H202.189V26.0223H193.435Z" fill="#6B7280"/>
<path d="M244.179 70.0544C232.168 70.0544 224.662 65.7508 224.662 52.7395V26.0173H210.186V17.0118H224.662V0H236.375V17.0118H250.845V26.0173H236.375V50.3375C236.375 58.3437 240.58 61.0454 248.583 61.0454H251.487V70.0491H244.179V70.0544Z" fill="#6B7280"/>
<circle cx="284.006" cy="43.6473" r="20.6278" fill="#9CA3AF"/>
<path d="M315.84 17.0117H283.557C264.541 17.0117 255.331 22.885 255.331 43.4308C255.331 63.9784 264.541 70.049 283.557 70.049H315.84C334.854 70.049 344.064 64.1757 344.064 43.4308C344.064 22.6859 334.856 17.0117 315.84 17.0117ZM283.557 61.6445C271.546 61.6445 267.44 56.4421 267.44 43.4308C267.44 30.4195 271.546 25.4162 283.557 25.4162C295.565 25.4162 299.671 30.4195 299.671 43.4308C299.671 56.4439 295.565 61.6445 283.557 61.6445Z" fill="#6B7280"/>
<path d="M351.758 26.0223C351.758 20.0145 354.761 17.0168 360.764 17.0168H379.381C391.391 17.0168 400 21.1231 400 35.1319V70.0613H388.288V38.2354C388.288 30.2273 385.184 26.0277 377.176 26.0277H366.468C364.468 26.0277 363.464 27.0305 363.464 29.0307V70.0613H351.753V26.0277L351.758 26.0223Z" fill="#6B7280"/>
<path d="M4.54832 98.4061C4.4371 98.4061 4.34381 98.3702 4.26847 98.2984C4.19671 98.2231 4.16083 98.1298 4.16083 98.0186V88.1018H0.924597C0.809786 88.1018 0.716502 88.0659 0.644745 87.9941C0.572988 87.9224 0.537109 87.8291 0.537109 87.7143V87.0039C0.537109 86.8855 0.572988 86.7886 0.644745 86.7169C0.716502 86.6415 0.809786 86.6021 0.924597 86.6021H9.05465C9.17305 86.6021 9.26992 86.6415 9.34168 86.7169C9.41702 86.7886 9.45649 86.8855 9.45649 87.0039V87.7143C9.45649 87.8291 9.41702 87.9224 9.34168 87.9941C9.26992 88.0659 9.17305 88.1018 9.05465 88.1018H5.83277V98.0186C5.83277 98.1298 5.7933 98.2231 5.71796 98.2984C5.6462 98.3702 5.54753 98.4061 5.42375 98.4061H4.54832Z" fill="#9CA3AF"/>
<path d="M19.0172 98.5787C17.844 98.5787 16.9166 98.2235 16.2331 97.5095C15.5478 96.792 15.1729 95.8161 15.1065 94.5818C15.0921 94.4347 15.085 94.2446 15.085 94.015C15.085 93.7853 15.0921 93.597 15.1065 93.4481C15.1495 92.6498 15.3325 91.952 15.659 91.3528C15.9837 90.75 16.4304 90.2872 17.0009 89.9607C17.5695 89.6306 18.2351 89.4656 18.9957 89.4656C19.8514 89.4656 20.569 89.6486 21.1484 90.0109C21.7261 90.3697 22.1674 90.8828 22.4687 91.5465C22.7737 92.2067 22.928 92.9817 22.928 93.8714V94.1585C22.928 94.2841 22.8885 94.3791 22.8132 94.4455C22.7414 94.5137 22.6499 94.546 22.5405 94.546H16.7067C16.7067 94.5567 16.7067 94.5783 16.7067 94.6105C16.7067 94.6446 16.7067 94.6733 16.7067 94.6967C16.7246 95.1559 16.8251 95.5864 17.008 95.9883C17.1892 96.3865 17.4494 96.7094 17.7902 96.957C18.1346 97.2064 18.5365 97.3301 18.9957 97.3301C19.4011 97.3301 19.7384 97.2691 20.0075 97.1436C20.2802 97.0198 20.499 96.8817 20.6676 96.7274C20.8345 96.5749 20.9475 96.4547 21.0049 96.3686C21.1054 96.2305 21.1843 96.1497 21.2417 96.1246C21.2991 96.0959 21.3888 96.0816 21.5144 96.0816H22.3396C22.44 96.0816 22.5262 96.1139 22.5979 96.1748C22.6697 96.2376 22.7002 96.3237 22.6912 96.4332C22.6804 96.6018 22.5907 96.8063 22.4185 97.0503C22.2499 97.2907 22.0113 97.5293 21.7009 97.7678C21.3942 98.0029 21.0139 98.1966 20.56 98.3491C20.1044 98.5016 19.5913 98.5787 19.0172 98.5787ZM16.7067 93.3835H21.3278V93.3333C21.3278 92.8274 21.2345 92.3771 21.048 91.9842C20.8614 91.5878 20.5923 91.2738 20.2443 91.0442C19.8945 90.8146 19.4783 90.6998 18.9957 90.6998C18.5114 90.6998 18.0988 90.8146 17.7543 91.0442C17.4135 91.2738 17.1534 91.5878 16.9722 91.9842C16.7946 92.3771 16.7067 92.8274 16.7067 93.3333V93.3835Z" fill="#9CA3AF"/>
<path d="M32.8714 98.5787C32.0767 98.5787 31.3896 98.4226 30.812 98.1123C30.2325 97.8019 29.7858 97.357 29.4701 96.7776C29.1544 96.2 28.984 95.5057 28.9606 94.6967C28.9499 94.5298 28.9463 94.3056 28.9463 94.0221C28.9463 93.7405 28.9499 93.5163 28.9606 93.3476C28.984 92.5404 29.1544 91.8461 29.4701 91.2667C29.7858 90.689 30.2325 90.2441 30.812 89.932C31.3896 89.6216 32.0767 89.4656 32.8714 89.4656C33.5262 89.4656 34.0859 89.5571 34.5505 89.7383C35.0187 89.9212 35.4044 90.1526 35.7058 90.4343C36.0108 90.7124 36.2386 91.0137 36.3875 91.3384C36.54 91.6649 36.6207 91.9753 36.6315 92.2713C36.6458 92.3825 36.6117 92.4704 36.531 92.5368C36.4539 92.6049 36.3588 92.6372 36.244 92.6372H35.4403C35.3255 92.6372 35.2394 92.6139 35.182 92.5655C35.1281 92.5135 35.0743 92.4255 35.0169 92.3C34.816 91.751 34.5397 91.3635 34.1917 91.1375C33.8419 90.9133 33.4096 90.8003 32.8929 90.8003C32.2184 90.8003 31.6695 91.0083 31.2497 91.4245C30.8281 91.8407 30.5985 92.5117 30.5608 93.4337C30.5501 93.8356 30.5501 94.2284 30.5608 94.6105C30.5985 95.5434 30.8281 96.2161 31.2497 96.6269C31.6695 97.0395 32.2184 97.244 32.8929 97.244C33.4096 97.244 33.8419 97.1328 34.1917 96.9068C34.5397 96.6825 34.816 96.295 35.0169 95.7443C35.0743 95.6205 35.1281 95.529 35.182 95.4716C35.2394 95.4142 35.3255 95.3855 35.4403 95.3855H36.244C36.3588 95.3855 36.4539 95.425 36.531 95.5003C36.6117 95.5721 36.6458 95.6636 36.6315 95.773C36.6207 96.0134 36.5705 96.2574 36.4808 96.5049C36.3947 96.7489 36.2511 96.9983 36.0502 97.2512C35.8529 97.5059 35.6089 97.7302 35.3183 97.9257C35.0259 98.123 34.6761 98.2809 34.2707 98.3993C33.8688 98.5177 33.4024 98.5787 32.8714 98.5787Z" fill="#9CA3AF"/>
<path d="M43.4119 98.4065C43.2971 98.4065 43.2038 98.3706 43.132 98.2988C43.0603 98.2235 43.0244 98.1302 43.0244 98.019V90.0253C43.0244 89.9159 43.0603 89.8244 43.132 89.7526C43.2038 89.6773 43.2971 89.6378 43.4119 89.6378H44.2012C44.316 89.6378 44.4093 89.6773 44.4811 89.7526C44.5528 89.8244 44.5887 89.9159 44.5887 90.0253V90.7644C44.8847 90.3877 45.2525 90.0755 45.6938 89.8315C46.1387 89.5876 46.7091 89.4656 47.4088 89.4656C48.1407 89.4656 48.7614 89.627 49.2744 89.9463C49.7857 90.2675 50.1732 90.7124 50.4369 91.281C50.6988 91.8515 50.8316 92.5117 50.8316 93.2615V98.019C50.8316 98.1302 50.7921 98.2235 50.7168 98.2988C50.645 98.3706 50.5535 98.4065 50.4441 98.4065H49.5973C49.4861 98.4065 49.3928 98.3706 49.3175 98.2988C49.2457 98.2235 49.2099 98.1302 49.2099 98.019V93.3476C49.2099 92.5583 49.0179 91.9448 48.6358 91.5035C48.2573 91.0586 47.6958 90.8361 46.9495 90.8361C46.2553 90.8361 45.6974 91.0586 45.2776 91.5035C44.856 91.9448 44.6461 92.5583 44.6461 93.3476V98.019C44.6461 98.1302 44.6067 98.2235 44.5313 98.2988C44.4596 98.3706 44.3663 98.4065 44.2515 98.4065H43.4119Z" fill="#9CA3AF"/>
<path d="M61.2146 98.5787C60.3625 98.5787 59.6503 98.4155 59.0762 98.0908C58.5022 97.7607 58.0609 97.3068 57.7559 96.7274C57.4545 96.1497 57.2859 95.4896 57.2536 94.7469C57.2428 94.5567 57.2393 94.3128 57.2393 94.015C57.2393 93.719 57.2428 93.4804 57.2536 93.2974C57.2859 92.5422 57.4581 91.8802 57.7703 91.3097C58.0806 90.7357 58.5201 90.2872 59.0906 89.9607C59.6646 89.6306 60.3714 89.4656 61.2146 89.4656C62.0613 89.4656 62.7681 89.6306 63.3386 89.9607C63.9126 90.2872 64.354 90.7357 64.6661 91.3097C64.9764 91.8802 65.1487 92.5422 65.1827 93.2974C65.1917 93.4804 65.1971 93.719 65.1971 94.015C65.1971 94.3128 65.1917 94.5567 65.1827 94.7469C65.1487 95.4896 64.9782 96.1497 64.6733 96.7274C64.3719 97.3068 63.9342 97.7607 63.3601 98.0908C62.7861 98.4155 62.0703 98.5787 61.2146 98.5787ZM61.2146 97.2799C61.9124 97.2799 62.4703 97.0575 62.8865 96.6126C63.3027 96.1677 63.527 95.5183 63.561 94.6608C63.57 94.4939 63.5754 94.2805 63.5754 94.0221C63.5754 93.7638 63.57 93.5521 63.561 93.3835C63.527 92.5278 63.3027 91.8766 62.8865 91.4317C62.4703 90.9868 61.9124 90.7644 61.2146 90.7644C60.5203 90.7644 59.9624 90.9868 59.5427 91.4317C59.1211 91.8766 58.8986 92.5278 58.8753 93.3835C58.861 93.5521 58.8538 93.7638 58.8538 94.0221C58.8538 94.2805 58.861 94.4939 58.8753 94.6608C58.8986 95.5183 59.1211 96.1677 59.5427 96.6126C59.9624 97.0575 60.5203 97.2799 61.2146 97.2799Z" fill="#9CA3AF"/>
<path d="M72.0896 98.4059C71.9784 98.4059 71.8851 98.37 71.8098 98.2983C71.738 98.2229 71.7021 98.1296 71.7021 98.0184V86.8244C71.7021 86.7095 71.738 86.6163 71.8098 86.5445C71.8851 86.4692 71.9784 86.4297 72.0896 86.4297H72.8861C73.0099 86.4297 73.105 86.4692 73.1732 86.5445C73.2395 86.6163 73.2736 86.7095 73.2736 86.8244V98.0184C73.2736 98.1296 73.2395 98.2229 73.1732 98.2983C73.105 98.37 73.0099 98.4059 72.8861 98.4059H72.0896Z" fill="#9CA3AF"/>
<path d="M83.7566 98.5787C82.9045 98.5787 82.1923 98.4155 81.6182 98.0908C81.0442 97.7607 80.6029 97.3068 80.2979 96.7274C79.9965 96.1497 79.8279 95.4896 79.7956 94.7469C79.7848 94.5567 79.7812 94.3128 79.7812 94.015C79.7812 93.719 79.7848 93.4804 79.7956 93.2974C79.8279 92.5422 80.0001 91.8802 80.3123 91.3097C80.6226 90.7357 81.0621 90.2872 81.6326 89.9607C82.2066 89.6306 82.9134 89.4656 83.7566 89.4656C84.6033 89.4656 85.3101 89.6306 85.8806 89.9607C86.4546 90.2872 86.8959 90.7357 87.2081 91.3097C87.5184 91.8802 87.6907 92.5422 87.7247 93.2974C87.7337 93.4804 87.7391 93.719 87.7391 94.015C87.7391 94.3128 87.7337 94.5567 87.7247 94.7469C87.6907 95.4896 87.5202 96.1497 87.2153 96.7274C86.9139 97.3068 86.4762 97.7607 85.9021 98.0908C85.3281 98.4155 84.6123 98.5787 83.7566 98.5787ZM83.7566 97.2799C84.4544 97.2799 85.0123 97.0575 85.4285 96.6126C85.8447 96.1677 86.0689 95.5183 86.103 94.6608C86.112 94.4939 86.1174 94.2805 86.1174 94.0221C86.1174 93.7638 86.112 93.5521 86.103 93.3835C86.0689 92.5278 85.8447 91.8766 85.4285 91.4317C85.0123 90.9868 84.4544 90.7644 83.7566 90.7644C83.0623 90.7644 82.5044 90.9868 82.0846 91.4317C81.6631 91.8766 81.4406 92.5278 81.4173 93.3835C81.403 93.5521 81.3958 93.7638 81.3958 94.0221C81.3958 94.2805 81.403 94.4939 81.4173 94.6608C81.4406 95.5183 81.6631 96.1677 82.0846 96.6126C82.5044 97.0575 83.0623 97.2799 83.7566 97.2799Z" fill="#9CA3AF"/>
<path d="M97.8184 102.116C97.0577 102.116 96.4299 102.012 95.9383 101.808C95.4504 101.607 95.0665 101.363 94.7902 101.076C94.5175 100.792 94.3202 100.509 94.2018 100.222C94.087 99.9349 94.0224 99.7053 94.0081 99.5331C93.9973 99.4218 94.0332 99.3268 94.1157 99.246C94.2018 99.1689 94.2951 99.1312 94.3956 99.1312H95.2064C95.3069 99.1312 95.3894 99.1528 95.4576 99.1958C95.5293 99.2425 95.5867 99.3393 95.6298 99.4828C95.6962 99.6551 95.7966 99.8434 95.9312 100.05C96.0639 100.26 96.272 100.439 96.5554 100.588C96.8371 100.74 97.2318 100.818 97.7394 100.818C98.2651 100.818 98.7082 100.742 99.0669 100.595C99.4293 100.452 99.702 100.204 99.885 99.856C100.072 99.5062 100.165 99.0236 100.165 98.4065V97.2584C99.8957 97.6082 99.5423 97.897 99.1028 98.1266C98.6615 98.3563 98.1126 98.4711 97.4524 98.4711C96.8209 98.4711 96.2792 98.3634 95.8307 98.1482C95.3804 97.9293 95.0127 97.6297 94.7256 97.2512C94.4386 96.8745 94.2251 96.4439 94.087 95.9596C93.9471 95.477 93.8664 94.9729 93.843 94.4455C93.8323 94.1298 93.8323 93.8194 93.843 93.5127C93.8664 92.987 93.9471 92.483 94.087 91.9986C94.2251 91.516 94.4386 91.0837 94.7256 90.6998C95.0127 90.3177 95.3804 90.0163 95.8307 89.7957C96.2792 89.5768 96.8209 89.4656 97.4524 89.4656C98.1269 89.4656 98.683 89.5912 99.1243 89.8387C99.5692 90.0881 99.9316 90.3966 100.215 90.7644V90.0396C100.215 89.9302 100.251 89.8369 100.323 89.7598C100.398 89.6791 100.491 89.6378 100.603 89.6378H101.378C101.492 89.6378 101.587 89.6791 101.665 89.7598C101.745 89.8369 101.787 89.9302 101.787 90.0396V98.2199C101.787 98.9752 101.659 99.6443 101.406 100.229C101.151 100.812 100.735 101.271 100.158 101.607C99.5782 101.946 98.7978 102.116 97.8184 102.116ZM97.7897 97.122C98.3494 97.122 98.8014 96.9929 99.1459 96.7345C99.4903 96.4762 99.7432 96.1515 99.9065 95.7587C100.068 95.3676 100.154 94.9675 100.165 94.5603C100.174 94.4025 100.179 94.2087 100.179 93.9791C100.179 93.7495 100.174 93.5557 100.165 93.3979C100.154 92.9924 100.068 92.5924 99.9065 92.1995C99.7432 91.8084 99.4903 91.4819 99.1459 91.2236C98.8014 90.9653 98.3494 90.8361 97.7897 90.8361C97.2246 90.8361 96.7725 90.9635 96.4335 91.2164C96.098 91.4712 95.8558 91.8031 95.7087 92.2139C95.5652 92.6211 95.4809 93.0606 95.4576 93.5342C95.4468 93.8266 95.4468 94.1226 95.4576 94.424C95.4809 94.8976 95.5652 95.3407 95.7087 95.7515C95.8558 96.1641 96.098 96.496 96.4335 96.7489C96.7725 96.9983 97.2246 97.122 97.7897 97.122Z" fill="#9CA3AF"/>
<path d="M109.068 98.4062C108.953 98.4062 108.86 98.3703 108.788 98.2985C108.716 98.2232 108.68 98.1299 108.68 98.0187V90.025C108.68 89.9155 108.716 89.824 108.788 89.7523C108.86 89.6769 108.953 89.6375 109.068 89.6375H109.879C109.988 89.6375 110.08 89.6769 110.151 89.7523C110.227 89.824 110.266 89.9155 110.266 90.025V98.0187C110.266 98.1299 110.227 98.2232 110.151 98.2985C110.08 98.3703 109.988 98.4062 109.879 98.4062H109.068ZM108.931 88.0014C108.82 88.0014 108.727 87.9655 108.652 87.8938C108.58 87.8184 108.544 87.7252 108.544 87.6139V86.7026C108.544 86.5932 108.58 86.4999 108.652 86.4228C108.727 86.342 108.82 86.3008 108.931 86.3008H109.993C110.108 86.3008 110.203 86.342 110.28 86.4228C110.361 86.4999 110.402 86.5932 110.402 86.7026V87.6139C110.402 87.7252 110.361 87.8184 110.28 87.8938C110.203 87.9655 110.108 88.0014 109.993 88.0014H108.931Z" fill="#9CA3AF"/>
<path d="M119.592 98.5787C119.027 98.5787 118.512 98.4657 118.049 98.2414C117.59 98.0118 117.218 97.7086 116.937 97.3301C116.659 96.948 116.521 96.5157 116.521 96.0313C116.521 95.2528 116.833 94.6321 117.461 94.1728C118.092 93.7136 118.914 93.4104 119.929 93.2615L122.44 92.9099V92.422C122.44 91.882 122.284 91.4604 121.974 91.159C121.667 90.8541 121.165 90.6998 120.467 90.6998C119.968 90.6998 119.563 90.8038 119.247 91.0083C118.935 91.2093 118.718 91.4658 118.594 91.7761C118.526 91.9484 118.41 92.0345 118.243 92.0345H117.482C117.356 92.0345 117.263 91.9986 117.202 91.9268C117.139 91.8515 117.109 91.7618 117.109 91.6613C117.109 91.4945 117.173 91.2864 117.303 91.0371C117.432 90.7895 117.629 90.5473 117.898 90.3123C118.171 90.0791 118.517 89.88 118.939 89.7167C119.358 89.5499 119.873 89.4656 120.481 89.4656C121.156 89.4656 121.723 89.5553 122.182 89.7311C122.645 89.9033 123.009 90.1383 123.273 90.4343C123.535 90.7267 123.727 91.0586 123.847 91.4317C123.965 91.8013 124.026 92.1762 124.026 92.5583V98.019C124.026 98.1302 123.987 98.2235 123.911 98.2988C123.84 98.3706 123.748 98.4065 123.639 98.4065H122.864C122.738 98.4065 122.643 98.3706 122.577 98.2988C122.509 98.2235 122.476 98.1302 122.476 98.019V97.2943C122.327 97.4952 122.128 97.6943 121.881 97.8898C121.637 98.0872 121.328 98.2522 120.955 98.385C120.582 98.5141 120.126 98.5787 119.592 98.5787ZM119.943 97.3086C120.403 97.3086 120.822 97.2117 121.206 97.0144C121.588 96.8189 121.89 96.5121 122.11 96.0959C122.329 95.6797 122.44 95.1559 122.44 94.5244V94.058L120.481 94.345C119.681 94.4563 119.079 94.6446 118.673 94.9119C118.271 95.1756 118.07 95.5075 118.07 95.9093C118.07 96.2251 118.164 96.4888 118.35 96.6987C118.537 96.905 118.774 97.0575 119.061 97.1579C119.348 97.2584 119.642 97.3086 119.943 97.3086Z" fill="#9CA3AF"/>
<path d="M133.87 98.5787C133.239 98.5787 132.697 98.4998 132.249 98.3419C131.798 98.184 131.432 97.9939 131.151 97.7678C130.873 97.5436 130.663 97.3194 130.519 97.0933C130.379 96.8691 130.306 96.6879 130.297 96.548C130.283 96.4296 130.32 96.3363 130.412 96.2681C130.501 96.1964 130.593 96.1605 130.684 96.1605H131.445C131.497 96.1605 131.542 96.1713 131.581 96.1892C131.624 96.2035 131.678 96.252 131.746 96.3327C131.89 96.4906 132.051 96.6484 132.234 96.8063C132.416 96.9642 132.638 97.0933 132.902 97.1938C133.164 97.2943 133.492 97.3445 133.885 97.3445C134.459 97.3445 134.929 97.2351 135.298 97.0144C135.672 96.7955 135.858 96.4726 135.858 96.0457C135.858 95.764 135.781 95.5398 135.628 95.3712C135.48 95.2043 135.212 95.0536 134.825 94.9191C134.437 94.781 133.906 94.6392 133.232 94.4957C132.557 94.3379 132.021 94.1441 131.624 93.9145C131.232 93.6849 130.952 93.4104 130.785 93.0893C130.616 92.77 130.534 92.4058 130.534 91.9986C130.534 91.5824 130.656 91.1806 130.9 90.7931C131.147 90.4056 131.511 90.0881 131.99 89.8387C132.468 89.5912 133.067 89.4656 133.784 89.4656C134.367 89.4656 134.868 89.5409 135.284 89.688C135.7 89.8369 136.041 90.0217 136.31 90.2406C136.583 90.4558 136.786 90.6711 136.92 90.8864C137.053 91.1016 137.128 91.281 137.143 91.4245C137.151 91.5394 137.116 91.6326 137.035 91.7044C136.958 91.7761 136.87 91.812 136.769 91.812H136.059C135.982 91.812 135.917 91.7959 135.865 91.7618C135.817 91.7295 135.768 91.69 135.722 91.647C135.611 91.4999 135.48 91.3528 135.327 91.2093C135.173 91.0622 134.975 90.9402 134.731 90.8433C134.491 90.7482 134.175 90.6998 133.784 90.6998C133.225 90.6998 132.803 90.82 132.521 91.0586C132.238 91.2936 132.098 91.5896 132.098 91.9484C132.098 92.1636 132.159 92.3556 132.285 92.5224C132.408 92.691 132.645 92.8417 132.995 92.9745C133.343 93.109 133.86 93.2543 134.545 93.4122C135.286 93.5611 135.869 93.7602 136.296 94.0078C136.726 94.2518 137.029 94.5388 137.207 94.8689C137.388 95.1954 137.48 95.5703 137.48 95.9955C137.48 96.469 137.343 96.9032 137.071 97.2943C136.802 97.6871 136.398 98.0011 135.858 98.2343C135.316 98.4639 134.654 98.5787 133.87 98.5787Z" fill="#9CA3AF"/>
<path d="M152.734 101.614C152.623 101.614 152.53 101.574 152.454 101.499C152.383 101.427 152.347 101.334 152.347 101.219V90.025C152.347 89.9156 152.383 89.8241 152.454 89.7524C152.53 89.677 152.623 89.6375 152.734 89.6375H153.509C153.624 89.6375 153.717 89.677 153.789 89.7524C153.861 89.8241 153.897 89.9156 153.897 90.025V90.7641C154.169 90.3964 154.53 90.0878 154.98 89.8385C155.429 89.5909 155.992 89.4653 156.666 89.4653C157.293 89.4653 157.829 89.573 158.274 89.7882C158.719 90.0035 159.085 90.2977 159.372 90.6708C159.659 91.0404 159.874 91.4602 160.017 91.9338C160.165 92.4038 160.251 92.9079 160.276 93.4478C160.285 93.6308 160.29 93.821 160.29 94.0219C160.29 94.2228 160.285 94.4148 160.276 94.596C160.251 95.1234 160.165 95.6257 160.017 96.1028C159.874 96.5818 159.659 97.0052 159.372 97.3729C159.085 97.7371 158.719 98.0295 158.274 98.2484C157.829 98.4672 157.293 98.5785 156.666 98.5785C156.015 98.5785 155.468 98.4565 155.023 98.2125C154.578 97.9685 154.214 97.6671 153.933 97.3084V101.219C153.933 101.334 153.898 101.427 153.832 101.499C153.764 101.574 153.674 101.614 153.559 101.614H152.734ZM156.315 97.2079C156.898 97.2079 157.355 97.0823 157.685 96.8276C158.015 96.5746 158.252 96.2446 158.396 95.8373C158.543 95.4265 158.629 94.9834 158.654 94.5098C158.668 94.1851 158.668 93.8604 158.654 93.5339C158.629 93.0604 158.543 92.6208 158.396 92.2136C158.252 91.8028 158.015 91.4709 157.685 91.2162C157.355 90.9633 156.898 90.8359 156.315 90.8359C155.759 90.8359 155.31 90.9651 154.966 91.2234C154.625 91.4817 154.374 91.8118 154.212 92.2136C154.049 92.6119 153.956 93.0173 153.933 93.4335C153.922 93.6111 153.918 93.8246 153.918 94.0721C153.918 94.3215 153.922 94.5421 153.933 94.7323C153.947 95.1252 154.04 95.5126 154.212 95.8947C154.385 96.2786 154.645 96.5944 154.995 96.8419C155.343 97.0859 155.784 97.2079 156.315 97.2079Z" fill="#9CA3AF"/>
<path d="M169.213 98.5787C168.648 98.5787 168.133 98.4657 167.67 98.2414C167.211 98.0118 166.839 97.7086 166.558 97.3301C166.28 96.948 166.142 96.5157 166.142 96.0313C166.142 95.2528 166.454 94.6321 167.082 94.1728C167.713 93.7136 168.535 93.4104 169.55 93.2615L172.062 92.9099V92.422C172.062 91.882 171.905 91.4604 171.595 91.159C171.288 90.8541 170.786 90.6998 170.088 90.6998C169.59 90.6998 169.184 90.8038 168.868 91.0083C168.556 91.2093 168.339 91.4658 168.215 91.7761C168.147 91.9484 168.031 92.0345 167.864 92.0345H167.103C166.978 92.0345 166.884 91.9986 166.823 91.9268C166.761 91.8515 166.73 91.7618 166.73 91.6613C166.73 91.4945 166.795 91.2864 166.924 91.0371C167.053 90.7895 167.25 90.5473 167.519 90.3123C167.792 90.0791 168.138 89.88 168.56 89.7167C168.98 89.5499 169.494 89.4656 170.103 89.4656C170.777 89.4656 171.344 89.5553 171.803 89.7311C172.266 89.9033 172.63 90.1383 172.894 90.4343C173.156 90.7267 173.348 91.0586 173.468 91.4317C173.586 91.8013 173.647 92.1762 173.647 92.5583V98.019C173.647 98.1302 173.608 98.2235 173.533 98.2988C173.461 98.3706 173.369 98.4065 173.26 98.4065H172.485C172.359 98.4065 172.264 98.3706 172.198 98.2988C172.13 98.2235 172.097 98.1302 172.097 98.019V97.2943C171.949 97.4952 171.749 97.6943 171.502 97.8898C171.258 98.0872 170.949 98.2522 170.576 98.385C170.203 98.5141 169.747 98.5787 169.213 98.5787ZM169.564 97.3086C170.024 97.3086 170.443 97.2117 170.827 97.0144C171.209 96.8189 171.511 96.5121 171.731 96.0959C171.95 95.6797 172.062 95.1559 172.062 94.5244V94.058L170.103 94.345C169.302 94.4563 168.7 94.6446 168.294 94.9119C167.892 95.1756 167.692 95.5075 167.692 95.9093C167.692 96.2251 167.785 96.4888 167.971 96.6987C168.158 96.905 168.395 97.0575 168.682 97.1579C168.969 97.2584 169.263 97.3086 169.564 97.3086Z" fill="#9CA3AF"/>
<path d="M180.844 98.4059C180.729 98.4059 180.635 98.37 180.564 98.2983C180.492 98.2229 180.456 98.1296 180.456 98.0184V90.039C180.456 89.9296 180.492 89.8363 180.564 89.7592C180.635 89.6785 180.729 89.6372 180.844 89.6372H181.619C181.733 89.6372 181.828 89.6785 181.906 89.7592C181.981 89.8363 182.02 89.9296 182.02 90.039V90.7853C182.245 90.4032 182.553 90.1162 182.946 89.9242C183.342 89.7341 183.821 89.6372 184.381 89.6372H185.041C185.156 89.6372 185.249 89.6767 185.321 89.752C185.393 89.8238 185.429 89.9153 185.429 90.0247V90.7136C185.429 90.8284 185.393 90.9199 185.321 90.9862C185.249 91.0544 185.156 91.0867 185.041 91.0867H184.03C183.421 91.0867 182.942 91.2643 182.594 91.6177C182.25 91.9729 182.078 92.4537 182.078 93.06V98.0184C182.078 98.1296 182.036 98.2229 181.956 98.2983C181.879 98.37 181.784 98.4059 181.669 98.4059H180.844Z" fill="#9CA3AF"/>
<path d="M193.694 98.5787C193.129 98.5787 192.614 98.4657 192.151 98.2414C191.692 98.0118 191.321 97.7086 191.039 97.3301C190.761 96.948 190.623 96.5157 190.623 96.0313C190.623 95.2528 190.935 94.6321 191.563 94.1728C192.195 93.7136 193.016 93.4104 194.031 93.2615L196.543 92.9099V92.422C196.543 91.882 196.387 91.4604 196.077 91.159C195.77 90.8541 195.268 90.6998 194.57 90.6998C194.071 90.6998 193.666 90.8038 193.35 91.0083C193.038 91.2093 192.821 91.4658 192.697 91.7761C192.629 91.9484 192.512 92.0345 192.345 92.0345H191.585C191.459 92.0345 191.366 91.9986 191.305 91.9268C191.242 91.8515 191.211 91.7618 191.211 91.6613C191.211 91.4945 191.276 91.2864 191.405 91.0371C191.534 90.7895 191.732 90.5473 192.001 90.3123C192.273 90.0791 192.62 89.88 193.041 89.7167C193.461 89.5499 193.976 89.4656 194.584 89.4656C195.259 89.4656 195.825 89.5553 196.285 89.7311C196.747 89.9033 197.112 90.1383 197.375 90.4343C197.637 90.7267 197.829 91.0586 197.949 91.4317C198.068 91.8013 198.129 92.1762 198.129 92.5583V98.019C198.129 98.1302 198.089 98.2235 198.014 98.2988C197.942 98.3706 197.851 98.4065 197.741 98.4065H196.966C196.841 98.4065 196.746 98.3706 196.679 98.2988C196.611 98.2235 196.579 98.1302 196.579 98.019V97.2943C196.43 97.4952 196.231 97.6943 195.983 97.8898C195.739 98.0872 195.431 98.2522 195.058 98.385C194.684 98.5141 194.229 98.5787 193.694 98.5787ZM194.046 97.3086C194.505 97.3086 194.925 97.2117 195.309 97.0144C195.691 96.8189 195.992 96.5121 196.213 96.0959C196.432 95.6797 196.543 95.1559 196.543 94.5244V94.058L194.584 94.345C193.784 94.4563 193.181 94.6446 192.776 94.9119C192.374 95.1756 192.173 95.5075 192.173 95.9093C192.173 96.2251 192.266 96.4888 192.453 96.6987C192.639 96.905 192.876 97.0575 193.163 97.1579C193.45 97.2584 193.744 97.3086 194.046 97.3086Z" fill="#9CA3AF"/>
<path d="M215.9 98.5787C215.335 98.5787 214.82 98.4657 214.358 98.2414C213.898 98.0118 213.527 97.7086 213.245 97.3301C212.967 96.948 212.829 96.5157 212.829 96.0313C212.829 95.2528 213.141 94.6321 213.769 94.1728C214.401 93.7136 215.222 93.4104 216.238 93.2615L218.749 92.9099V92.422C218.749 91.882 218.593 91.4604 218.283 91.159C217.976 90.8541 217.474 90.6998 216.776 90.6998C216.277 90.6998 215.872 90.8038 215.556 91.0083C215.244 91.2093 215.027 91.4658 214.903 91.7761C214.835 91.9484 214.718 92.0345 214.551 92.0345H213.791C213.665 92.0345 213.572 91.9986 213.511 91.9268C213.448 91.8515 213.418 91.7618 213.418 91.6613C213.418 91.4945 213.482 91.2864 213.611 91.0371C213.74 90.7895 213.938 90.5473 214.207 90.3123C214.48 90.0791 214.826 89.88 215.247 89.7167C215.667 89.5499 216.182 89.4656 216.79 89.4656C217.465 89.4656 218.031 89.5553 218.491 89.7311C218.954 89.9033 219.318 90.1383 219.581 90.4343C219.843 90.7267 220.035 91.0586 220.155 91.4317C220.274 91.8013 220.335 92.1762 220.335 92.5583V98.019C220.335 98.1302 220.295 98.2235 220.22 98.2988C220.148 98.3706 220.057 98.4065 219.947 98.4065H219.172C219.047 98.4065 218.952 98.3706 218.885 98.2988C218.817 98.2235 218.785 98.1302 218.785 98.019V97.2943C218.636 97.4952 218.437 97.6943 218.189 97.8898C217.945 98.0872 217.637 98.2522 217.264 98.385C216.891 98.5141 216.435 98.5787 215.9 98.5787ZM216.252 97.3086C216.711 97.3086 217.131 97.2117 217.515 97.0144C217.897 96.8189 218.198 96.5121 218.419 96.0959C218.638 95.6797 218.749 95.1559 218.749 94.5244V94.058L216.79 94.345C215.99 94.4563 215.387 94.6446 214.982 94.9119C214.58 95.1756 214.379 95.5075 214.379 95.9093C214.379 96.2251 214.472 96.4888 214.659 96.6987C214.845 96.905 215.082 97.0575 215.369 97.1579C215.656 97.2584 215.951 97.3086 216.252 97.3086Z" fill="#9CA3AF"/>
<path d="M236.27 98.4061C236.144 98.4061 236.047 98.3702 235.975 98.2984C235.907 98.2231 235.875 98.1298 235.875 98.0186V87.0039C235.875 86.8855 235.907 86.7886 235.975 86.7169C236.047 86.6415 236.144 86.6021 236.27 86.6021H243.23C243.354 86.6021 243.449 86.6415 243.517 86.7169C243.583 86.7886 243.618 86.8855 243.618 87.0039V87.6497C243.618 87.7753 243.583 87.8704 243.517 87.9367C243.449 88.0049 243.354 88.0372 243.23 88.0372H237.497V91.7255H242.857C242.981 91.7255 243.076 91.765 243.144 91.8403C243.21 91.9121 243.244 92.0107 243.244 92.1345V92.7588C243.244 92.87 243.21 92.9633 243.144 93.0386C243.076 93.1104 242.981 93.1463 242.857 93.1463H237.497V96.9709H243.366C243.49 96.9709 243.585 97.005 243.653 97.0714C243.72 97.1395 243.754 97.2346 243.754 97.3584V98.0186C243.754 98.1298 243.72 98.2231 243.653 98.2984C243.585 98.3702 243.49 98.4061 243.366 98.4061H236.27Z" fill="#9CA3AF"/>
<path d="M253.309 98.4061C253.14 98.4061 253.009 98.3685 252.914 98.2913C252.817 98.2106 252.742 98.1084 252.684 97.9828L249.57 90.1613C249.545 90.1039 249.534 90.0465 249.534 89.9891C249.534 89.8886 249.566 89.8061 249.635 89.7379C249.701 89.6715 249.785 89.6375 249.886 89.6375H250.697C250.82 89.6375 250.915 89.6715 250.984 89.7379C251.05 89.8061 251.095 89.8671 251.12 89.9245L253.682 96.5692L256.243 89.9245C256.267 89.8671 256.31 89.8061 256.373 89.7379C256.434 89.6715 256.527 89.6375 256.652 89.6375H257.478C257.567 89.6375 257.65 89.6715 257.722 89.7379C257.793 89.8061 257.829 89.8886 257.829 89.9891C257.829 90.0465 257.817 90.1039 257.793 90.1613L254.658 97.9828C254.615 98.1084 254.545 98.2106 254.45 98.2913C254.353 98.3685 254.215 98.4061 254.033 98.4061H253.309Z" fill="#9CA3AF"/>
<path d="M266.431 98.5787C265.865 98.5787 265.351 98.4657 264.888 98.2414C264.429 98.0118 264.057 97.7086 263.776 97.3301C263.498 96.948 263.359 96.5157 263.359 96.0313C263.359 95.2528 263.672 94.6321 264.299 94.1728C264.931 93.7136 265.752 93.4104 266.768 93.2615L269.279 92.9099V92.422C269.279 91.882 269.123 91.4604 268.813 91.159C268.506 90.8541 268.004 90.6998 267.306 90.6998C266.807 90.6998 266.402 90.8038 266.086 91.0083C265.774 91.2093 265.557 91.4658 265.433 91.7761C265.365 91.9484 265.248 92.0345 265.082 92.0345H264.321C264.195 92.0345 264.102 91.9986 264.041 91.9268C263.978 91.8515 263.948 91.7618 263.948 91.6613C263.948 91.4945 264.012 91.2864 264.142 91.0371C264.271 90.7895 264.468 90.5473 264.737 90.3123C265.01 90.0791 265.356 89.88 265.778 89.7167C266.197 89.5499 266.712 89.4656 267.32 89.4656C267.995 89.4656 268.562 89.5553 269.021 89.7311C269.484 89.9033 269.848 90.1383 270.112 90.4343C270.374 90.7267 270.566 91.0586 270.686 91.4317C270.804 91.8013 270.865 92.1762 270.865 92.5583V98.019C270.865 98.1302 270.826 98.2235 270.75 98.2988C270.679 98.3706 270.587 98.4065 270.478 98.4065H269.703C269.577 98.4065 269.482 98.3706 269.416 98.2988C269.347 98.2235 269.315 98.1302 269.315 98.019V97.2943C269.166 97.4952 268.967 97.6943 268.72 97.8898C268.476 98.0872 268.167 98.2522 267.794 98.385C267.421 98.5141 266.965 98.5787 266.431 98.5787ZM266.782 97.3086C267.241 97.3086 267.661 97.2117 268.045 97.0144C268.427 96.8189 268.729 96.5121 268.949 96.0959C269.168 95.6797 269.279 95.1559 269.279 94.5244V94.058L267.32 94.345C266.52 94.4563 265.918 94.6446 265.512 94.9119C265.11 95.1756 264.909 95.5075 264.909 95.9093C264.909 96.2251 265.003 96.4888 265.189 96.6987C265.376 96.905 265.613 97.0575 265.9 97.1579C266.187 97.2584 266.481 97.3086 266.782 97.3086Z" fill="#9CA3AF"/>
<path d="M278.061 98.4065C277.947 98.4065 277.853 98.3706 277.781 98.2988C277.71 98.2235 277.674 98.1302 277.674 98.019V90.0253C277.674 89.9159 277.71 89.8244 277.781 89.7526C277.853 89.6773 277.947 89.6378 278.061 89.6378H278.851C278.965 89.6378 279.059 89.6773 279.13 89.7526C279.202 89.8244 279.238 89.9159 279.238 90.0253V90.7644C279.534 90.3877 279.902 90.0755 280.343 89.8315C280.788 89.5876 281.359 89.4656 282.058 89.4656C282.79 89.4656 283.411 89.627 283.924 89.9463C284.435 90.2675 284.823 90.7124 285.086 91.281C285.348 91.8515 285.481 92.5117 285.481 93.2615V98.019C285.481 98.1302 285.442 98.2235 285.366 98.2988C285.294 98.3706 285.203 98.4065 285.093 98.4065H284.247C284.136 98.4065 284.042 98.3706 283.967 98.2988C283.895 98.2235 283.859 98.1302 283.859 98.019V93.3476C283.859 92.5583 283.667 91.9448 283.285 91.5035C282.907 91.0586 282.345 90.8361 281.599 90.8361C280.905 90.8361 280.347 91.0586 279.927 91.5035C279.505 91.9448 279.296 92.5583 279.296 93.3476V98.019C279.296 98.1302 279.256 98.2235 279.181 98.2988C279.109 98.3706 279.016 98.4065 278.901 98.4065H278.061Z" fill="#9CA3AF"/>
<path d="M295.864 102.116C295.104 102.116 294.476 102.012 293.984 101.808C293.496 101.607 293.112 101.363 292.836 101.076C292.563 100.792 292.366 100.509 292.248 100.222C292.133 99.9349 292.068 99.7053 292.054 99.5331C292.043 99.4218 292.079 99.3268 292.162 99.246C292.248 99.1689 292.341 99.1312 292.441 99.1312H293.252C293.353 99.1312 293.435 99.1528 293.503 99.1958C293.575 99.2425 293.633 99.3393 293.676 99.4828C293.742 99.6551 293.843 99.8434 293.977 100.05C294.11 100.26 294.318 100.439 294.601 100.588C294.883 100.74 295.278 100.818 295.785 100.818C296.311 100.818 296.754 100.742 297.113 100.595C297.475 100.452 297.748 100.204 297.931 99.856C298.117 99.5062 298.211 99.0236 298.211 98.4065V97.2584C297.942 97.6082 297.588 97.897 297.149 98.1266C296.707 98.3563 296.158 98.4711 295.498 98.4711C294.867 98.4711 294.325 98.3634 293.877 98.1482C293.426 97.9293 293.059 97.6297 292.772 97.2512C292.485 96.8745 292.271 96.4439 292.133 95.9596C291.993 95.477 291.912 94.9729 291.889 94.4455C291.878 94.1298 291.878 93.8194 291.889 93.5127C291.912 92.987 291.993 92.483 292.133 91.9986C292.271 91.516 292.485 91.0837 292.772 90.6998C293.059 90.3177 293.426 90.0163 293.877 89.7957C294.325 89.5768 294.867 89.4656 295.498 89.4656C296.173 89.4656 296.729 89.5912 297.17 89.8387C297.615 90.0881 297.978 90.3966 298.261 90.7644V90.0396C298.261 89.9302 298.297 89.8369 298.369 89.7598C298.444 89.6791 298.537 89.6378 298.648 89.6378H299.423C299.538 89.6378 299.633 89.6791 299.71 89.7598C299.791 89.8369 299.832 89.9302 299.832 90.0396V98.2199C299.832 98.9752 299.705 99.6443 299.452 100.229C299.197 100.812 298.781 101.271 298.204 101.607C297.624 101.946 296.844 102.116 295.864 102.116ZM295.836 97.122C296.395 97.122 296.847 96.9929 297.192 96.7345C297.536 96.4762 297.789 96.1515 297.952 95.7587C298.114 95.3676 298.2 94.9675 298.211 94.5603C298.22 94.4025 298.225 94.2087 298.225 93.9791C298.225 93.7495 298.22 93.5557 298.211 93.3979C298.2 92.9924 298.114 92.5924 297.952 92.1995C297.789 91.8084 297.536 91.4819 297.192 91.2236C296.847 90.9653 296.395 90.8361 295.836 90.8361C295.27 90.8361 294.818 90.9635 294.479 91.2164C294.144 91.4712 293.902 91.8031 293.755 92.2139C293.611 92.6211 293.527 93.0606 293.503 93.5342C293.493 93.8266 293.493 94.1226 293.503 94.424C293.527 94.8976 293.611 95.3407 293.755 95.7515C293.902 96.1641 294.144 96.496 294.479 96.7489C294.818 96.9983 295.27 97.122 295.836 97.122Z" fill="#9CA3AF"/>
<path d="M310.234 98.5787C309.061 98.5787 308.133 98.2235 307.45 97.5095C306.765 96.792 306.39 95.8161 306.323 94.5818C306.309 94.4347 306.302 94.2446 306.302 94.015C306.302 93.7853 306.309 93.597 306.323 93.4481C306.366 92.6498 306.549 91.952 306.876 91.3528C307.201 90.75 307.647 90.2872 308.218 89.9607C308.786 89.6306 309.452 89.4656 310.213 89.4656C311.068 89.4656 311.786 89.6486 312.365 90.0109C312.943 90.3697 313.384 90.8828 313.686 91.5465C313.991 92.2067 314.145 92.9817 314.145 93.8714V94.1585C314.145 94.2841 314.105 94.3791 314.03 94.4455C313.958 94.5137 313.867 94.546 313.757 94.546H307.923C307.923 94.5567 307.923 94.5783 307.923 94.6105C307.923 94.6446 307.923 94.6733 307.923 94.6967C307.941 95.1559 308.042 95.5864 308.225 95.9883C308.406 96.3865 308.666 96.7094 309.007 96.957C309.351 97.2064 309.753 97.3301 310.213 97.3301C310.618 97.3301 310.955 97.2691 311.224 97.1436C311.497 97.0198 311.716 96.8817 311.884 96.7274C312.051 96.5749 312.164 96.4547 312.222 96.3686C312.322 96.2305 312.401 96.1497 312.458 96.1246C312.516 96.0959 312.606 96.0816 312.731 96.0816H313.556C313.657 96.0816 313.743 96.1139 313.815 96.1748C313.886 96.2376 313.917 96.3237 313.908 96.4332C313.897 96.6018 313.808 96.8063 313.635 97.0503C313.467 97.2907 313.228 97.5293 312.918 97.7678C312.611 98.0029 312.231 98.1966 311.777 98.3491C311.321 98.5016 310.808 98.5787 310.234 98.5787ZM307.923 93.3835H312.545V93.3333C312.545 92.8274 312.451 92.3771 312.265 91.9842C312.078 91.5878 311.809 91.2738 311.461 91.0442C311.111 90.8146 310.695 90.6998 310.213 90.6998C309.728 90.6998 309.316 90.8146 308.971 91.0442C308.63 91.2738 308.37 91.5878 308.189 91.9842C308.011 92.3771 307.923 92.8274 307.923 93.3333V93.3835Z" fill="#9CA3AF"/>
<path d="M320.953 98.4059C320.842 98.4059 320.748 98.37 320.673 98.2983C320.601 98.2229 320.565 98.1296 320.565 98.0184V86.8244C320.565 86.7095 320.601 86.6163 320.673 86.5445C320.748 86.4692 320.842 86.4297 320.953 86.4297H321.749C321.873 86.4297 321.968 86.4692 322.036 86.5445C322.103 86.6163 322.137 86.7095 322.137 86.8244V98.0184C322.137 98.1296 322.103 98.2229 322.036 98.2983C321.968 98.37 321.873 98.4059 321.749 98.4059H320.953Z" fill="#9CA3AF"/>
<path d="M329.42 98.4062C329.305 98.4062 329.212 98.3703 329.14 98.2985C329.069 98.2232 329.033 98.1299 329.033 98.0187V90.025C329.033 89.9155 329.069 89.824 329.14 89.7523C329.212 89.6769 329.305 89.6375 329.42 89.6375H330.231C330.341 89.6375 330.432 89.6769 330.504 89.7523C330.579 89.824 330.619 89.9155 330.619 90.025V98.0187C330.619 98.1299 330.579 98.2232 330.504 98.2985C330.432 98.3703 330.341 98.4062 330.231 98.4062H329.42ZM329.284 88.0014C329.173 88.0014 329.079 87.9655 329.004 87.8938C328.932 87.8184 328.896 87.7252 328.896 87.6139V86.7026C328.896 86.5932 328.932 86.4999 329.004 86.4228C329.079 86.342 329.173 86.3008 329.284 86.3008H330.346C330.461 86.3008 330.556 86.342 330.633 86.4228C330.714 86.4999 330.755 86.5932 330.755 86.7026V87.6139C330.755 87.7252 330.714 87.8184 330.633 87.8938C330.556 87.9655 330.461 88.0014 330.346 88.0014H329.284Z" fill="#9CA3AF"/>
<path d="M337.324 98.4061C337.213 98.4061 337.12 98.3703 337.044 98.2985C336.972 98.2232 336.937 98.1299 336.937 98.0187V97.4302C336.937 97.3298 336.962 97.2347 337.015 97.1432C337.067 97.0535 337.12 96.9674 337.173 96.8849L341.83 90.9721H337.482C337.367 90.9721 337.274 90.9398 337.202 90.8717C337.13 90.7999 337.094 90.7048 337.094 90.5846V90.0249C337.094 89.9155 337.13 89.824 337.202 89.7523C337.274 89.6769 337.367 89.6375 337.482 89.6375H343.481C343.596 89.6375 343.689 89.6769 343.761 89.7523C343.832 89.824 343.868 89.9155 343.868 90.0249V90.6492C343.868 90.7497 343.841 90.8412 343.789 90.9219C343.741 90.999 343.689 91.0834 343.631 91.173L339.032 97.0715H343.818C343.942 97.0715 344.037 97.1073 344.105 97.1791C344.171 97.2473 344.205 97.3406 344.205 97.459V98.0187C344.205 98.1299 344.171 98.2232 344.105 98.2985C344.037 98.3703 343.942 98.4061 343.818 98.4061H337.324Z" fill="#9CA3AF"/>
<path d="M352.909 98.5787C352.344 98.5787 351.829 98.4657 351.366 98.2414C350.907 98.0118 350.536 97.7086 350.254 97.3301C349.976 96.948 349.838 96.5157 349.838 96.0313C349.838 95.2528 350.15 94.6321 350.778 94.1728C351.409 93.7136 352.231 93.4104 353.246 93.2615L355.758 92.9099V92.422C355.758 91.882 355.602 91.4604 355.291 91.159C354.985 90.8541 354.482 90.6998 353.785 90.6998C353.286 90.6998 352.88 90.8038 352.565 91.0083C352.253 91.2093 352.035 91.4658 351.912 91.7761C351.843 91.9484 351.727 92.0345 351.56 92.0345H350.799C350.674 92.0345 350.581 91.9986 350.52 91.9268C350.457 91.8515 350.426 91.7618 350.426 91.6613C350.426 91.4945 350.491 91.2864 350.62 91.0371C350.749 90.7895 350.947 90.5473 351.216 90.3123C351.488 90.0791 351.835 89.88 352.256 89.7167C352.676 89.5499 353.191 89.4656 353.799 89.4656C354.473 89.4656 355.04 89.5553 355.5 89.7311C355.962 89.9033 356.327 90.1383 356.59 90.4343C356.852 90.7267 357.044 91.0586 357.164 91.4317C357.283 91.8013 357.344 92.1762 357.344 92.5583V98.019C357.344 98.1302 357.304 98.2235 357.229 98.2988C357.157 98.3706 357.066 98.4065 356.956 98.4065H356.181C356.056 98.4065 355.961 98.3706 355.894 98.2988C355.826 98.2235 355.794 98.1302 355.794 98.019V97.2943C355.645 97.4952 355.446 97.6943 355.198 97.8898C354.954 98.0872 354.646 98.2522 354.272 98.385C353.899 98.5141 353.444 98.5787 352.909 98.5787ZM353.261 97.3086C353.72 97.3086 354.14 97.2117 354.524 97.0144C354.906 96.8189 355.207 96.5121 355.428 96.0959C355.647 95.6797 355.758 95.1559 355.758 94.5244V94.058L353.799 94.345C352.999 94.4563 352.396 94.6446 351.991 94.9119C351.589 95.1756 351.388 95.5075 351.388 95.9093C351.388 96.2251 351.481 96.4888 351.668 96.6987C351.854 96.905 352.091 97.0575 352.378 97.1579C352.665 97.2584 352.959 97.3086 353.261 97.3086Z" fill="#9CA3AF"/>
<path d="M367.663 102.116C367.347 102.106 367.067 102.048 366.823 101.944C366.583 101.844 366.409 101.725 366.3 101.592C366.194 101.458 366.192 101.345 366.292 101.255L366.551 101.018C366.651 100.927 366.739 100.907 366.816 100.961C366.897 101.013 366.997 101.078 367.118 101.155C367.241 101.236 367.423 101.277 367.663 101.277C367.839 101.277 367.995 101.219 368.129 101.105C368.268 100.993 368.338 100.843 368.338 100.652C368.338 100.469 368.268 100.324 368.129 100.215C367.995 100.109 367.839 100.057 367.663 100.057C367.491 100.057 367.344 100.078 367.225 100.121C367.11 100.168 367.01 100.2 366.924 100.215C366.841 100.233 366.755 100.197 366.666 100.107L366.379 99.8057C366.321 99.7376 366.307 99.6586 366.335 99.5689C366.364 99.4775 366.402 99.3896 366.45 99.3034L366.788 98.4926C365.864 98.3347 365.139 97.9293 364.613 97.2727C364.091 96.6126 363.813 95.7551 363.781 94.6967C363.77 94.5298 363.767 94.3056 363.767 94.0221C363.767 93.7405 363.77 93.5163 363.781 93.3476C363.804 92.5404 363.975 91.8461 364.29 91.2667C364.606 90.689 365.053 90.2441 365.632 89.932C366.21 89.6216 366.897 89.4656 367.692 89.4656C368.346 89.4656 368.906 89.5571 369.371 89.7383C369.839 89.9212 370.225 90.1526 370.526 90.4343C370.831 90.7124 371.059 91.0137 371.208 91.3384C371.36 91.6649 371.441 91.9753 371.452 92.2713C371.466 92.3825 371.432 92.4704 371.351 92.5368C371.274 92.6049 371.179 92.6372 371.064 92.6372H370.261C370.146 92.6372 370.06 92.6139 370.002 92.5655C369.948 92.5135 369.895 92.4255 369.837 92.3C369.636 91.751 369.36 91.3635 369.012 91.1375C368.662 90.9133 368.23 90.8003 367.713 90.8003C367.039 90.8003 366.49 91.0083 366.07 91.4245C365.648 91.8407 365.419 92.5117 365.381 93.4337C365.37 93.8356 365.37 94.2284 365.381 94.6105C365.419 95.5434 365.648 96.2161 366.07 96.6269C366.49 97.0395 367.039 97.244 367.713 97.244C368.23 97.244 368.662 97.1328 369.012 96.9068C369.36 96.6825 369.636 96.295 369.837 95.7443C369.895 95.6205 369.948 95.529 370.002 95.4716C370.06 95.4142 370.146 95.3855 370.261 95.3855H371.064C371.179 95.3855 371.274 95.425 371.351 95.5003C371.432 95.5721 371.466 95.6636 371.452 95.773C371.441 96.0564 371.36 96.3596 371.208 96.6843C371.059 97.0108 370.836 97.314 370.54 97.5956C370.248 97.8791 369.868 98.1123 369.4 98.2988C368.935 98.4854 368.373 98.5787 367.713 98.5787L367.34 99.3537C367.406 99.3052 367.5 99.2694 367.62 99.246C367.738 99.2263 367.853 99.2173 367.964 99.2173C368.346 99.2173 368.657 99.3483 368.897 99.612C369.141 99.8739 369.263 100.215 369.263 100.631C369.263 101.036 369.123 101.388 368.847 101.686C368.574 101.982 368.18 102.125 367.663 102.116Z" fill="#9CA3AF"/>
<path d="M380.291 98.5783C379.726 98.5783 379.211 98.4653 378.748 98.241C378.289 98.0114 377.918 97.7082 377.636 97.3297C377.358 96.9476 377.22 96.5153 377.22 96.0309C377.22 95.2523 377.532 94.6316 378.16 94.1724C378.791 93.7132 379.613 93.41 380.628 93.2611L383.14 92.9095V92.4215C383.14 91.8816 382.984 91.46 382.673 91.1586C382.366 90.8536 381.864 90.6994 381.166 90.6994C380.668 90.6994 380.262 90.8034 379.946 91.0079C379.634 91.2088 379.417 91.4654 379.294 91.7757C379.225 91.9479 379.109 92.034 378.942 92.034H378.181C378.056 92.034 377.962 91.9982 377.901 91.9264C377.839 91.8511 377.808 91.7614 377.808 91.6609C377.808 91.4941 377.873 91.286 378.002 91.0366C378.131 90.7891 378.328 90.5469 378.597 90.3119C378.87 90.0787 379.216 89.8795 379.638 89.7163C380.058 89.5495 380.573 89.4652 381.181 89.4652C381.855 89.4652 382.422 89.5548 382.881 89.7307C383.344 89.9029 383.708 90.1379 383.972 90.4339C384.234 90.7263 384.426 91.0582 384.546 91.4313C384.665 91.8008 384.725 92.1758 384.725 92.5579V98.0186C384.725 98.1298 384.686 98.2231 384.611 98.2984C384.539 98.3702 384.447 98.4061 384.338 98.4061H383.563C383.437 98.4061 383.342 98.3702 383.276 98.2984C383.208 98.2231 383.176 98.1298 383.176 98.0186V97.2938C383.027 97.4947 382.828 97.6939 382.58 97.8894C382.336 98.0867 382.027 98.2518 381.654 98.3845C381.281 98.5137 380.826 98.5783 380.291 98.5783ZM380.643 97.3082C381.102 97.3082 381.522 97.2113 381.905 97.014C382.288 96.8184 382.589 96.5117 382.81 96.0955C383.028 95.6793 383.14 95.1555 383.14 94.524V94.0576L381.181 94.3446C380.381 94.4558 379.778 94.6442 379.372 94.9115C378.971 95.1752 378.77 95.5071 378.77 95.9089C378.77 96.2246 378.863 96.4884 379.05 96.6982C379.236 96.9045 379.473 97.057 379.76 97.1575C380.047 97.2579 380.341 97.3082 380.643 97.3082ZM382.013 88.4534C381.73 88.4534 381.504 88.4085 381.331 88.317C381.163 88.222 381.01 88.1269 380.872 88.03C380.732 87.9349 380.578 87.8865 380.406 87.8865C380.271 87.8865 380.173 87.926 380.112 88.0013C380.049 88.0784 379.991 88.1592 379.939 88.2453C379.891 88.3314 379.805 88.3744 379.681 88.3744H379.143C379.066 88.3744 378.999 88.3457 378.942 88.2883C378.884 88.2309 378.856 88.1699 378.856 88.1018C378.856 87.9349 378.886 87.7645 378.949 87.5923C379.01 87.4165 379.103 87.2532 379.229 87.1043C379.353 86.9519 379.502 86.8299 379.674 86.7384C379.85 86.6487 380.043 86.6021 380.255 86.6021C380.546 86.6021 380.775 86.6505 380.944 86.7456C381.116 86.8424 381.274 86.9375 381.418 87.0326C381.565 87.1295 381.722 87.1761 381.891 87.1761C382.024 87.1761 382.121 87.1366 382.178 87.0541C382.236 86.968 382.288 86.8819 382.336 86.7958C382.388 86.7097 382.476 86.6666 382.601 86.6666H383.14C383.229 86.6666 383.299 86.6953 383.348 86.7527C383.4 86.8101 383.427 86.8783 383.427 86.9537C383.427 87.1115 383.394 87.2819 383.333 87.4631C383.271 87.6407 383.177 87.8058 383.054 87.9583C382.928 88.1125 382.781 88.2345 382.609 88.3242C382.436 88.4103 382.237 88.4534 382.013 88.4534Z" fill="#9CA3AF"/>
<path d="M395.123 98.5787C394.271 98.5787 393.558 98.4155 392.984 98.0908C392.41 97.7607 391.969 97.3068 391.664 96.7274C391.363 96.1497 391.194 95.4896 391.162 94.7469C391.151 94.5567 391.147 94.3128 391.147 94.015C391.147 93.719 391.151 93.4804 391.162 93.2974C391.194 92.5422 391.366 91.8802 391.678 91.3097C391.989 90.7357 392.428 90.2872 392.999 89.9607C393.573 89.6306 394.28 89.4656 395.123 89.4656C395.97 89.4656 396.676 89.6306 397.247 89.9607C397.821 90.2872 398.262 90.7357 398.574 91.3097C398.885 91.8802 399.057 92.5422 399.091 93.2974C399.1 93.4804 399.105 93.719 399.105 94.015C399.105 94.3128 399.1 94.5567 399.091 94.7469C399.057 95.4896 398.886 96.1497 398.581 96.7274C398.28 97.3068 397.842 97.7607 397.268 98.0908C396.694 98.4155 395.978 98.5787 395.123 98.5787ZM395.123 97.2799C395.821 97.2799 396.379 97.0575 396.795 96.6126C397.211 96.1677 397.435 95.5183 397.469 94.6608C397.478 94.4939 397.484 94.2805 397.484 94.0221C397.484 93.7638 397.478 93.5521 397.469 93.3835C397.435 92.5278 397.211 91.8766 396.795 91.4317C396.379 90.9868 395.821 90.7644 395.123 90.7644C394.429 90.7644 393.871 90.9868 393.451 91.4317C393.029 91.8766 392.807 92.5278 392.784 93.3835C392.769 93.5521 392.762 93.7638 392.762 94.0221C392.762 94.2805 392.769 94.4939 392.784 94.6608C392.807 95.5183 393.029 96.1677 393.451 96.6126C393.871 97.0575 394.429 97.2799 395.123 97.2799Z" fill="#9CA3AF"/>
</svg>
